<?xml version="1.0" encoding="UTF-8" standalone="no"?>
<!DOCTYPE svg PUBLIC "-//W3C//DTD SVG 1.1//EN" "http://www.w3.org/Graphics/SVG/1.1/DTD/svg11.dtd">
<svg width="100%" height="100%" viewBox="0 0 906 1185" version="1.1" xmlns="http://www.w3.org/2000/svg" xmlns:xlink="http://www.w3.org/1999/xlink" xml:space="preserve" xmlns:serif="http://www.serif.com/" style="fill-rule:evenodd;clip-rule:evenodd;stroke-linecap:round;stroke-linejoin:round;stroke-miterlimit:1.5;">
    <g>
        <path d="M453.236,1178.25L189.296,1178.25C135.192,1178.25 37.266,1172.32 23.266,1049.22L6.266,184.28C5.266,71.176 50.192,8.25 216.296,6.25L453.236,6.25" style="fill:rgb(74,105,189);stroke:black;stroke-width:12.5px;"/>
    </g>
    <g>
        <path d="M452.236,1178.25L716.177,1178.25C770.281,1178.25 868.207,1172.32 882.207,1049.22L899.207,184.28C900.207,71.176 855.281,8.25 689.177,6.25L452.236,6.25" style="fill:rgb(74,105,189);stroke:black;stroke-width:12.5px;"/>
    </g>
    <g opacity="0.5">
        <path d="M187.915,890.864C187.915,890.864 186.156,957.227 187.155,961.569C188.154,965.911 230.701,961.8 225.168,941.802C219.636,921.804 187.915,928.878 187.915,928.878C187.915,928.878 228.479,928.316 224.408,903.789C220.337,879.262 187.915,890.864 187.915,890.864Z" style="fill:none;stroke:black;stroke-width:12.5px;"/>
        <path d="M688.17,965.752C688.17,965.752 684.565,890.649 691.211,888.708C697.857,886.767 724.42,892.335 718.867,904.549C713.314,916.764 697.534,925.953 690.451,926.354C683.369,926.756 718.867,963.133 718.867,963.133" style="fill:none;stroke:black;stroke-width:12.5px;"/>
        <path d="M280.668,902.268C280.668,902.268 281.829,882.855 262.421,888.122C243.014,893.389 235.342,907.955 242.257,919.754C249.172,931.553 282.518,931.228 279.908,947.884C277.297,964.54 262.627,967.713 254.819,963.133C247.011,958.554 242.257,947.124 242.257,947.124" style="fill:none;stroke:black;stroke-width:12.5px;"/>
        <path d="M294.776,888.122C294.776,888.122 289.395,961.391 294.776,963.133C300.156,964.876 320.844,964.387 324.763,963.133" style="fill:none;stroke:black;stroke-width:12.5px;"/>
        <path d="M333.126,921.275C336.729,920.908 351.373,921.826 351.373,921.826" style="fill:none;stroke:black;stroke-width:12.5px;"/>
        <path d="M400.468,888.122C400.468,888.122 379.19,886.54 374.941,915.193C370.692,943.846 386.998,965.314 398.077,963.133C409.156,960.953 421.793,948.588 418.276,925.628C414.759,902.667 413.18,889.435 400.468,888.122Z" style="fill:none;stroke:black;stroke-width:12.5px;"/>
        <path d="M441.753,921.188C441.753,921.188 452.069,919.866 457.81,921.188" style="fill:none;stroke:black;stroke-width:12.5px;"/>
        <path d="M478.337,965.035C478.337,965.035 474.34,878.688 479.857,883.262C485.374,887.836 499.59,923.67 501.265,916.713C502.939,909.757 516.364,881.636 517.871,887.216C519.378,892.796 521.672,964.264 521.672,964.264" style="fill:none;stroke:black;stroke-width:12.5px;"/>
        <path d="M571.159,963.286C571.159,963.286 536.188,966.865 535.767,957.051C535.345,947.237 530.638,886.544 541.088,886.88C551.539,887.216 567.358,887.216 567.358,887.216" style="fill:none;stroke:black;stroke-width:12.5px;"/>
        <path d="M669.38,965.115C669.38,965.115 634.408,968.695 633.987,958.881C633.565,949.067 628.858,888.374 639.309,888.71C649.76,889.045 665.578,889.045 665.578,889.045" style="fill:none;stroke:black;stroke-width:12.5px;"/>
        <path d="M534.397,925.401C534.397,925.401 547.086,926.917 552.753,926.125" style="fill:none;stroke:black;stroke-width:12.5px;"/>
        <path d="M632.617,927.23C632.617,927.23 645.306,928.747 650.973,927.955" style="fill:none;stroke:black;stroke-width:12.5px;"/>
        <path d="M602.26,964.264C602.26,964.264 600.52,896.051 603.021,888.107" style="fill:none;stroke:black;stroke-width:12.5px;"/>
        <path d="M582.085,886.879C582.085,886.879 612.421,887.526 620.821,887.816" style="fill:none;stroke:black;stroke-width:12.5px;"/>
    </g>
    <path d="M76.266,156.25C76.266,156.25 81.508,91.146 129.266,84.25C177.024,77.354 697.776,80.486 749.266,91.25C800.756,102.014 817.967,113.834 818.266,165.25C818.565,216.666 812.736,744.094 808.266,753.25C796.825,776.684 750.065,784.062 676.73,783.25C603.395,782.438 261.817,781.244 229.743,780.25C197.67,779.256 97.055,776.039 86.266,754.25C75.477,732.461 72.633,311.331 76.266,156.25Z" style="fill:rgb(184,233,148);stroke:black;stroke-width:12.5px;"/>
    <path d="M299.266,1178.25C299.266,1178.25 316.886,1049.51 446.523,1054.25C576.16,1058.99 595.266,1178.25 595.266,1178.25" style="stroke:black;stroke-width:12.5px;"/>
    <path d="M312.273,1167.32C311.265,1166.43 322.454,1058.28 441.576,1059.31C560.699,1060.33 599.451,1167.98 577.626,1170.83C555.801,1173.69 322.94,1176.74 312.273,1167.32Z" style="fill:rgb(74,105,189);stroke:black;stroke-width:12.5px;"/>
</svg>
