<?xml version="1.0" encoding="UTF-8" standalone="no"?>
<!DOCTYPE svg PUBLIC "-//W3C//DTD SVG 1.1//EN" "http://www.w3.org/Graphics/SVG/1.1/DTD/svg11.dtd">
<svg width="100%" height="100%" viewBox="0 0 904 1185" version="1.1" xmlns="http://www.w3.org/2000/svg" xmlns:xlink="http://www.w3.org/1999/xlink" xml:space="preserve" xmlns:serif="http://www.serif.com/" style="fill-rule:evenodd;clip-rule:evenodd;stroke-linecap:round;stroke-linejoin:round;stroke-miterlimit:1.5;">
    <g>
        <g>
            <path d="M450.236,1178.25L714.177,1178.25C768.281,1178.25 866.207,1172.32 880.207,1049.22L897.207,184.28C898.207,71.176 853.281,8.25 687.177,6.25L450.236,6.25" style="fill:rgb(43,89,90);stroke:black;stroke-width:12.5px;"/>
        </g>
        <g>
            <path d="M453.236,1178.25L189.296,1178.25C135.192,1178.25 37.266,1172.32 23.266,1049.22L6.266,184.28C5.266,71.176 50.192,8.25 216.296,6.25L453.236,6.25" style="fill:rgb(43,89,90);stroke:black;stroke-width:12.5px;"/>
        </g>
    </g>
    <path d="M74.266,156.25C74.266,156.25 79.508,91.146 127.266,84.25C175.024,77.354 695.776,80.486 747.266,91.25C798.756,102.014 815.967,113.834 816.266,165.25C816.565,216.666 810.736,744.094 806.266,753.25C794.825,776.684 748.065,784.062 674.73,783.25C601.395,782.438 259.817,781.244 227.743,780.25C195.67,779.256 95.055,776.039 84.266,754.25C73.477,732.461 70.633,311.331 74.266,156.25Z" style="fill:rgb(184,233,148);stroke:black;stroke-width:12.5px;"/>
    <g>
        <path d="M297.623,906.657C301.006,880.988 330.034,871.065 344.673,869.657C359.313,868.25 519.373,866.973 548.673,870.657C578.203,874.371 592.826,891.586 593.673,912.657C594.507,933.394 592.915,1000.83 591.673,1035.66C590.432,1070.48 561.991,1078.03 540.673,1078.66C519.356,1079.29 361.417,1078.06 338.487,1075.59C315.556,1073.12 303.224,1062.7 297.623,1041.53C294.998,1031.61 293.692,936.482 297.623,906.657ZM444.237,903.657C444.237,903.657 398.55,982.815 399.566,1005.09C400.582,1027.36 420.012,1044.91 444.237,1045.66C468.463,1046.41 486.543,1023.96 485.782,1001.71C485.021,979.452 444.237,903.657 444.237,903.657Z" style="fill-opacity:0.43;"/>
    </g>
</svg>
