<svg clip-rule="evenodd" fill-rule="evenodd" stroke-linejoin="round" stroke-miterlimit="2" viewBox="0 0 818 254" xmlns="http://www.w3.org/2000/svg" xmlns:xlink="http://www.w3.org/1999/xlink"><linearGradient id="a" gradientTransform="matrix(1266.47 -474.289 474.289 1266.47 117.354 601.225)" gradientUnits="userSpaceOnUse" x1="0" x2="1" y1="0" y2=".146831"><stop offset="0" stop-color="#fe9119"/><stop offset=".45" stop-color="#fc4575"/><stop offset="1" stop-color="#9d00cd"/></linearGradient><linearGradient id="b" gradientTransform="matrix(1266.47 -474.289 474.289 1266.47 117.354 601.225)" gradientUnits="userSpaceOnUse" x1="0" x2="1" y1="0" y2="0"><stop offset="0" stop-color="#fe9119"/><stop offset=".62" stop-color="#fc4575"/><stop offset="1" stop-color="#9d00cd"/></linearGradient><g fill-rule="nonzero"><g fill="url(#a)" transform="matrix(.770416 0 0 1.01489981 -73.750449 -285.144928)"><path d="m298.368 280.947c1.615-.001 5 .351 5 4.817v16.646c0 2.594-1.597 4.25-5 4.32-13.445.284-26.889.567-40.333.85-3.4.072-5 1.82-5 4.528v4.696c0 2.667 1.727 4.339 5 4.218 8.611-.32 17.222-.641 25.833-.962 2.205-.082 5 .43 5 4.055v16.466c0 2.782-1.55 4.785-5 4.995-8.611.526-17.222 1.053-25.833 1.579-3.031.184-5 1.81-5 5.229-.001 1.819-.002 3.639-.003 5.458-.003 3.215 1.768 5.11 4.991 4.858 13.442-1.054 26.885-2.108 40.327-3.163 3.414-.263 4.994 1.309 4.98 4.299-.028 5.789-.056 11.578-.083 17.367-.011 2.858-1.428 4.961-5.01 5.507-22.58 3.441-46.926 7.352-69.938 10.715-3.033.443-4.995-1.136-4.99-4.807.02-35.559.039-71.117.059-106.676 0-3.152 1.729-4.973 5-4.974 23.333-.007 46.667-.014 70-.021z"/><path d="m345.701 280.935c2.701 0 4.615 1.05 5.834 3.655 7.674 17.579 15.624 30.68 22.666 44.558.668 1.207 2 .871 2-.48v-43.017c0-2.833 1.607-4.719 5-4.719 6.222.001 12.445.001 18.667.002 1.311 0 5 .187 5 4.712 0 42.091.102 42.071-.184 84.177-.014 2.084-1.335 4.097-5.019 4.383-6.773.525-15.455 1.298-24.487 2.244-2.456.258-4.514-.283-5.816-2.615-3-5.782-7.618-13.565-11.174-20.922-3.02-6.246-5.003-11.798-11.32-24.331-.66-1.201-2-.877-2 .5 0 23.307-.035 23.289-.152 46.601-.012 2.509-1.502 4.565-5.013 5.035-8.825 1.181-17.161 2.384-18.652 2.599-3.298.475-4.992-1.153-4.981-3.901.123-30.659.131-30.649.131-93.679 0-2.928 1.64-4.796 5-4.797 8.167-.001 16.334-.003 24.5-.005z"/><path d="m448.201 308.558c0-3.417-3.437-3.651-5-3.652-1.954-.002-11.445-.009-23.333.048-3.309.016-5-1.469-5-3.763v-15.539c0-2.815 1.602-4.715 5-4.714 28.444-.002 56.889-.003 85.333-.005 1.354 0 5 .207 5 4.712v15.694c0 2.166-1.329 3.846-5 3.809-1.343-.013-11.704-.119-23.333-.181-3.528-.019-5 1.525-5 3.667 0 34.091-.003 34.071-.197 59.946-.015 2.003-1.317 3.894-5.021 3.801-1.493-.037-9.459-.235-18.664-.303-3.349-.025-4.995-1.807-4.979-3.965.19-25.798.194-25.777.194-59.555z"/><path d="m595.201 280.945c1.626 0 5 .359 5 4.829v16.705c0 2.476-1.443 4.208-5 4.135-13.444-.257-26.889-.513-40.333-.77-3.434-.06-5 1.487-5 3.86v4.173c0 2.361 1.729 3.966 5 4.068 8.611.287 17.222.573 25.833.86 2.11.073 5 .707 5 4.291v16.084c0 2.659-1.467 4.538-5 4.336-1.525-.087-13.469-.773-25.833-1.411-2.869-.148-5 1.042-5 4.502 0 .38 0 1.555-.021 4.746-.017 2.691 1.923 4.121 4.968 4.288 16.738.922 32.66 1.958 40.323 2.465 1.555.103 4.998.585 4.959 4.374-.052 4.951-.104 9.901-.156 14.851-.037 3.958-3.576 3.809-5.034 3.657-19.502-2.034-44.111-4.378-69.953-6.107-3.373-.226-4.987-2.084-4.969-4.289.349-42.483.216-42.467.216-84.943 0-2.83 1.607-4.717 5-4.717 23.334.005 46.667.009 70 .013z"/><path d="m683.201 351.765c-.063-.162-.55-1.402.5-2.122 10.125-6.612 12.667-18.649 12.667-30.415 0-26.393-13.16-38.256-41.667-38.265-12.166-.004-24.333-.007-36.5-.011-3-.001-5.166 2.182-5.166 5.01 0 46.297.172 46.283-.263 92.565-.023 2.461 2.114 4.615 5.127 4.953.922.103 8.679.972 18.666 2.139 3.034.355 5.184-1.359 5.207-3.924.071-7.611.143-15.221.214-22.832.023-2.593 2.193-4.428 5.205-4.238l6.666.417c.454.029.979.335 1.328.829 7.601 13.816 10.363 19.053 17.08 31.897.642 1.419 2.163 2.394 3.82 2.597 6.341.776 12.682 1.552 19.023 2.329 5.276.645 7.838-3.572 5.568-7.99-1.155-2.251-5.956-11.65-9.7-18.622-3.856-7.181-3.984-7.084-7.775-14.317zm-27.5-43.882c7.851.162 12 1.07 12 10.491 0 9.447-4.167 10.095-12 9.754-2.833-.125-5.666-.249-8.5-.374-2.995-.132-5.166-2.185-5.166-4.796v-10.812c0-2.602 2.17-4.502 5.166-4.439 2.834.059 5.667.117 8.5.176z"/><path d="m788.535 314.611c0-3.064-1.451-4.978-5-4.987-2.003-.005-11.448-.03-23.334-.121-3.136-.024-5-1.841-5-4.948v-18.532c0-3.292 1.803-5.048 5-5.049 28.445-.005 56.889-.01 85.334-.015 3.317 0 5 1.683 5 5v18.666c0 3.167-1.699 5-5 5h-23.334c-3.167 0-5 1.699-5 5 .011 28.504.022 57.009.033 85.513.003 4.54-2.333 5.725-4.973 5.52-6.954-.54-10.372-.858-18.673-1.688-2.873-.287-5.024-2.165-5.026-6.07-.009-27.763-.018-55.526-.027-83.289z"/><path d="m884.201 280.959c3.151 0 5 1.849 5 5v41.666c0 3.151 1.849 5 5 5h16c3.302 0 5-1.833 5-5v-41.666c0-3.151 1.849-5 5-5h18.667c3.317 0 5 1.683 5 5 0 57.682.119 57.666-.292 115.353-.031 4.303-1.974 6.484-5.043 6.604-1.491.059-9.355.366-18.642.579-2.965.067-4.975-2.063-4.948-6.348.064-11.283.128-22.566.193-33.849.016-2.487-.486-6.465-4.953-6.475-5.333-.013-10.666-.027-15.999-.041-2.609-.008-5.011 1.49-5.038 6.354-.051 11.409-.102 22.817-.153 34.226-.023 4.549-2.103 6.408-5.022 6.38-1.489-.013-9.337-.087-18.609-.332-2.864-.076-4.972-2.093-4.958-6.429.043-38.674.087-77.348.131-116.022 0-3.317 1.683-5 5-5z"/><path d="m1035.54 280.959c3.31 0 5 1.683 5 5v18.666c0 3.167-1.7 5-5 5h-40.339c-3.167 0-5 1.699-5 5v5.334c0 3.151 1.849 5 5 5h25.829c3.32 0 5.01 1.683 5.01 5v18.666c0 3.167-1.7 5-5.01 5h-25.829c-3.167 0-5 1.699-5 5 0 .624-.046 6.125-.05 6.657-.036 4.274 2.083 6.095 4.951 6.057 12.848-.17 26.708-.406 40.348-.694 3.4-.072 4.99 1.811 4.96 5.025-.04 6.146-.08 12.292-.12 18.438-.03 3.375-1.58 5.753-5.05 6.161-24.77 2.91-48.33 4.964-70.058 6.303-3.055.189-4.979-1.973-4.949-6.028.428-57.301.302-57.285.302-114.585 0-3.301 1.833-5 5-5z"/></g><g fill="url(#b)" transform="matrix(.770416 0 0 .770416 -74.051527 -67.8568)"><path d="m194.932 312.155c3.866-1.021 5.385-3.543 5.203-6.788-.597-7.069-4.27-23.669-17.065-32.493-10.06-6.938-23.816-7.048-34.95-5.887-43.735 4.559-48.449 33.263-48.185 41.131-.001 46.273 60.261 42.047 64.051 59.516 1.199 5.559-5.904 11.665-15.808 11.696-9.36.03-16.823-5.678-17.631-15.534-.433-4.638-2.954-6.055-6.606-5.281-11.027 2.578-20.796 4.784-22.606 5.193-3.712.842-5.392 3.196-5.2 6.705.768 12.179 5.663 24.419 15.257 32.433 5.48 4.578 16.103 11.22 36.794 11.303 50.733.203 54.282-39.408 54.273-42.529-.133-49.069-63.268-45.976-66.125-61.756-.749-4.268 3.52-9.034 11.8-9.276 10.921-.318 16.23 5.852 17.397 12.658.552 3.661 2.363 5.798 6.601 4.799 1.736-.443 10.844-2.768 22.8-5.89z"/><path d="m244.658 255.609c4.959-.907 6.001 2.817 6.008 6.789.138 47.753.276 95.505.414 143.258.006 4.018-2.144 6.107-6.016 6.08-7.358-.049-14.717-.099-22.075-.148-3.738-.025-6.019-2.2-6.022-6.101-.093-45.938-.186-91.876-.279-137.814-.002-1.482.06-7.118 5.987-8.144 9.967-1.724 20.226-3.599 21.983-3.92z"/><path d="m318 242.089c4.614-.812 5.906 4.047 6.415 7.505 2.066 13.526 4.724 33.762 7.216 45.406.708 3.309 3.038 12.416 7.204 30.911.394 2.124 2.036 2.054 2.402-.087 4.057-19.373 6.305-28.219 6.994-31.6 2.491-12.223 5.067-34.675 6.966-49.039.428-3.357 1.596-9.438 6.372-10.122 5.922-.847 22.81-3.222 41.379-4.936 5.233-.482 6.013 5.518 6.028 10.557.326 110.415.747 110.397.968 165.717.018 4.394-2.334 6.33-5.99 6.315-7.482-.033-14.963-.066-22.445-.099-3.65-.017-6.017-2.17-6.033-6.355-.102-27.092-.535-63.418-.683-90.98-.008-1.536-1.813-1.695-2.202-.149-6 28.122-12.344 63.515-18.769 91.884-.891 4.069-3.531 5.43-6.605 5.412-4.414-.028-8.827-.055-13.241-.082-2.984-.019-5.699-1.332-6.634-5.462-6.27-26.813-13.375-60.724-19.968-89.156-.402-1.478-2.205-1.183-2.2.315.11 27.866.422 60.624.495 87.889.011 4.162-2.204 6.211-6.009 6.185-7.494-.053-14.987-.105-22.481-.157-3.794-.027-6.022-2.082-6.03-6.203-.165-48.869-.331-97.738-.496-146.606-.007-3.452.645-8.49 5.979-9.488 9.99-1.87 26.523-4.965 41.368-7.575z"/><path d="m433.738 228.033c-5.78.243-5.976 8.423-5.967 11.537.213 71.284.141 71.273.638 121.561.443 44.821 24.266 55.362 50.582 55.362 17.753 0 50.241-4.655 49.82-53.616-.293-34.052-.26-34.031-.641-120.787-.021-4.828-.798-10.857-6.045-11.258-1.79-.136-11.403-.869-22.394-1.506-5.738-.332-5.973 7.579-5.962 10.805.267 76.62.221 76.61.525 108.978.169 18.062-.638 29.223-15.521 29.128-14.788-.094-15.901-11.186-16.087-29.945-.262-26.402-.265-26.39-.517-109.172-.016-5.214-.813-11.354-6.033-11.439-.275-.004-7.83-.26-22.398.352z"/><path d="m575.312 235.885c5.318.594 6.036 6.432 6.063 10.701.222 41.311.444 82.622.666 123.932.026 4.003 2.241 6.45 6.037 6.61l44.571 1.962c3.431.153 6.002 1.73 6.016 6.065.017 7.28.034 14.559.051 21.839.004 3.842-1.936 5.921-5.983 5.913-26.281-.044-52.562-.087-78.842-.131-3.704-.004-5.993-2.229-6.007-6.301-.305-54.327-.609-108.654-.913-162.981-.016-3.027.211-10.528 5.946-9.965 10.917 1.073 20.605 2.156 22.395 2.356z"/><path d="m747.936 406.735c-.005 3.88-1.925 6.305-6.001 6.305-7.456-.002-14.912-.004-22.368-.006-4.015-.002-5.988-2.168-5.985-5.642.004-5.196.007-10.391.011-15.586.003-4.207-3.006-5.256-5.992-5.338-5.729-.168-11.457-.336-17.186-.504-4.054-.126-5.993 1.858-5.99 5.218.002 5.361.003 10.722.005 16.083 0 3.161-1.429 5.73-5.99 5.723-7.452-.012-14.904-.025-22.356-.037-3.732-.007-5.987-2.35-5.991-6.664-.066-26.936-.132-53.872-.199-80.808-.007-9.52.328-9.494.44-19.027.064-5.422-.513-19.597 4.991-36.008 7.317-21.817 22.662-25.485 42.999-22.273 31.504 4.976 44.377 22.077 48.486 49.754.276 1.859 1.276 35.988 1.273 38.257-.049 23.518-.098 47.035-.147 70.553zm-34.308-73.632c.007-7.423-1.127-7.252-1.902-10.799-2.079-9.514-3.664-20.934-12.907-21.536-9.643-.628-10.698 11.289-12.762 19.588-.374 1.504-1.685 1.65-1.686 9.472.002 6.683.005 13.367.008 20.05.003 3.283 2.093 5.553 6.011 5.884 8.953.756 15.838 1.289 17.216 1.396 3.327.115 6.006-.926 6.008-4.841.005-6.404.01-12.809.014-19.214z"/><path d="m795.133 330.904c0-.071-.919-11.368-2.484-16.92-.264-.937-1.403-5.188-3.858-5.336-3.832-.23-14.179-.857-27.96-1.755-2.184-.142-3.613-4.463-4.08-5.742-1.362-3.725-1.997-3.572-2.02-6.402-.066-8.888-.132-17.776-.198-26.664-.04-5.521 2.863-6.65 5.964-6.198 37.614 5.487 62.226 9.19 102.34 10.569 4.772.164 6.012 3.068 6.043 6.281.074 7.691.148 15.381.223 23.072.03 2.95-.694 2.756-2.171 5.508-.456.851-1.698 3.448-3.716 3.486-10.014.184-19.964.165-28.017.02-3.121-.056-4.132 6.307-4.603 9.689-.265 1.902-1.07 9.731-1.07 9.971-.01 28.54-.2 50.774-.235 76.959-.004 3.246-1.821 5.577-6.003 5.566-15.227-.041-17.838-.057-22.397-.045-3.893.011-5.998-2.248-5.993-5.599.04-28.356.221-46.078.235-76.46z"/><path d="m908.732 272.659c4.585-.112 6.026 2.342 6.07 5.665.863 64.602.478 64.588.41 129.184-.003 3.409-1.866 5.698-5.996 5.691-7.325-.015-14.65-.029-21.974-.043-3.878-.008-5.993-2.229-5.989-5.618.056-18.767.111-37.534.167-56.301.096-34.143-.15-34.126-.564-72.357-.045-4.183 2.26-5.992 5.92-5.982 10.884.032 20.2-.196 21.956-.239z"/><path d="m1033.51 312.165c0-4.149-.89-17.136-1.03-17.779-4.45-19.242-15.23-24.972-17.45-26.153-6.17-3.282-15.626-5.451-32.21-3.685-25.63 2.729-42.698 11.895-48.501 38.007-.45 2.027-.394 4.597-.589 13.536-.104 4.741-.376 4.719-.379 9.365-.031 15.356-.061 30.711-.092 46.067-.07 26.771 16.165 45.282 50.05 45.404 15.386.056 50.111-2.979 50.161-51.368.01-17.798.02-35.596.04-53.394zm-34.363 44.574c-.023 15.825-1.055 25.361-15.808 25.895-14.954.542-15.754-9.02-15.725-23.363.015-9.309.03-18.619.045-27.928.017-15.247 1.599-15.168 2.253-18.151.814-3.71 1.511-10.104 3.547-12.569.382-.463 3.516-2.352 9.838-2.944 5.066-.474 9.298.234 10.236 1.43 2.256 2.877 2.887 10.101 3.854 11.458 1.806 2.532 1.796 15.468 1.795 16.822-.012 9.783-.023 19.566-.035 29.35z"/><path d="m1086.6 251.81c3.55-.689 5.71.503 7.05 3.792 2.56 6.714 7.36 21.103 9.88 27.617.63 1.634 1.5 3.183 1.96 4.873.83 3.057 1.05 6.257 1.88 9.314.05.152 4.89 11.331 13.58 36.063.81 2.115 2.4 1.454 2.4-.809 0-29.847-.01-29.834.04-40.327.03-6.304.04-6.3-.05-40.59-.01-1.816.12-7.55 6-8.855 11.02-2.449 20.68-4.714 22.48-5.135 4.98-1.167 6.03 2.784 6.03 7.198-.04 54.138-.08 108.276-.11 162.413 0 4.533-2.5 6.318-6 6.308-9.8-.026-19.6-.053-29.4-.079-3.5-.008-5.65-1.608-6.99-4.904-8.27-21.817-17.74-50.405-27.16-76.122-.79-1.971-2.39-1.423-2.39.856-.01 24.571-.02 49.143-.03 73.715 0 4.322-2.27 6.367-5.99 6.359-7.46-.014-14.92-.029-22.38-.044-3.68-.007-5.99-2.213-5.99-6.293.01-93.006.26-92.991-.22-142.761-.02-1.812.27-6.186 5.95-7.168 8.77-1.515 19.25-3.432 29.46-5.421z"/></g></g></svg>