<svg clip-rule="evenodd" fill-rule="evenodd" height="1118" stroke-linejoin="round" stroke-miterlimit="1.5" width="1391" xmlns="http://www.w3.org/2000/svg"><path d="m125.78 1025.2s4.554 76.21 43.634 77.66c39.081 1.45 957.046 8.56 1023.846 7.07 33.2-.74 48.47-62.78 44.64-93.69" fill="#c4c4c4" stroke="#000" stroke-width="14.17"/><path d="m1380.88 94.489c3.62 163.085 4.59 649.346-.98 859.239-1.09 41.211-45.3 82.472-89.71 83.332-242.85 4.68-733.821-.16-1189.982-5-44.468-.48-89.817-49.472-90.684-90.688-4.472-212.361-1.287-563.454-2-846.883-.104-41.225 29.826-79.049 74.289-79.872 199.565-3.697 724.807-8.675 1208.077-7.3 44.47.127 90.07 45.957 90.99 87.172z" fill="#2e3033" stroke="#000" stroke-width="14.17"/><g stroke-linecap="round"><path d="m90.776 101.403c-2.503 69.557-.969 835.403 4.427 839.994 20.787 17.682 494.087 14.311 616.243 14.311 11.437 0 574.904-.523 580.494-10.03 2.99-5.076 4.63-847.617-8.66-847.759-268.58-2.756-515.858-2.291-793.758-2.586-97.072-.103-398.566 1.07-398.746 6.07z" fill-rule="nonzero" stroke="#000" stroke-miterlimit="10" stroke-width="13.97"/><path d="m581.33 1069.19 181.894 2" fill="none" stroke="#8d8d8d" stroke-width="25"/><path d="m996.912 344.974s71.518-52.513 68.448-111.257c-.42-8.024-2.18-16.546-5.63-25.551-18.08-47.187-66.285-31.446-76.063-13.479-7.987 14.674-15.478 34.581 8.925 57.814 13.978 13.309 76.448 16.149 71.838-27.872" fill="none" stroke="#00b206" stroke-width="20.83"/><path d="m1168.19 183.986s-65.73 39.436-68.22 98.208c-.34 8.027.61 16.677 3.19 25.968 13.55 48.683 63.02 37.562 74.46 20.599 9.33-13.855 18.67-32.966-3.43-58.399-12.66-14.569-74.58-23.293-74.15 20.967" fill="none" stroke="#00b206" stroke-width="20.83"/><path d="m120.377 312.034s18.518-.41 26.565-.155c8.047.256 8.5-16.65 16.208-19.342 14.389-5.025 18.948 19.238 18.948 19.238l14.469 19.405 17.173-139.08 8.471 144.537s9.11-23.044 12.888-23.96c15.853-3.841 8.355-30.339 24.824-35.584 23.271-7.41 21.865 35.355 35.932 35.368 14.066.014 34.312-.58 42.359-.325 8.048.255 8.501-16.65 16.209-19.342 14.389-5.025 18.947 19.238 18.947 19.238l14.47 19.405 8.444-134.803 17.2 140.26s9.823-21.568 12.888-23.96c11.823-9.225 13.715-37.419 30.949-36.112s15.739 35.883 29.806 35.896 35.19-2.221 48.892-6.806c24.62-8.238 57.429-41.503 65.82-69.218 10.174-33.607-23.205-47.338-42.796-19.657-14.839-27.661-48.215-15.933-42.587 15.412 5.048 28.119 29.819 56.307 58.186 71.598 13.2 7.116 73.826 8.885 75.543 6.059 7.36-12.116 8.364-20.101 20.536-18.776 7.592.826 11.513 11.348 18.403 16.547 7.028 5.302 5.568 22.328 9.465 22.067 7.15-.477 15.254-131.527 15.254-131.527l9.278 114.607s1.564 13.471 4.324 18.582c.334.619 3.538-22.108 12.376-24.882 9.993-3.137 15.517-31.356 32.465-32.698 14.604-1.156 16.925 20.71 26.668 29.749 6.241 5.79 54.172.576 54.172.576" fill="none" stroke="#00b206" stroke-width="6.25"/><path d="m177.73 775.83s.891 78.776 1.125 87.286" fill="none" stroke="#e056fd" stroke-width="16.67"/><path d="m311.609 775.83s.891 78.776 1.126 87.286" fill="none" stroke="#e056fd" stroke-width="16.67"/><path d="m393.051 766.897s-35.546 93.453-39.131 103.65" fill="none" stroke="#e056fd" stroke-width="16.67"/><path d="m215.749 787.651c6.879-14.193 31.791-30.636 48.552-3.578 11.62 18.758-47.803 79.043-47.803 79.043s58.743.346 56.414 0" fill="none" stroke="#e056fd" stroke-width="16.67"/><path d="m455.812 774.327s-36.657 21.991-38.042 54.765c-.189 4.476.337 9.299 1.779 14.48 7.553 27.148 35.143 20.946 41.517 11.487 5.206-7.726 10.412-18.383-1.912-32.565-7.059-8.125-41.589-12.989-41.348 11.692" fill="none" stroke="#e056fd" stroke-width="16.67"/><path d="m503.329 775.081s-21.09 60.787-11.577 60.819c9.512.033 54.919.175 54.919.175" fill="none" stroke="#e056fd" stroke-width="16.67"/><path d="m523.398 863.116s.106-48.779-.54-58.007" fill="none" stroke="#e056fd" stroke-width="16.67"/><path d="m629.884 766.897s-33.785 47.029.315 96.219" fill="none" stroke="#e056fd" stroke-width="16.67"/><path d="m830.336 863.116s33.785-47.029-.316-96.219" fill="none" stroke="#e056fd" stroke-width="16.67"/><path d="m688.989 770.381s-20.525 1.771-18.392 21.044c2.183 19.731 39.245 27.265 42.354 45.144 3.858 22.19-13.866 25.704-22.027 25.235-8.16-.469-21.189-7.202-19.444-23.352 1.876-17.363 40.158-28.273 40.153-48.486-.002-8.037-7.61-19.477-22.644-19.585z" fill="none" stroke="#e056fd" stroke-width="16.67"/><path d="m747.659 784.367s2.798-13.939 18.827-13.985c11.794-.035 31.795 9.897 20.612 27.583-4.599 7.272-18.956 17.042-18.956 17.042s25.677-5.361 23.36 26.694c-.77 10.642-9.959 20.853-24.167 20.103-8.724-.46-14.584-3.96-17.84-12.358" fill="none" stroke="#e056fd" stroke-width="16.67"/><path d="m1000 478.048s1.45 119.2.78 129.412" fill="none" stroke="#00b2ad" stroke-width="20.83"/><path d="m1064.87 478.048c-17.44 1.728-26.01 29.981-27.26 64.706-1.24 34.725 14.68 65.143 35.45 64.706 20.77-.438 31.76-42.691 31.04-64.706s-11.39-67.466-39.23-64.706z" fill="none" stroke="#00b2ad" stroke-width="20.83"/><path d="m1169.43 607.344c15.1-1.42 26.01-29.981 27.25-64.706 1.25-34.724-14.67-65.143-35.44-64.705-20.77.437-31.54 26.079-31.04 64.705.28 22.026 11.38 67.328 39.23 64.706z" fill="none" stroke="#00b2ad" stroke-width="20.83"/><path d="m154.475 576.956s15.225-47.231 26.575-51.82c15.288-6.182 65.501 68.461 70.115 57.342s17.749-53.541 33.398-52.396 46.979 54.123 56.612 48.102c9.633-6.02 19.103-48.856 27.125-51.746 20.048-7.222 52.862 58.664 64.336 54.715 11.473-3.948 12.937-61.782 31.953-53.45 19.017 8.332 48.96 61.146 58.858 54.685 9.899-6.46 13.454-56.394 29.637-54.382s49.368 57.811 59.414 52.99c10.046-4.822 11.922-51.686 29.579-51.121 17.656.565 44.953 50.883 57.014 52.475 12.061 1.591 21.296-52.64 36.187-51.569 14.892 1.07 47.266 53.087 60.2 53.77 12.935.682 17.739-59.686 35.794-56.989 18.054 2.697 42.179 57.833 55.012 58.66" fill="none" stroke="#00b2ad" stroke-width="12.5"/><path d="m989.957 786.613s.834 68.9.446 74.803" fill="none" stroke="#fff" stroke-width="12.5"/><path d="m1027.45 786.613c-10.08.998-15.04 17.329-15.75 37.401-.72 20.072 8.48 37.655 20.48 37.402 12.01-.253 18.37-24.676 17.95-37.402-.42-12.725-6.59-38.997-22.68-37.401z" fill="none" stroke="#fff" stroke-width="12.5"/><path d="m1095.29 799.116s2.26-11.285 15.24-11.323c9.55-.027 25.74 8.014 16.69 22.333-3.73 5.887-15.35 13.797-15.35 13.797s20.79-4.34 18.91 21.612c-.62 8.616-8.06 16.883-19.57 16.277-7.06-.373-11.8-3.207-14.44-10.006" fill="none" stroke="#fff" stroke-width="12.5"/><path d="m1161.66 789.485s-17.07 49.215-9.37 49.241c7.7.027 44.46.142 44.46.142" fill="none" stroke="#fff" stroke-width="12.5"/><path d="m1177.91 860.761s.09-39.493-.44-46.964" fill="none" stroke="#fff" stroke-width="12.5"/></g><circle cx="1071.34" cy="801.098" fill="#fff" r="5.3"/><circle cx="1071.34" cy="842.132" fill="#fff" r="5.3"/></svg>