<svg clip-rule="evenodd" fill-rule="evenodd" height="814" stroke-linecap="round" stroke-linejoin="round" stroke-miterlimit="10" width="1845" xmlns="http://www.w3.org/2000/svg"><path d="m2.721 513.776c-.986 24.146.076 130.143 1.164 153.548 2.649 56.954-2.375 139.381-.251 140.974 8.182 6.138 198.958 1.509 247.042 1.509 4.502 0 226.035-2.846 228.236-6.147 1.175-1.762-.811-43.503-.634-47.995 2.428-60.668 4.859-247.597-.372-247.646-105.718-.957-209.637 1.533-314.584 3.116-38.204.577-160.531.905-160.601 2.641z" fill="#f3f3f3" fill-rule="nonzero" stroke="#000" stroke-width="4.66"/><path d="m86.913 550.969c-11.435-11.23-21.816-13.236-30.717-11.011-29.715 7.429-32.239 43.165-8.808 58.786 29.717 19.811 59.43-28.23 39.525-47.775z" fill="none" stroke="#000" stroke-width="4.66"/><path d="m69.289 590.535c.459 0-8.819-10.511-9.816-11.841-4.244-5.658-8.845-9.919-11.991-16.209-1.587-3.176-1.344-10.568-1.344-10.568s8.759 1.459 11.335 4.036c6.804 6.803 14.325 16.706 20.572 24.101 2.3 2.722-9.502 10.481-8.756 10.481z" fill="#39abff" fill-rule="nonzero" stroke="#000" stroke-width="4.66"/><path d="m20.678 573.56s.208-44.286 43.296-44.549c48.637-.298 40.214 48.662 40.214 48.662" fill="none" stroke="#000" stroke-dasharray="2.78 0 0 11.12" stroke-width="3.27"/><path d="m86.913 644.668c-11.435-11.23-21.816-13.236-30.717-11.011-29.715 7.429-32.239 43.165-8.808 58.786 29.717 19.811 59.43-28.23 39.525-47.775z" fill="none" stroke="#000" stroke-width="4.66"/><path d="m42.59 658.864c-.278.365 13.704-.665 15.366-.655 7.073.043 13.249-1.044 20.161.256 3.489.657 9.229 5.322 9.229 5.322s-6.46 6.093-10.071 6.585c-9.533 1.304-21.968 1.302-31.636 1.804-3.558.185-2.598-13.906-3.049-13.312z" fill="#2ecc71" fill-rule="nonzero" stroke="#000" stroke-width="4.66"/><path d="m20.678 667.259s.208-44.286 43.296-44.549c48.637-.298 40.214 48.662 40.214 48.662" fill="none" stroke="#000" stroke-dasharray="2.78 0 0 11.12" stroke-width="3.27"/><path d="m86.913 736.894c-11.435-11.231-21.816-13.237-30.717-11.011-29.715 7.428-32.239 43.164-8.808 58.785 29.717 19.812 59.43-28.229 39.525-47.774z" fill="none" stroke="#000" stroke-width="4.66"/><path d="m46.389 770.438c.138.438 7.38-11.567 8.35-12.916 4.124-5.746 6.808-11.414 11.865-16.302 2.553-2.468 9.676-4.453 9.676-4.453s1.236 8.794-.447 12.024c-4.45 8.531-11.641 18.678-16.82 26.855-1.906 3.011-12.849-5.919-12.624-5.208z" fill="#ff3939" fill-rule="nonzero" stroke="#000" stroke-width="4.66"/><path d="m20.678 759.484s.208-44.286 43.296-44.548c48.637-.299 40.214 48.661 40.214 48.661" fill="none" stroke="#000" stroke-dasharray="2.78 0 0 11.12" stroke-width="3.27"/><path d="m130.629 531.913c.609 3.722-1.285 80.894 2.026 82.074 5.071 1.808 237.053-1.89 240.362-2.812 3.309-.923 2.013-81.416-.95-81.9-2.963-.483-241.685 1.133-241.438 2.638z" fill="#012600"/><path d="m130.628 592.103s6.175-.136 8.858-.051 2.835-5.553 5.405-6.45c4.798-1.676 6.318 6.415 6.318 6.415l4.825 6.47 5.726-46.377 2.825 48.197s3.038-7.684 4.298-7.989c5.286-1.281 2.785-10.117 8.277-11.866 7.76-2.471 7.291 11.789 11.982 11.794 4.691.004 11.442-.194 14.125-.109s2.835-5.552 5.405-6.45c4.798-1.675 6.318 6.416 6.318 6.416l4.825 6.47 2.816-44.951 5.735 46.771s3.276-7.192 4.298-7.99c3.942-3.076 4.573-12.477 10.32-12.041 5.747.435 5.248 11.965 9.939 11.969 4.691.005 11.734-.74 16.303-2.269 8.21-2.747 19.15-13.84 21.948-23.082 3.393-11.206-7.737-15.785-14.27-6.554-4.948-9.224-16.078-5.313-14.201 5.139 1.683 9.377 9.943 18.776 19.402 23.875 4.402 2.373 24.618 2.963 25.191 2.02 2.454-4.04 2.789-6.702 6.848-6.261 2.531.276 3.839 3.785 6.136 5.518 2.343 1.768 1.857 7.445 3.156 7.359 2.384-.16 5.087-43.859 5.087-43.859l3.094 38.216s.521 4.492 1.441 6.197c.112.206 1.18-7.372 4.127-8.298 3.333-1.046 5.175-10.455 10.826-10.903 4.87-.385 5.644 6.906 8.893 9.92 2.081 1.931 18.064.192 18.064.192" fill="none" stroke="#00b206" stroke-miterlimit="1.5" stroke-width="2.08"/><path d="m130.629 531.913c.609 3.722-1.285 80.894 2.026 82.074 5.071 1.808 237.053-1.89 240.362-2.812 3.309-.923 2.013-81.416-.95-81.9-2.963-.483-241.685 1.133-241.438 2.638z" fill="none" stroke="#000" stroke-miterlimit="1.5" stroke-width="4.72"/><path d="m434.143 529.397c-1.615-.527-19.589-.647-19.696.487-.41 4.37-.101 106.254-.101 131.933 0 2.404.191 120.714.412 121.889.117.628 19.767 2.257 19.77-.537.064-56.458-.102-111.956-.208-168.004-.039-20.402-.061-85.731-.177-85.768z" fill="#464646" fill-rule="nonzero" stroke="#000" stroke-width="4.66"/><path d="m434.325 601.01c22.062-28.783 28.734-37.424 30.528-39.461.751-.853 10.846 7.053 11.439 8.172.042.081-21.96 28.677-34.367 44.873-2.52 3.289-5.037 6.576-7.553 9.86-6.681 8.723-13.351 17.434-20.018 26.139-.005-3.211-.008-5.161-.008-5.449 0-4.215-.008-10.484-.02-18.038 5.826-7.603 12.785-16.685 19.999-26.096z" fill="#cbcbcb" stroke="#000" stroke-width="4.66"/><g stroke-miterlimit="1.5"><circle cx="470.118" cy="567.921" fill="#c0392b" r="26.627" stroke="#000" stroke-width="4.72"/><path d="m141.329 642.954c.106 45.09.213 90.18.319 135.269" fill="none" stroke="#464646" stroke-width="4.72"/><path d="m133.223 655.567s10.191-1.047 15.931.375c1.081.268-2.807 8.283.541 22.021.429 1.759-16.776 1.19-16.493.252 3.575-11.86.021-22.648.021-22.648z" fill="#cbcbcb" stroke="#000" stroke-width="2.08"/><path d="m137.434 661.901h8.191" fill="none" stroke="#fff" stroke-linecap="butt" stroke-width=".97"/><path d="m137.788 663.975h7.483" fill="none" stroke="#fff" stroke-linecap="butt" stroke-width=".97"/><path d="m137.788 665.898h7.483" fill="none" stroke="#fff" stroke-linecap="butt" stroke-width=".97"/><path d="m137.788 667.945h7.483" fill="none" stroke="#fff" stroke-linecap="butt" stroke-width=".97"/><path d="m137.788 669.87h7.483" fill="none" stroke="#fff" stroke-linecap="butt" stroke-width=".97"/><path d="m137.434 671.983h8.191" fill="none" stroke="#fff" stroke-linecap="butt" stroke-width=".97"/><path d="m174.609 642.954c.106 45.09.212 90.18.318 135.269" fill="none" stroke="#464646" stroke-width="4.72"/><path d="m166.503 708.581s10.19-1.047 15.93.376c1.081.268-2.807 8.282.541 22.021.429 1.758-16.776 1.19-16.493.252 3.575-11.86.022-22.649.022-22.649z" fill="#cbcbcb" stroke="#000" stroke-width="2.08"/><path d="m170.713 714.916h8.191" fill="none" stroke="#fff" stroke-linecap="butt" stroke-width=".97"/><path d="m171.067 716.989h7.483" fill="none" stroke="#fff" stroke-linecap="butt" stroke-width=".97"/><path d="m171.067 718.913h7.483" fill="none" stroke="#fff" stroke-linecap="butt" stroke-width=".97"/><path d="m171.067 720.96h7.483" fill="none" stroke="#fff" stroke-linecap="butt" stroke-width=".97"/><path d="m171.067 722.884h7.483" fill="none" stroke="#fff" stroke-linecap="butt" stroke-width=".97"/><path d="m170.713 724.998h8.191" fill="none" stroke="#fff" stroke-linecap="butt" stroke-width=".97"/><path d="m207.888 642.954c.106 45.09.212 90.18.318 135.269" fill="none" stroke="#464646" stroke-width="4.72"/><path d="m199.782 668.63s10.191-1.047 15.931.376c1.081.268-2.807 8.282.541 22.021.428 1.758-16.776 1.189-16.494.252 3.576-11.861.022-22.649.022-22.649z" fill="#cbcbcb" stroke="#000" stroke-width="2.08"/><path d="m203.993 674.965h8.191" fill="none" stroke="#fff" stroke-linecap="butt" stroke-width=".97"/><path d="m204.347 677.038h7.483" fill="none" stroke="#fff" stroke-linecap="butt" stroke-width=".97"/><path d="m204.347 678.961h7.483" fill="none" stroke="#fff" stroke-linecap="butt" stroke-width=".97"/><path d="m204.347 681.009h7.483" fill="none" stroke="#fff" stroke-linecap="butt" stroke-width=".97"/><path d="m204.347 682.933h7.483" fill="none" stroke="#fff" stroke-linecap="butt" stroke-width=".97"/><path d="m203.993 685.046h8.191" fill="none" stroke="#fff" stroke-linecap="butt" stroke-width=".97"/><path d="m241.491 642.954c.106 45.09.212 90.18.318 135.269" fill="none" stroke="#464646" stroke-width="4.72"/><path d="m233.385 749.341s10.191-1.047 15.93.375c1.082.268-2.806 8.283.542 22.021.428 1.758-16.776 1.19-16.494.252 3.576-11.86.022-22.648.022-22.648z" fill="#cbcbcb" stroke="#000" stroke-width="2.08"/><path d="m237.596 755.675h8.19" fill="none" stroke="#fff" stroke-linecap="butt" stroke-width=".97"/><path d="m237.95 757.748h7.483" fill="none" stroke="#fff" stroke-linecap="butt" stroke-width=".97"/><path d="m237.95 759.672h7.483" fill="none" stroke="#fff" stroke-linecap="butt" stroke-width=".97"/><path d="m237.95 761.719h7.483" fill="none" stroke="#fff" stroke-linecap="butt" stroke-width=".97"/><path d="m237.95 763.643h7.483" fill="none" stroke="#fff" stroke-linecap="butt" stroke-width=".97"/><path d="m237.596 765.757h8.19" fill="none" stroke="#fff" stroke-linecap="butt" stroke-width=".97"/><path d="m278.788 645.677s-.385 24.328.398 24.073c.782-.256 24.251.739 24.261.113.016-.997.208-23.688-.254-24.408-.611-.952-23.915-.189-24.405.222z" fill="#2980b9" stroke="#000" stroke-linecap="butt" stroke-width="4.72"/><path d="m278.788 679.945s-.385 24.328.398 24.073c.782-.256 24.251.739 24.261.113.016-.997.208-23.688-.254-24.408-.611-.952-23.915-.189-24.405.222z" fill="#e74c3c" stroke="#000" stroke-linecap="butt" stroke-width="4.72"/><path d="m278.788 714.213s-.385 24.328.398 24.073c.782-.256 24.251.739 24.261.113.016-.997.208-23.688-.254-24.408-.611-.952-23.915-.189-24.405.222z" fill="#27ae60" stroke="#000" stroke-linecap="butt" stroke-width="4.72"/><path d="m278.788 748.481s-.385 24.328.398 24.073c.782-.256 24.251.739 24.261.113.016-.997.208-23.688-.254-24.408-.611-.952-23.915-.189-24.405.222z" fill="#2980b9" stroke="#000" stroke-linecap="butt" stroke-width="4.72"/><path d="m315.704 645.677s-.385 24.328.397 24.073c.783-.256 24.251.739 24.262.113.016-.997.208-23.688-.255-24.408-.61-.952-23.915-.189-24.404.222z" fill="#2eabff" stroke="#000" stroke-linecap="butt" stroke-width="4.72"/><path d="m315.704 679.945s-.385 24.328.397 24.073c.783-.256 24.251.739 24.262.113.016-.997.208-23.688-.255-24.408-.61-.952-23.915-.189-24.404.222z" fill="#27ae60" stroke="#000" stroke-linecap="butt" stroke-width="4.72"/><path d="m315.704 714.213s-.385 24.328.397 24.073c.783-.256 24.251.739 24.262.113.016-.997.208-23.688-.255-24.408-.61-.952-23.915-.189-24.404.222z" fill="#00ec64" stroke="#000" stroke-linecap="butt" stroke-width="4.72"/><path d="m315.704 748.481s-.385 24.328.397 24.073c.783-.256 24.251.739 24.262.113.016-.997.208-23.688-.255-24.408-.61-.952-23.915-.189-24.404.222z" fill="#c0392b" stroke="#000" stroke-linecap="butt" stroke-width="4.72"/><path d="m352.905 645.677s-.385 24.328.397 24.073c.783-.256 24.252.739 24.262.113.016-.997.208-23.688-.254-24.408-.611-.952-23.916-.189-24.405.222z" fill="#c0392b" stroke="#000" stroke-linecap="butt" stroke-width="4.72"/><path d="m352.905 679.945s-.385 24.328.397 24.073c.783-.256 24.252.739 24.262.113.016-.997.208-23.688-.254-24.408-.611-.952-23.916-.189-24.405.222z" fill="#27ae60" stroke="#000" stroke-linecap="butt" stroke-width="4.72"/><path d="m352.905 714.213s-.385 24.328.397 24.073c.783-.256 24.252.739 24.262.113.016-.997.208-23.688-.254-24.408-.611-.952-23.916-.189-24.405.222z" fill="#c0392b" stroke="#000" stroke-linecap="butt" stroke-width="4.72"/><path d="m352.905 748.481s-.385 24.328.397 24.073c.783-.256 24.252.739 24.262.113.016-.997.208-23.688-.254-24.408-.611-.952-23.916-.189-24.405.222z" fill="#2980b9" stroke="#000" stroke-linecap="butt" stroke-width="4.72"/><path d="m1457.62 776.532s1.39 23.285 13.33 23.728c11.94.442 292.41 2.615 312.82 2.158 10.14-.227 14.8-19.182 13.63-28.625" fill="#c4c4c4" stroke="#000" stroke-linecap="butt" stroke-width="4.33"/><path d="m1841.09 492.17c1.1 49.827 1.4 198.395-.3 262.524-.33 12.591-13.84 25.198-27.41 25.459-74.2 1.431-224.21-.047-363.58-1.527-13.58-.145-27.44-15.114-27.7-27.707-1.37-64.883-.4-172.153-.61-258.749-.04-12.595 9.11-24.152 22.69-24.403 60.98-1.13 221.45-2.651 369.11-2.231 13.59.039 27.52 14.042 27.8 26.634z" fill="#2e3033" stroke="#000" stroke-linecap="butt" stroke-width="4.33"/></g><path d="m1446.92 494.283c-.76 21.251-.29 255.241 1.36 256.643 6.35 5.403 150.95 4.373 188.28 4.373 3.49 0 175.65-.16 177.36-3.065.91-1.55 1.41-258.973-2.65-259.016-82.06-.842-157.61-.7-242.52-.79-29.66-.032-121.77.327-121.83 1.855z" fill-rule="nonzero" stroke="#000" stroke-width="4.27"/><path d="m1596.8 789.97 55.58.611" fill="none" stroke="#8d8d8d" stroke-miterlimit="1.5" stroke-width="7.64"/><path d="m1723.78 568.701s21.85-16.044 20.91-33.993c-.13-2.451-.67-5.055-1.72-7.806-5.53-14.417-20.25-9.608-23.24-4.118-2.44 4.483-4.73 10.565 2.72 17.664 4.28 4.066 23.36 4.934 21.95-8.516" fill="none" stroke="#00b206" stroke-miterlimit="1.5" stroke-width="6.37"/><path d="m1776.11 519.514s-20.09 12.049-20.85 30.006c-.1 2.452.19 5.095.98 7.934 4.14 14.874 19.25 11.476 22.75 6.293 2.85-4.233 5.7-10.072-1.05-17.842-3.87-4.452-22.79-7.117-22.66 6.406" fill="none" stroke="#00b206" stroke-miterlimit="1.5" stroke-width="6.37"/><path d="m1455.97 558.637s5.65-.125 8.11-.047c2.46.077 2.6-5.088 4.96-5.91 4.39-1.536 5.78 5.878 5.78 5.878l4.43 5.928 5.24-42.493 2.59 44.161s2.78-7.041 3.94-7.321c4.84-1.173 2.55-9.269 7.58-10.872 7.11-2.264 6.68 10.802 10.98 10.806s10.48-.177 12.94-.099 2.6-5.087 4.95-5.91c4.4-1.535 5.79 5.878 5.79 5.878l4.42 5.929 2.58-41.187 5.26 42.854s3-6.589 3.94-7.32c3.61-2.819 4.19-11.433 9.45-11.034 5.27.4 4.81 10.964 9.11 10.968s10.75-.679 14.94-2.08c7.52-2.517 17.54-12.68 20.11-21.148 3.11-10.268-7.09-14.463-13.08-6.006-4.53-8.451-14.73-4.868-13.01 4.709 1.54 8.591 9.11 17.203 17.78 21.876 4.03 2.174 22.55 2.714 23.08 1.851 2.25-3.702 2.55-6.142 6.27-5.737 2.32.252 3.52 3.467 5.63 5.056 2.14 1.62 1.7 6.821 2.89 6.742 2.18-.146 4.66-40.186 4.66-40.186l2.83 35.016s.48 4.116 1.32 5.677c.11.19 1.09-6.754 3.79-7.602 3.05-.958 4.74-9.58 9.91-9.99 4.47-.353 5.18 6.328 8.15 9.089 1.91 1.769 16.55.176 16.55.176" fill="none" stroke="#00b206" stroke-miterlimit="1.5" stroke-width="1.91"/><path d="m1473.49 700.341s.27 24.068.34 26.668" fill="none" stroke="#e056fd" stroke-miterlimit="1.5" stroke-width="5.09"/><path d="m1514.39 700.341s.28 24.068.35 26.668" fill="none" stroke="#e056fd" stroke-miterlimit="1.5" stroke-width="5.09"/><path d="m1539.28 697.611s-10.86 28.553-11.96 31.669" fill="none" stroke="#e056fd" stroke-miterlimit="1.5" stroke-width="5.09"/><path d="m1485.11 703.952c2.1-4.336 9.71-9.36 14.83-1.093 3.55 5.731-14.61 24.15-14.61 24.15s17.95.106 17.24 0" fill="none" stroke="#e056fd" stroke-miterlimit="1.5" stroke-width="5.09"/><path d="m1558.45 699.882s-11.2 6.718-11.62 16.732c-.06 1.368.1 2.841.54 4.424 2.31 8.294 10.74 6.4 12.69 3.51 1.59-2.361 3.18-5.617-.59-9.95-2.15-2.482-12.7-3.969-12.63 3.572" fill="none" stroke="#e056fd" stroke-miterlimit="1.5" stroke-width="5.09"/><path d="m1572.97 700.112s-6.44 18.572-3.54 18.582c2.91.01 16.78.054 16.78.054" fill="none" stroke="#e056fd" stroke-miterlimit="1.5" stroke-width="5.09"/><path d="m1579.1 727.009s.03-14.903-.16-17.723" fill="none" stroke="#e056fd" stroke-miterlimit="1.5" stroke-width="5.09"/><path d="m1611.64 697.611s-10.33 14.369.09 29.398" fill="none" stroke="#e056fd" stroke-miterlimit="1.5" stroke-width="5.09"/><path d="m1672.88 727.009s10.32-14.368-.1-29.398" fill="none" stroke="#e056fd" stroke-miterlimit="1.5" stroke-width="5.09"/><path d="m1629.69 698.676s-6.27.541-5.61 6.43c.66 6.028 11.99 8.33 12.94 13.793 1.17 6.779-4.24 7.853-6.73 7.709-2.5-.143-6.48-2.2-5.94-7.134.57-5.305 12.27-8.638 12.26-14.814 0-2.456-2.32-5.951-6.92-5.984z" fill="none" stroke="#e056fd" stroke-miterlimit="1.5" stroke-width="5.09"/><path d="m1647.62 702.949s.86-4.259 5.75-4.273c3.61-.01 9.72 3.024 6.3 8.428-1.4 2.221-5.79 5.206-5.79 5.206s7.84-1.637 7.14 8.156c-.24 3.252-3.05 6.371-7.39 6.142-2.66-.14-4.45-1.21-5.45-3.775" fill="none" stroke="#e056fd" stroke-miterlimit="1.5" stroke-width="5.09"/><path d="m1724.72 609.359s.44 36.419.23 39.539" fill="none" stroke="#00b2ad" stroke-miterlimit="1.5" stroke-width="6.37"/><path d="m1744.54 609.359c-5.33.528-7.95 9.16-8.33 19.77-.38 10.609 4.48 19.903 10.83 19.769 6.35-.133 9.71-13.043 9.48-19.769-.22-6.727-3.48-20.613-11.98-19.77z" fill="none" stroke="#00b2ad" stroke-miterlimit="1.5" stroke-width="6.37"/><path d="m1776.49 648.863c4.61-.434 7.94-9.16 8.32-19.769.38-10.61-4.48-19.904-10.83-19.77-6.34.134-9.63 7.968-9.48 19.77.09 6.729 3.47 20.57 11.99 19.769z" fill="none" stroke="#00b2ad" stroke-miterlimit="1.5" stroke-width="6.37"/><path d="m1466.38 639.579s4.66-14.431 8.12-15.833c4.67-1.889 20.02 20.917 21.43 17.52s5.42-16.359 10.2-16.009 14.35 16.536 17.3 14.697c2.94-1.84 5.83-14.927 8.28-15.81 6.13-2.207 16.16 17.923 19.66 16.717 3.51-1.206 3.95-18.876 9.76-16.331 5.81 2.546 14.96 18.682 17.99 16.708 3.02-1.974 4.11-17.23 9.05-16.615 4.95.614 15.09 17.663 18.15 16.19 3.07-1.473 3.65-15.792 9.04-15.619 5.4.172 13.74 15.546 17.42 16.033 3.69.486 6.51-16.083 11.06-15.756s14.44 16.219 18.39 16.428 5.42-18.236 10.94-17.412c5.51.824 12.88 17.67 16.8 17.923" fill="none" stroke="#00b2ad" stroke-miterlimit="1.5" stroke-width="3.82"/><path d="m1721.65 703.635s.25 21.051.14 22.855" fill="none" stroke="#fff" stroke-miterlimit="1.5" stroke-width="3.82"/><path d="m1733.1 703.635c-3.07.305-4.59 5.295-4.81 11.428-.22 6.132 2.59 11.504 6.26 11.427s5.61-7.539 5.48-11.427c-.12-3.889-2.01-11.915-6.93-11.428z" fill="none" stroke="#fff" stroke-miterlimit="1.5" stroke-width="3.82"/><path d="m1753.83 707.455s.69-3.448 4.66-3.459c2.91-.009 7.86 2.448 5.1 6.823-1.14 1.799-4.69 4.216-4.69 4.216s6.35-1.326 5.78 6.603c-.19 2.632-2.47 5.158-5.98 4.973-2.16-.114-3.61-.98-4.41-3.057" fill="none" stroke="#fff" stroke-miterlimit="1.5" stroke-width="3.82"/><path d="m1774.11 704.513s-5.22 15.036-2.86 15.045c2.35.008 13.58.043 13.58.043" fill="none" stroke="#fff" stroke-miterlimit="1.5" stroke-width="3.82"/><path d="m1779.08 726.29s.02-12.067-.14-14.349" fill="none" stroke="#fff" stroke-miterlimit="1.5" stroke-width="3.82"/><circle cx="1746.52" cy="708.061" fill="#fff" r="1.619"/><circle cx="1746.52" cy="720.598" fill="#fff" r="1.619"/><path d="m439.683 6.642s-2.527 72.744 0 77.476c4.935 9.244 981.427 2.804 983.587.887 2.9-2.578 2.04-78.137 0-79.662-5.54-4.14-980.53-1.769-983.587 1.299z" fill="#d5d5d5" stroke="#000" stroke-miterlimit="1.5" stroke-width="6.25"/><path d="m1185.45 14.634h224.32v57.821h-224.32z" fill="#63ab1f" stroke="#000" stroke-miterlimit="1.5" stroke-width="6.25"/><path d="m1225.38 42.161h-2.77c-.24-1.855-1.11-2.783-2.62-2.783-.99 0-1.73.192-2.22.578-.49.385-.74.963-.74 1.733 0 .792 1.35 1.91 4.05 3.353 2.19 1.183 3.46 2.162 3.8 2.938.33.775.5 1.603.5 2.482 0 1.541-.55 2.856-1.64 3.947-1.09 1.09-2.39 1.635-3.91 1.635h-2.78c-3.7 0-5.55-1.85-5.55-5.55h2.78c.22 1.856 1.08 2.784 2.6 2.784.99 0 1.73-.196 2.23-.586.49-.391.74-.972.74-1.742 0-.781-1.35-1.899-4.04-3.353-2.2-1.172-3.47-2.148-3.81-2.93-.34-.781-.5-1.605-.5-2.473 0-1.552.54-2.873 1.64-3.964 1.1-1.09 2.4-1.635 3.91-1.635h2.78c3.47 0 5.32 1.855 5.55 5.566z" fill-opacity=".48" fill-rule="nonzero"/><path d="m1230.95 33.828v-2.784h5.55v2.784zm0 22.216v-19.449h5.55v19.449z" fill-opacity=".48" fill-rule="nonzero"/><path d="m1258.73 56.044h-5.55v-13.883c0-.76-.28-1.413-.82-1.961-.55-.548-1.21-.822-1.96-.822-.76 0-1.42.274-1.97.822-.54.548-.82 1.201-.82 1.961v13.883h-5.55v-19.449h5.55v2.783c.11-.933.4-1.631.87-2.092.46-.461 1.1-.691 1.92-.691h2.78c1.89 0 3.28.656 4.17 1.969.43-.662.99-1.156 1.69-1.481.69-.326 1.52-.488 2.47-.488h2.77c1.52 0 2.83.545 3.92 1.635 1.1 1.091 1.65 2.401 1.65 3.931v13.883h-5.57v-13.883c0-.749-.27-1.4-.82-1.953-.55-.554-1.2-.83-1.95-.83-.76 0-1.41.274-1.96.822s-.82 1.201-.82 1.961z" fill-opacity=".48" fill-rule="nonzero"/><path d="m1275.4 44.928h13.883v2.783h-13.883z" fill-opacity=".48" fill-rule="nonzero"/><path d="m1294.85 56.044v-25h5.55v8.334c.1-.933.39-1.631.86-2.092s1.11-.691 1.92-.691h2.78c1.52 0 2.83.548 3.92 1.643 1.09 1.096 1.63 2.404 1.63 3.923v8.333c0 1.509-.54 2.811-1.63 3.907-1.09 1.095-2.4 1.643-3.92 1.643zm5.55-2.783h2.78c.77 0 1.43-.274 1.97-.822s.81-1.196.81-1.945v-8.333c0-.76-.27-1.413-.82-1.961s-1.2-.822-1.96-.822-1.41.274-1.96.822-.82 1.201-.82 1.961z" fill-opacity=".48" fill-rule="nonzero"/><path d="m1322.61 56.044h-5.55v-19.449h5.55v5.566c.22-1.855.79-3.247 1.72-4.175s2.21-1.391 3.85-1.391h2.77v5.566h-5.55c-.76 0-1.42.271-1.97.814-.54.542-.82 1.193-.82 1.953z" fill-opacity=".48" fill-rule="nonzero"/><path d="m1344.85 44.928v-2.767c0-.76-.28-1.413-.83-1.961-.54-.548-1.2-.822-1.96-.822h-2.78c-1.64 0-2.56.928-2.77 2.783h-2.78c.42-3.711 2.27-5.566 5.55-5.566h5.57c1.51 0 2.82.548 3.91 1.643 1.09 1.096 1.64 2.404 1.64 3.923v13.883h-5.55v-2.783c-.22 1.856-1.15 2.783-2.79 2.783h-2.78c-1.52 0-2.83-.545-3.91-1.635-1.1-1.091-1.64-2.396-1.64-3.915v-.016c0-1.519.55-2.824 1.64-3.914 1.1-1.091 2.4-1.636 3.91-1.636zm0 2.783h-2.79c-.76 0-1.41.271-1.96.814-.55.542-.82 1.193-.82 1.953v.016c0 .749.27 1.397.81 1.945s1.2.822 1.97.822 1.43-.274 1.97-.822.82-1.196.82-1.945z" fill-opacity=".48" fill-rule="nonzero"/><path d="m1355.95 33.828v-2.784h5.55v2.784zm0 22.216v-19.449h5.55v19.449z" fill-opacity=".48" fill-rule="nonzero"/><path d="m1367.06 56.044v-19.449h5.55v2.783c.11-.933.4-1.631.87-2.092.46-.461 1.1-.691 1.92-.691h2.78c1.52 0 2.82.548 3.91 1.643 1.09 1.096 1.64 2.404 1.64 3.923v13.883h-5.55v-13.883c0-.76-.28-1.413-.82-1.961-.55-.548-1.21-.822-1.96-.822-.76 0-1.42.274-1.97.822-.54.548-.82 1.201-.82 1.961v13.883z" fill-opacity=".48" fill-rule="nonzero"/><path d="m459.552 24.459s146.694-.335 158.379.073" fill="#232323" stroke="#5a5a5a" stroke-miterlimit="1.5" stroke-width="4.17"/><path d="m459.552 38.414s59.971.578 158.379.073" fill="#232323" stroke="#5a5a5a" stroke-miterlimit="1.5" stroke-width="4.17"/><path d="m459.552 52.369s131.407-1.174 158.379.073" fill="#232323" stroke="#5a5a5a" stroke-miterlimit="1.5" stroke-width="4.17"/><path d="m459.552 66.324s146.694-.335 158.379.073" fill="#232323" stroke="#5a5a5a" stroke-miterlimit="1.5" stroke-width="4.17"/><circle cx="655.27" cy="32.062" fill="#c0392b" r="9.312" stroke="#000" stroke-miterlimit="1.5" stroke-width="4.17"/><circle cx="688.293" cy="60.038" fill="#27ae60" r="9.312" stroke="#000" stroke-miterlimit="1.5" stroke-width="4.17"/><circle cx="688.293" cy="32.062" fill="#2eabff" r="9.312" stroke="#000" stroke-miterlimit="1.5" stroke-width="4.17"/><circle cx="655.27" cy="60.038" fill="#00ec64" r="9.312" stroke="#000" stroke-miterlimit="1.5" stroke-width="4.17"/><circle cx="721.316" cy="32.062" fill="#e74c3c" r="9.312" stroke="#000" stroke-miterlimit="1.5" stroke-width="4.17"/><circle cx="721.316" cy="60.038" fill="#c0392b" r="9.312" stroke="#000" stroke-miterlimit="1.5" stroke-width="4.17"/><circle cx="754.338" cy="32.062" fill="#2980b9" r="9.312" stroke="#000" stroke-miterlimit="1.5" stroke-width="4.17"/><circle cx="754.338" cy="60.038" fill="#e74c3c" r="9.312" stroke="#000" stroke-miterlimit="1.5" stroke-width="4.17"/><circle cx="787.361" cy="32.062" fill="#27ae60" r="9.312" stroke="#000" stroke-miterlimit="1.5" stroke-width="4.17"/><circle cx="787.361" cy="60.038" fill="#2eabff" r="9.312" stroke="#000" stroke-miterlimit="1.5" stroke-width="4.17"/><path d="m327.648 464.708c-3.45 0-6.25-2.801-6.25-6.25 0-3.45 2.8-6.25 6.25 6.25zm0 0s.903-14.205-3.493-11.434c2.43-1.64 5.762-1.385 7.912.764 2.439 2.44 2.439 6.4 0 8.839-2.255 2.255-4.419 1.831-4.419 1.831zm-3.493-11.434c-.327.22-.638.475-.927.764.333-.332.641-.584.927-.764zm316.714-315.967c.214-.787.686-1.595 1.499-2.408-.701.701-1.201 1.528-1.499 2.408zm-.263 1.091c.055-.369.142-.735.263-1.091-.025.092-.047.184-.065.276.778-2.227 3.163-2.232 5.983 7.984-.001 0-.001 0-.002 0 .001.001.002.001.002.001-.834 0-1.63-.163-2.358-.461-.75-.304-1.453-.761-2.061-1.369-.609-.608-1.065-1.311-1.37-2.061-.297-.728-.461-1.524-.461-2.359 0-.316.024-.626.069-.92zm6.181 7.169c1.6 0 3.2-.609 4.419-1.829-2.254 2.255-4.419 1.83-4.419 1.83s0 0 0-.001zm-288.125 290.715c-2.439 2.44-6.4 2.44-8.839 0-2.439-2.439-2.439-6.399 0-8.838 2.439-2.44 6.4-2.44 8.839-.001 2.439 2.44 2.439 6.4 0 8.839zm26.595-26.595c-2.439 2.44-6.4 2.44-8.839.001-2.439-2.44-2.439-6.4 0-8.839 2.439-2.44 6.4-2.44 8.839-.001 2.439 2.44 2.439 6.4 0 8.839zm26.595-26.595c-2.439 2.439-6.4 2.439-8.839 0s-2.439-6.399 0-8.839c2.439-2.439 6.4-2.439 8.839 0s2.439 6.4 0 8.839zm26.595-26.595c-2.439 2.439-6.4 2.439-8.839 0s-2.439-6.4 0-8.839c2.44-2.439 6.4-2.439 8.839 0 2.44 2.439 2.439 6.4 0 8.839zm26.595-26.595c-2.439 2.44-6.4 2.44-8.839.001-2.439-2.44-2.439-6.4 0-8.839 2.439-2.44 6.4-2.44 8.839-.001 2.439 2.44 2.439 6.4 0 8.839zm26.594-26.594c-2.439 2.439-6.399 2.439-8.839 0-2.439-2.439-2.439-6.4.001-8.839 2.439-2.439 6.399-2.439 8.839 0 2.439 2.439 2.439 6.4-.001 8.839zm26.596-26.595c-2.439 2.439-6.4 2.439-8.839 0-2.439-2.44-2.439-6.4 0-8.839s6.4-2.44 8.839 0c2.439 2.439 2.439 6.399 0 8.839zm26.594-26.595c-2.439 2.439-6.399 2.439-8.838 0-2.44-2.439-2.44-6.4 0-8.839 2.439-2.439 6.399-2.439 8.839 0 2.439 2.439 2.439 6.4-.001 8.839zm26.596-26.595c-2.44 2.439-6.4 2.439-8.839 0s-2.439-6.4 0-8.839 6.4-2.439 8.839 0 2.439 6.4 0 8.839zm26.595-26.595c-2.439 2.439-6.4 2.439-8.839 0-2.439-2.44-2.439-6.4 0-8.839s6.4-2.439 8.839 0 2.439 6.399 0 8.839zm26.595-26.595c-2.439 2.439-6.4 2.439-8.839 0s-2.439-6.4 0-8.839 6.4-2.439 8.839 0 2.439 6.4 0 8.839z"/><path d="m1208.16 145.567c-.01-.157-1-16.085 4.42-10.668 2.44 2.439 2.44 6.4 0 8.839-1.22 1.219-2.82 1.829-4.42 1.829zm0 0v.001s-2.17.425-4.42-1.83c.6.603 1.3 1.057 2.04 1.362-2.27-.936-3.87-3.173-3.87-5.782 0-3.449 2.8-6.249 6.25 6.249zm283.89 282.905c.19-1.282.77-2.516 1.76-3.502 2.44-2.439 6.4-2.439 8.84 0 5.44 5.444-4.42 10.669-4.42 10.669s-2.17.425-4.42-1.83c-.6-.603-1.06-1.3-1.36-2.043-.3-.733-.47-1.535-.47-2.377 0-.315.02-.624.07-.917zm-259.3-255.727c-2.44-2.439-2.44-6.4 0-8.839 2.43-2.439 6.39-2.439 8.84 0 2.43 2.439 2.43 6.4 0 8.839-2.45 2.439-6.41 2.439-8.84 0zm29 29.007c-2.44-2.439-2.44-6.4 0-8.839s6.4-2.439 8.84 0c2.44 2.44 2.44 6.4 0 8.839s-6.4 2.439-8.84 0zm29.01 29.007c-2.44-2.439-2.44-6.4 0-8.839s6.4-2.439 8.84 0c2.44 2.44 2.44 6.4 0 8.839s-6.4 2.439-8.84 0zm29.01 29.007c-2.44-2.439-2.44-6.4 0-8.839s6.4-2.439 8.84 0c2.44 2.44 2.44 6.4 0 8.839-2.44 2.44-6.4 2.439-8.84 0zm29 29.007c-2.43-2.439-2.43-6.4 0-8.839 2.44-2.439 6.4-2.439 8.84 0s2.44 6.4 0 8.839-6.4 2.439-8.84 0zm29.01 29.008c-2.44-2.44-2.44-6.4 0-8.839s6.4-2.439 8.84 0 2.44 6.4 0 8.839-6.4 2.439-8.84 0zm29.01 29.007c-2.44-2.439-2.44-6.4 0-8.839s6.4-2.439 8.84 0 2.44 6.4 0 8.839-6.4 2.439-8.84 0zm29.01 29.007c-2.44-2.439-2.44-6.4 0-8.839 2.43-2.439 6.39-2.439 8.83 0s2.44 6.4 0 8.839-6.39 2.439-8.83 0zm29 29.007c-2.44-2.439-2.44-6.4 0-8.839s6.4-2.439 8.84 0 2.44 6.4 0 8.839-6.4 2.439-8.84 0z"/></svg>