<svg clip-rule="evenodd" fill-rule="evenodd" height="925" stroke-linecap="round" stroke-linejoin="round" stroke-miterlimit="10" width="1497" xmlns="http://www.w3.org/2000/svg"><path d="m8.159 24.891c-2.955 72.411.227 390.284 3.492 460.472 7.944 170.8-7.123 417.988-.753 422.767 24.537 18.408 596.655 4.526 740.852 4.526 13.5 0 677.85-8.537 684.45-18.435 3.53-5.284-2.43-130.461-1.9-143.933 7.29-181.936 14.58-742.515-1.11-742.663-317.04-2.869-628.68 4.596-943.406 9.346-114.569 1.729-481.413 2.714-481.625 7.92z" fill="#f3f3f3" fill-rule="nonzero" stroke="#000" stroke-width="13.97"/><path d="m260.644 136.429c-34.294-33.679-65.426-39.695-92.117-33.021-89.113 22.276-96.683 129.446-26.416 176.29 89.118 59.414 178.224-84.656 118.533-143.269z" fill="none" stroke="#000" stroke-width="13.97"/><path d="m207.789 255.081c1.377 0-26.446-31.522-29.434-35.509-12.728-16.968-26.528-29.746-35.96-48.61-4.762-9.524-4.033-31.692-4.033-31.692s26.269 4.375 33.993 12.103c20.406 20.401 42.96 50.102 61.693 72.278 6.897 8.162-28.496 31.43-26.259 31.43z" fill="#39abff" fill-rule="nonzero" stroke="#000" stroke-width="13.97"/><path d="m62.011 204.174s.625-132.808 129.841-133.595c145.857-.896 120.597 145.931 120.597 145.931" fill="none" stroke="#000" stroke-dasharray="8.33 0 0 33.33" stroke-width="9.81"/><path d="m260.644 417.422c-34.294-33.679-65.426-39.695-92.117-33.021-89.112 22.277-96.683 129.447-26.416 176.291 89.118 59.413 178.224-84.656 118.533-143.27z" fill="none" stroke="#000" stroke-width="13.97"/><path d="m127.723 459.992c-.833 1.096 41.098-1.994 46.08-1.962 21.211.129 39.733-3.131 60.461.768 10.464 1.968 27.676 15.958 27.676 15.958s-19.373 18.272-30.199 19.749c-28.589 3.909-65.882 3.904-94.874 5.408-10.671.556-7.791-41.703-9.144-39.921z" fill="#2ecc71" fill-rule="nonzero" stroke="#000" stroke-width="13.97"/><path d="m62.011 485.168s.625-132.809 129.842-133.596c145.856-.896 120.596 145.932 120.596 145.932" fill="none" stroke="#000" stroke-dasharray="8.33 0 0 33.33" stroke-width="9.81"/><path d="m260.643 693.996c-34.291-33.679-65.425-39.695-92.117-33.021-89.111 22.276-96.683 129.446-26.414 176.29 89.118 59.414 178.224-84.656 118.531-143.269z" fill="none" stroke="#000" stroke-width="13.97"/><path d="m139.117 794.591c.412 1.313 22.13-34.687 25.038-38.732 12.37-17.231 20.419-34.229 35.583-48.89 7.658-7.399 29.017-13.352 29.017-13.352s3.708 26.371-1.341 36.058c-13.344 25.584-34.908 56.013-50.44 80.535-5.715 9.028-38.532-17.752-37.857-15.619z" fill="#ff3939" fill-rule="nonzero" stroke="#000" stroke-width="13.97"/><path d="m62.011 761.741s.625-132.808 129.841-133.595c145.856-.896 120.597 145.931 120.597 145.931" fill="none" stroke="#000" stroke-dasharray="8.33 0 0 33.33" stroke-width="9.81"/><path d="m391.742 79.28c1.827 11.164-3.855 242.592 6.076 246.132 15.208 5.422 710.892-5.667 720.822-8.433 9.92-2.767 6.04-244.159-2.85-245.609s-724.787 3.399-724.048 7.91z" fill="#012600"/><path d="m391.739 259.785s18.517-.41 26.565-.155c8.047.255 8.5-16.651 16.208-19.342 14.389-5.026 18.948 19.238 18.948 19.238l14.469 19.404 17.173-139.079 8.471 144.537s9.109-23.044 12.888-23.96c15.853-3.842 8.354-30.34 24.823-35.584 23.272-7.41 21.866 35.354 35.932 35.368 14.067.013 34.313-.58 42.36-.325s8.501-16.651 16.208-19.342c14.389-5.026 18.948 19.238 18.948 19.238l14.47 19.404 8.444-134.803 17.2 140.261s9.822-21.568 12.888-23.96c11.823-9.226 13.715-37.419 30.949-36.112s15.739 35.882 29.806 35.896c14.067.013 35.19-2.221 48.892-6.806 24.62-8.238 57.429-41.503 65.82-69.219 10.174-33.606-23.205-47.338-42.796-19.656-14.839-27.661-48.215-15.933-42.588 15.412 5.049 28.119 29.82 56.306 58.187 71.598 13.2 7.116 73.826 8.884 75.542 6.058 7.361-12.116 8.365-20.1 20.537-18.776 7.592.827 11.513 11.349 18.403 16.548 7.027 5.302 5.568 22.327 9.465 22.067 7.149-.477 15.254-131.528 15.254-131.528l9.278 114.608s1.564 13.471 4.324 18.581c.334.62 3.533-22.108 12.373-24.882 10-3.137 15.52-31.355 32.47-32.697 14.6-1.156 16.92 20.709 26.67 29.748 6.24 5.791 54.17.577 54.17.577" fill="none" stroke="#00b206" stroke-miterlimit="1.5" stroke-width="6.25"/><path d="m391.742 79.28c1.827 11.164-3.855 242.592 6.076 246.132 15.208 5.422 710.892-5.667 720.822-8.433 9.92-2.767 6.04-244.159-2.85-245.609s-724.787 3.399-724.048 7.91z" fill="none" stroke="#000" stroke-miterlimit="1.5" stroke-width="14.17"/><path d="m1301.95 71.734c-4.84-1.578-58.75-1.939-59.07 1.463-1.23 13.104-.3 318.644-.3 395.652 0 7.21.57 362.008 1.23 365.533.36 1.882 59.28 6.767 59.29-1.611.2-169.313-.3-335.745-.62-503.825-.12-61.185-.18-257.099-.53-257.212z" fill="#464646" fill-rule="nonzero" stroke="#000" stroke-width="13.97"/><path d="m1302.49 286.494c66.17-86.316 86.17-112.229 91.55-118.338 2.26-2.558 32.53 21.152 34.31 24.508.13.241-65.86 85.998-103.06 134.569-7.56 9.863-15.11 19.719-22.65 29.57-20.04 26.159-40.04 52.28-60.03 78.387-.02-9.631-.03-15.478-.03-16.341 0-12.642-.02-31.442-.06-54.095 17.47-22.8 38.34-50.037 59.97-78.26z" fill="#cbcbcb" stroke="#000" stroke-width="13.97"/><g stroke-miterlimit="1.5"><circle cx="1409.83" cy="187.265" fill="#c0392b" r="79.85" stroke="#000" stroke-width="14.17"/><path d="m423.832 412.282c.318 135.219.636 270.438.954 405.657" fill="none" stroke="#464646" stroke-width="14.17"/><path d="m399.523 450.105s30.56-3.14 47.773 1.127c3.242.803-8.417 24.837 1.623 66.037 1.286 5.274-50.309 3.568-49.462.757 10.723-35.569.066-67.921.066-67.921z" fill="#cbcbcb" stroke="#000" stroke-width="6.25"/><path d="m412.15 469.101h24.563" fill="none" stroke="#fff" stroke-linecap="butt" stroke-width="2.92"/><path d="m413.211 475.319h22.441" fill="none" stroke="#fff" stroke-linecap="butt" stroke-width="2.92"/><path d="m413.211 481.087h22.441" fill="none" stroke="#fff" stroke-linecap="butt" stroke-width="2.92"/><path d="m413.211 487.227h22.441" fill="none" stroke="#fff" stroke-linecap="butt" stroke-width="2.92"/><path d="m413.211 492.998h22.441" fill="none" stroke="#fff" stroke-linecap="butt" stroke-width="2.92"/><path d="m412.15 499.335h24.563" fill="none" stroke="#fff" stroke-linecap="butt" stroke-width="2.92"/><path d="m523.633 412.282c.318 135.219.636 270.438.954 405.657" fill="none" stroke="#464646" stroke-width="14.17"/><path d="m499.324 609.09s30.56-3.139 47.773 1.127c3.243.804-8.416 24.838 1.624 66.038 1.285 5.273-50.31 3.568-49.462.756 10.722-35.568.065-67.921.065-67.921z" fill="#cbcbcb" stroke="#000" stroke-width="6.25"/><path d="m511.951 628.087h24.563" fill="none" stroke="#fff" stroke-linecap="butt" stroke-width="2.92"/><path d="m513.012 634.305h22.441" fill="none" stroke="#fff" stroke-linecap="butt" stroke-width="2.92"/><path d="m513.012 640.072h22.441" fill="none" stroke="#fff" stroke-linecap="butt" stroke-width="2.92"/><path d="m513.012 646.212h22.441" fill="none" stroke="#fff" stroke-linecap="butt" stroke-width="2.92"/><path d="m513.012 651.983h22.441" fill="none" stroke="#fff" stroke-linecap="butt" stroke-width="2.92"/><path d="m511.951 658.321h24.563" fill="none" stroke="#fff" stroke-linecap="butt" stroke-width="2.92"/><path d="m623.435 412.282c.318 135.219.636 270.438.954 405.657" fill="none" stroke="#464646" stroke-width="14.17"/><path d="m599.126 489.281s30.56-3.14 47.773 1.127c3.242.803-8.417 24.838 1.623 66.037 1.286 5.274-50.309 3.568-49.462.757 10.722-35.569.066-67.921.066-67.921z" fill="#cbcbcb" stroke="#000" stroke-width="6.25"/><path d="m611.753 508.277h24.563" fill="none" stroke="#fff" stroke-linecap="butt" stroke-width="2.92"/><path d="m612.814 514.495h22.441" fill="none" stroke="#fff" stroke-linecap="butt" stroke-width="2.92"/><path d="m612.814 520.263h22.441" fill="none" stroke="#fff" stroke-linecap="butt" stroke-width="2.92"/><path d="m612.814 526.403h22.441" fill="none" stroke="#fff" stroke-linecap="butt" stroke-width="2.92"/><path d="m612.814 532.174h22.441" fill="none" stroke="#fff" stroke-linecap="butt" stroke-width="2.92"/><path d="m611.753 538.511h24.563" fill="none" stroke="#fff" stroke-linecap="butt" stroke-width="2.92"/><path d="m724.206 412.282c.318 135.219.636 270.438.955 405.657" fill="none" stroke="#464646" stroke-width="14.17"/><path d="m699.897 731.323s30.56-3.14 47.773 1.127c3.243.803-8.416 24.837 1.624 66.037 1.285 5.273-50.31 3.568-49.462.757 10.722-35.569.065-67.921.065-67.921z" fill="#cbcbcb" stroke="#000" stroke-width="6.25"/><path d="m712.524 750.319h24.563" fill="none" stroke="#fff" stroke-linecap="butt" stroke-width="2.92"/><path d="m713.586 756.537h22.44" fill="none" stroke="#fff" stroke-linecap="butt" stroke-width="2.92"/><path d="m713.586 762.305h22.44" fill="none" stroke="#fff" stroke-linecap="butt" stroke-width="2.92"/><path d="m713.586 768.445h22.44" fill="none" stroke="#fff" stroke-linecap="butt" stroke-width="2.92"/><path d="m713.586 774.215h22.44" fill="none" stroke="#fff" stroke-linecap="butt" stroke-width="2.92"/><path d="m712.524 780.553h24.563" fill="none" stroke="#fff" stroke-linecap="butt" stroke-width="2.92"/><path d="m836.055 420.446s-1.154 72.959 1.193 72.193 72.726 2.216 72.757.34c.049-2.991.624-71.037-.762-73.199-1.831-2.853-71.719-.565-73.188.666z" fill="#2980b9" stroke="#000" stroke-linecap="butt" stroke-width="14.17"/><path d="m836.055 523.212s-1.154 72.959 1.193 72.193c2.347-.767 72.726 2.216 72.757.34.049-2.991.624-71.038-.762-73.199-1.831-2.853-71.719-.565-73.188.666z" fill="#e74c3c" stroke="#000" stroke-linecap="butt" stroke-width="14.17"/><path d="m836.055 625.978s-1.154 72.959 1.193 72.193c2.347-.767 72.726 2.216 72.757.34.049-2.991.624-71.038-.762-73.199-1.831-2.853-71.719-.565-73.188.666z" fill="#27ae60" stroke="#000" stroke-linecap="butt" stroke-width="14.17"/><path d="m836.055 728.744s-1.154 72.959 1.193 72.193c2.347-.767 72.726 2.216 72.757.34.049-2.991.624-71.038-.762-73.199-1.831-2.853-71.719-.565-73.188.666z" fill="#2980b9" stroke="#000" stroke-linecap="butt" stroke-width="14.17"/><path d="m946.762 420.446s-1.155 72.959 1.192 72.193 72.726 2.216 72.756.34c.05-2.991.63-71.037-.76-73.199-1.83-2.853-71.72-.565-73.188.666z" fill="#2eabff" stroke="#000" stroke-linecap="butt" stroke-width="14.17"/><path d="m946.762 523.212s-1.155 72.959 1.192 72.193c2.347-.767 72.726 2.216 72.756.34.05-2.991.63-71.038-.76-73.199-1.83-2.853-71.72-.565-73.188.666z" fill="#27ae60" stroke="#000" stroke-linecap="butt" stroke-width="14.17"/><path d="m946.762 625.978s-1.155 72.959 1.192 72.193c2.347-.767 72.726 2.216 72.756.34.05-2.991.63-71.038-.76-73.199-1.83-2.853-71.72-.565-73.188.666z" fill="#00ec64" stroke="#000" stroke-linecap="butt" stroke-width="14.17"/><path d="m946.762 728.744s-1.155 72.959 1.192 72.193c2.347-.767 72.726 2.216 72.756.34.05-2.991.63-71.038-.76-73.199-1.83-2.853-71.72-.565-73.188.666z" fill="#c0392b" stroke="#000" stroke-linecap="butt" stroke-width="14.17"/><path d="m1058.32 420.446s-1.15 72.959 1.2 72.193c2.34-.766 72.72 2.216 72.75.34.05-2.991.63-71.037-.76-73.199-1.83-2.853-71.72-.565-73.19.666z" fill="#c0392b" stroke="#000" stroke-linecap="butt" stroke-width="14.17"/><path d="m1058.32 523.212s-1.15 72.959 1.2 72.193c2.34-.767 72.72 2.216 72.75.34.05-2.991.63-71.038-.76-73.199-1.83-2.853-71.72-.565-73.19.666z" fill="#27ae60" stroke="#000" stroke-linecap="butt" stroke-width="14.17"/><path d="m1058.32 625.978s-1.15 72.959 1.2 72.193c2.34-.767 72.72 2.216 72.75.34.05-2.991.63-71.038-.76-73.199-1.83-2.853-71.72-.565-73.19.666z" fill="#c0392b" stroke="#000" stroke-linecap="butt" stroke-width="14.17"/><path d="m1058.32 728.744s-1.15 72.959 1.2 72.193c2.34-.767 72.72 2.216 72.75.34.05-2.991.63-71.038-.76-73.199-1.83-2.853-71.72-.565-73.19.666z" fill="#2980b9" stroke="#000" stroke-linecap="butt" stroke-width="14.17"/></g></svg>