<?xml version="1.0" encoding="UTF-8" standalone="no"?><!DOCTYPE svg PUBLIC "-//W3C//DTD SVG 1.1//EN" "http://www.w3.org/Graphics/SVG/1.1/DTD/svg11.dtd"><svg width="1497px" height="925px" version="1.1" xmlns="http://www.w3.org/2000/svg" xmlns:xlink="http://www.w3.org/1999/xlink" xml:space="preserve" xmlns:serif="http://www.serif.com/" style="fill-rule:evenodd;clip-rule:evenodd;stroke-linecap:round;stroke-linejoin:round;stroke-miterlimit:10;"><g><path d="M8.159,24.891C5.204,97.302 8.386,415.175 11.651,485.363C19.595,656.163 4.528,903.351 10.898,908.13C35.435,926.538 607.553,912.656 751.75,912.656C765.25,912.656 1429.6,904.119 1436.2,894.221C1439.73,888.937 1433.77,763.76 1434.3,750.288C1441.59,568.352 1448.88,7.773 1433.19,7.625C1116.15,4.756 804.51,12.221 489.784,16.971C375.215,18.7 8.371,19.685 8.159,24.891Z" style="fill:rgb(243,243,243);fill-rule:nonzero;stroke:black;stroke-width:13.97px;"/><g><path d="M260.644,136.429C226.35,102.75 195.218,96.734 168.527,103.408C79.414,125.684 71.844,232.854 142.111,279.698C231.229,339.112 320.335,195.042 260.644,136.429Z" style="fill:none;fill-rule:nonzero;stroke:black;stroke-width:13.97px;"/><path d="M207.789,255.081C209.166,255.081 181.343,223.559 178.355,219.572C165.627,202.604 151.827,189.826 142.395,170.962C137.633,161.438 138.362,139.27 138.362,139.27C138.362,139.27 164.631,143.645 172.355,151.373C192.761,171.774 215.315,201.475 234.048,223.651C240.945,231.813 205.552,255.081 207.789,255.081Z" style="fill:rgb(57,171,255);fill-rule:nonzero;stroke:black;stroke-width:13.97px;"/><path d="M62.011,204.174C62.011,204.174 62.636,71.366 191.852,70.579C337.709,69.683 312.449,216.51 312.449,216.51" style="fill:none;fill-rule:nonzero;stroke:black;stroke-width:9.81px;stroke-dasharray:8.33,0,0,33.33;"/></g><g><path d="M260.644,417.422C226.35,383.743 195.218,377.727 168.527,384.401C79.415,406.678 71.844,513.848 142.111,560.692C231.229,620.105 320.335,476.036 260.644,417.422Z" style="fill:none;fill-rule:nonzero;stroke:black;stroke-width:13.97px;"/><path d="M127.723,459.992C126.89,461.088 168.821,457.998 173.803,458.03C195.014,458.159 213.536,454.899 234.264,458.798C244.728,460.766 261.94,474.756 261.94,474.756C261.94,474.756 242.567,493.028 231.741,494.505C203.152,498.414 165.859,498.409 136.867,499.913C126.196,500.469 129.076,458.21 127.723,459.992Z" style="fill:rgb(46,204,113);fill-rule:nonzero;stroke:black;stroke-width:13.97px;"/><path d="M62.011,485.168C62.011,485.168 62.636,352.359 191.853,351.572C337.709,350.676 312.449,497.504 312.449,497.504" style="fill:none;fill-rule:nonzero;stroke:black;stroke-width:9.81px;stroke-dasharray:8.33,0,0,33.33;"/></g><g><path d="M260.643,693.996C226.352,660.317 195.218,654.301 168.526,660.975C79.415,683.251 71.843,790.421 142.112,837.265C231.23,896.679 320.336,752.609 260.643,693.996Z" style="fill:none;fill-rule:nonzero;stroke:black;stroke-width:13.97px;"/><path d="M139.117,794.591C139.529,795.904 161.247,759.904 164.155,755.859C176.525,738.628 184.574,721.63 199.738,706.969C207.396,699.57 228.755,693.617 228.755,693.617C228.755,693.617 232.463,719.988 227.414,729.675C214.07,755.259 192.506,785.688 176.974,810.21C171.259,819.238 138.442,792.458 139.117,794.591Z" style="fill:rgb(255,57,57);fill-rule:nonzero;stroke:black;stroke-width:13.97px;"/><path d="M62.011,761.741C62.011,761.741 62.636,628.933 191.852,628.146C337.708,627.25 312.449,774.077 312.449,774.077" style="fill:none;fill-rule:nonzero;stroke:black;stroke-width:9.81px;stroke-dasharray:8.33,0,0,33.33;"/></g><g><path d="M391.742,79.28C393.569,90.444 387.887,321.872 397.818,325.412C413.026,330.834 1108.71,319.745 1118.64,316.979C1128.56,314.212 1124.68,72.82 1115.79,71.37C1106.9,69.92 391.003,74.769 391.742,79.28Z" style="fill:rgb(1,38,0);"/><path d="M391.739,259.785C391.739,259.785 410.256,259.375 418.304,259.63C426.351,259.885 426.804,242.979 434.512,240.288C448.901,235.262 453.46,259.526 453.46,259.526L467.929,278.93L485.102,139.851L493.573,284.388C493.573,284.388 502.682,261.344 506.461,260.428C522.314,256.586 514.815,230.088 531.284,224.844C554.556,217.434 553.15,260.198 567.216,260.212C581.283,260.225 601.529,259.632 609.576,259.887C617.623,260.142 618.077,243.236 625.784,240.545C640.173,235.519 644.732,259.783 644.732,259.783L659.202,279.187L667.646,144.384L684.846,284.645C684.846,284.645 694.668,263.077 697.734,260.685C709.557,251.459 711.449,223.266 728.683,224.573C745.917,225.88 744.422,260.455 758.489,260.469C772.556,260.482 793.679,258.248 807.381,253.663C832.001,245.425 864.81,212.16 873.201,184.444C883.375,150.838 849.996,137.106 830.405,164.788C815.566,137.127 782.19,148.855 787.817,180.2C792.866,208.319 817.637,236.506 846.004,251.798C859.204,258.914 919.83,260.682 921.546,257.856C928.907,245.74 929.911,237.756 942.083,239.08C949.675,239.907 953.596,250.429 960.486,255.628C967.513,260.93 966.054,277.955 969.951,277.695C977.1,277.218 985.205,146.167 985.205,146.167L994.483,260.775C994.483,260.775 996.047,274.246 998.807,279.356C999.141,279.976 1002.34,257.248 1011.18,254.474C1021.18,251.337 1026.7,223.119 1043.65,221.777C1058.25,220.621 1060.57,242.486 1070.32,251.525C1076.56,257.316 1124.49,252.102 1124.49,252.102" style="fill:none;stroke:rgb(0,178,6);stroke-width:6.25px;stroke-miterlimit:1.5;"/><path d="M391.742,79.28C393.569,90.444 387.887,321.872 397.818,325.412C413.026,330.834 1108.71,319.745 1118.64,316.979C1128.56,314.212 1124.68,72.82 1115.79,71.37C1106.9,69.92 391.003,74.769 391.742,79.28Z" style="fill:none;stroke:black;stroke-width:14.17px;stroke-miterlimit:1.5;"/></g><g><path d="M1301.95,71.734C1297.11,70.156 1243.2,69.795 1242.88,73.197C1241.65,86.301 1242.58,391.841 1242.58,468.849C1242.58,476.059 1243.15,830.857 1243.81,834.382C1244.17,836.264 1303.09,841.149 1303.1,832.771C1303.3,663.458 1302.8,497.026 1302.48,328.946C1302.36,267.761 1302.3,71.847 1301.95,71.734Z" style="fill:rgb(70,70,70);fill-rule:nonzero;stroke:black;stroke-width:13.97px;"/><g><path d="M1302.49,286.494C1368.66,200.178 1388.66,174.265 1394.04,168.156C1396.3,165.598 1426.57,189.308 1428.35,192.664C1428.48,192.905 1362.49,278.662 1325.29,327.233C1317.73,337.096 1310.18,346.952 1302.64,356.803C1282.6,382.962 1262.6,409.083 1242.61,435.19C1242.59,425.559 1242.58,419.712 1242.58,418.849C1242.58,406.207 1242.56,387.407 1242.52,364.754C1259.99,341.954 1280.86,314.717 1302.49,286.494Z" style="fill:rgb(203,203,203);stroke:black;stroke-width:13.97px;"/><circle cx="1409.83" cy="187.265" r="79.85" style="fill:rgb(192,57,43);stroke:black;stroke-width:14.17px;stroke-miterlimit:1.5;"/></g></g><g><path d="M423.832,412.282C424.15,547.501 424.468,682.72 424.786,817.939" style="fill:none;stroke:rgb(70,70,70);stroke-width:14.17px;stroke-miterlimit:1.5;"/><g><path d="M399.523,450.105C399.523,450.105 430.083,446.965 447.296,451.232C450.538,452.035 438.879,476.069 448.919,517.269C450.205,522.543 398.61,520.837 399.457,518.026C410.18,482.457 399.523,450.105 399.523,450.105Z" style="fill:rgb(203,203,203);stroke:black;stroke-width:6.25px;stroke-miterlimit:1.5;"/><g><path d="M412.15,469.101L436.713,469.101" style="fill:none;stroke:white;stroke-width:2.92px;stroke-linecap:butt;stroke-miterlimit:1.5;"/><path d="M413.211,475.319L435.652,475.319" style="fill:none;stroke:white;stroke-width:2.92px;stroke-linecap:butt;stroke-miterlimit:1.5;"/><path d="M413.211,481.087L435.652,481.087" style="fill:none;stroke:white;stroke-width:2.92px;stroke-linecap:butt;stroke-miterlimit:1.5;"/><path d="M413.211,487.227L435.652,487.227" style="fill:none;stroke:white;stroke-width:2.92px;stroke-linecap:butt;stroke-miterlimit:1.5;"/><path d="M413.211,492.998L435.652,492.998" style="fill:none;stroke:white;stroke-width:2.92px;stroke-linecap:butt;stroke-miterlimit:1.5;"/><path d="M412.15,499.335L436.713,499.335" style="fill:none;stroke:white;stroke-width:2.92px;stroke-linecap:butt;stroke-miterlimit:1.5;"/></g></g></g><g><path d="M523.633,412.282C523.951,547.501 524.269,682.72 524.587,817.939" style="fill:none;stroke:rgb(70,70,70);stroke-width:14.17px;stroke-miterlimit:1.5;"/><g><path d="M499.324,609.09C499.324,609.09 529.884,605.951 547.097,610.217C550.34,611.021 538.681,635.055 548.721,676.255C550.006,681.528 498.411,679.823 499.259,677.011C509.981,641.443 499.324,609.09 499.324,609.09Z" style="fill:rgb(203,203,203);stroke:black;stroke-width:6.25px;stroke-miterlimit:1.5;"/><g><path d="M511.951,628.087L536.514,628.087" style="fill:none;stroke:white;stroke-width:2.92px;stroke-linecap:butt;stroke-miterlimit:1.5;"/><path d="M513.012,634.305L535.453,634.305" style="fill:none;stroke:white;stroke-width:2.92px;stroke-linecap:butt;stroke-miterlimit:1.5;"/><path d="M513.012,640.072L535.453,640.072" style="fill:none;stroke:white;stroke-width:2.92px;stroke-linecap:butt;stroke-miterlimit:1.5;"/><path d="M513.012,646.212L535.453,646.212" style="fill:none;stroke:white;stroke-width:2.92px;stroke-linecap:butt;stroke-miterlimit:1.5;"/><path d="M513.012,651.983L535.453,651.983" style="fill:none;stroke:white;stroke-width:2.92px;stroke-linecap:butt;stroke-miterlimit:1.5;"/><path d="M511.951,658.321L536.514,658.321" style="fill:none;stroke:white;stroke-width:2.92px;stroke-linecap:butt;stroke-miterlimit:1.5;"/></g></g></g><g><path d="M623.435,412.282C623.753,547.501 624.071,682.72 624.389,817.939" style="fill:none;stroke:rgb(70,70,70);stroke-width:14.17px;stroke-miterlimit:1.5;"/><g><path d="M599.126,489.281C599.126,489.281 629.686,486.141 646.899,490.408C650.141,491.211 638.482,515.246 648.522,556.445C649.808,561.719 598.213,560.013 599.06,557.202C609.782,521.633 599.126,489.281 599.126,489.281Z" style="fill:rgb(203,203,203);stroke:black;stroke-width:6.25px;stroke-miterlimit:1.5;"/><g><path d="M611.753,508.277L636.316,508.277" style="fill:none;stroke:white;stroke-width:2.92px;stroke-linecap:butt;stroke-miterlimit:1.5;"/><path d="M612.814,514.495L635.255,514.495" style="fill:none;stroke:white;stroke-width:2.92px;stroke-linecap:butt;stroke-miterlimit:1.5;"/><path d="M612.814,520.263L635.255,520.263" style="fill:none;stroke:white;stroke-width:2.92px;stroke-linecap:butt;stroke-miterlimit:1.5;"/><path d="M612.814,526.403L635.255,526.403" style="fill:none;stroke:white;stroke-width:2.92px;stroke-linecap:butt;stroke-miterlimit:1.5;"/><path d="M612.814,532.174L635.255,532.174" style="fill:none;stroke:white;stroke-width:2.92px;stroke-linecap:butt;stroke-miterlimit:1.5;"/><path d="M611.753,538.511L636.316,538.511" style="fill:none;stroke:white;stroke-width:2.92px;stroke-linecap:butt;stroke-miterlimit:1.5;"/></g></g></g><g><path d="M724.206,412.282C724.524,547.501 724.842,682.72 725.161,817.939" style="fill:none;stroke:rgb(70,70,70);stroke-width:14.17px;stroke-miterlimit:1.5;"/><g><path d="M699.897,731.323C699.897,731.323 730.457,728.183 747.67,732.45C750.913,733.253 739.254,757.287 749.294,798.487C750.579,803.76 698.984,802.055 699.832,799.244C710.554,763.675 699.897,731.323 699.897,731.323Z" style="fill:rgb(203,203,203);stroke:black;stroke-width:6.25px;stroke-miterlimit:1.5;"/><g><path d="M712.524,750.319L737.087,750.319" style="fill:none;stroke:white;stroke-width:2.92px;stroke-linecap:butt;stroke-miterlimit:1.5;"/><path d="M713.586,756.537L736.026,756.537" style="fill:none;stroke:white;stroke-width:2.92px;stroke-linecap:butt;stroke-miterlimit:1.5;"/><path d="M713.586,762.305L736.026,762.305" style="fill:none;stroke:white;stroke-width:2.92px;stroke-linecap:butt;stroke-miterlimit:1.5;"/><path d="M713.586,768.445L736.026,768.445" style="fill:none;stroke:white;stroke-width:2.92px;stroke-linecap:butt;stroke-miterlimit:1.5;"/><path d="M713.586,774.215L736.026,774.215" style="fill:none;stroke:white;stroke-width:2.92px;stroke-linecap:butt;stroke-miterlimit:1.5;"/><path d="M712.524,780.553L737.087,780.553" style="fill:none;stroke:white;stroke-width:2.92px;stroke-linecap:butt;stroke-miterlimit:1.5;"/></g></g></g><g><path d="M836.055,420.446C836.055,420.446 834.901,493.405 837.248,492.639C839.595,491.873 909.974,494.855 910.005,492.979C910.054,489.988 910.629,421.942 909.243,419.78C907.412,416.927 837.524,419.215 836.055,420.446Z" style="fill:rgb(41,128,185);stroke:black;stroke-width:14.17px;stroke-linecap:butt;stroke-miterlimit:1.5;"/><path d="M836.055,523.212C836.055,523.212 834.901,596.171 837.248,595.405C839.595,594.638 909.974,597.621 910.005,595.745C910.054,592.754 910.629,524.707 909.243,522.546C907.412,519.693 837.524,521.981 836.055,523.212Z" style="fill:rgb(231,76,60);stroke:black;stroke-width:14.17px;stroke-linecap:butt;stroke-miterlimit:1.5;"/><path d="M836.055,625.978C836.055,625.978 834.901,698.937 837.248,698.171C839.595,697.404 909.974,700.387 910.005,698.511C910.054,695.52 910.629,627.473 909.243,625.312C907.412,622.459 837.524,624.747 836.055,625.978Z" style="fill:rgb(39,174,96);stroke:black;stroke-width:14.17px;stroke-linecap:butt;stroke-miterlimit:1.5;"/><path d="M836.055,728.744C836.055,728.744 834.901,801.703 837.248,800.937C839.595,800.17 909.974,803.153 910.005,801.277C910.054,798.286 910.629,730.239 909.243,728.078C907.412,725.225 837.524,727.513 836.055,728.744Z" style="fill:rgb(41,128,185);stroke:black;stroke-width:14.17px;stroke-linecap:butt;stroke-miterlimit:1.5;"/><path d="M946.762,420.446C946.762,420.446 945.607,493.405 947.954,492.639C950.301,491.873 1020.68,494.855 1020.71,492.979C1020.76,489.988 1021.34,421.942 1019.95,419.78C1018.12,416.927 948.23,419.215 946.762,420.446Z" style="fill:rgb(46,171,255);stroke:black;stroke-width:14.17px;stroke-linecap:butt;stroke-miterlimit:1.5;"/><path d="M946.762,523.212C946.762,523.212 945.607,596.171 947.954,595.405C950.301,594.638 1020.68,597.621 1020.71,595.745C1020.76,592.754 1021.34,524.707 1019.95,522.546C1018.12,519.693 948.23,521.981 946.762,523.212Z" style="fill:rgb(39,174,96);stroke:black;stroke-width:14.17px;stroke-linecap:butt;stroke-miterlimit:1.5;"/><path d="M946.762,625.978C946.762,625.978 945.607,698.937 947.954,698.171C950.301,697.404 1020.68,700.387 1020.71,698.511C1020.76,695.52 1021.34,627.473 1019.95,625.312C1018.12,622.459 948.23,624.747 946.762,625.978Z" style="fill:rgb(0,236,100);stroke:black;stroke-width:14.17px;stroke-linecap:butt;stroke-miterlimit:1.5;"/><path d="M946.762,728.744C946.762,728.744 945.607,801.703 947.954,800.937C950.301,800.17 1020.68,803.153 1020.71,801.277C1020.76,798.286 1021.34,730.239 1019.95,728.078C1018.12,725.225 948.23,727.513 946.762,728.744Z" style="fill:rgb(192,57,43);stroke:black;stroke-width:14.17px;stroke-linecap:butt;stroke-miterlimit:1.5;"/><path d="M1058.32,420.446C1058.32,420.446 1057.17,493.405 1059.52,492.639C1061.86,491.873 1132.24,494.855 1132.27,492.979C1132.32,489.988 1132.9,421.942 1131.51,419.78C1129.68,416.927 1059.79,419.215 1058.32,420.446Z" style="fill:rgb(192,57,43);stroke:black;stroke-width:14.17px;stroke-linecap:butt;stroke-miterlimit:1.5;"/><path d="M1058.32,523.212C1058.32,523.212 1057.17,596.171 1059.52,595.405C1061.86,594.638 1132.24,597.621 1132.27,595.745C1132.32,592.754 1132.9,524.707 1131.51,522.546C1129.68,519.693 1059.79,521.981 1058.32,523.212Z" style="fill:rgb(39,174,96);stroke:black;stroke-width:14.17px;stroke-linecap:butt;stroke-miterlimit:1.5;"/><path d="M1058.32,625.978C1058.32,625.978 1057.17,698.937 1059.52,698.171C1061.86,697.404 1132.24,700.387 1132.27,698.511C1132.32,695.52 1132.9,627.473 1131.51,625.312C1129.68,622.459 1059.79,624.747 1058.32,625.978Z" style="fill:rgb(192,57,43);stroke:black;stroke-width:14.17px;stroke-linecap:butt;stroke-miterlimit:1.5;"/><path d="M1058.32,728.744C1058.32,728.744 1057.17,801.703 1059.52,800.937C1061.86,800.17 1132.24,803.153 1132.27,801.277C1132.32,798.286 1132.9,730.239 1131.51,728.078C1129.68,725.225 1059.79,727.513 1058.32,728.744Z" style="fill:rgb(41,128,185);stroke:black;stroke-width:14.17px;stroke-linecap:butt;stroke-miterlimit:1.5;"/></g></g></svg>