<?xml version="1.0" encoding="UTF-8" standalone="no"?><!DOCTYPE svg PUBLIC "-//W3C//DTD SVG 1.1//EN" "http://www.w3.org/Graphics/SVG/1.1/DTD/svg11.dtd"><svg width="1062px" height="490px" version="1.1" xmlns="http://www.w3.org/2000/svg" xmlns:xlink="http://www.w3.org/1999/xlink" xml:space="preserve" xmlns:serif="http://www.serif.com/" style="fill-rule:evenodd;clip-rule:evenodd;stroke-linejoin:round;stroke-miterlimit:2;"><g><g><path d="M98.881,120.636C104.046,118.793 104.164,113.699 104.069,111.551C102.42,86.313 90.382,75.57 87.907,73.361C81.614,67.745 70.946,61.877 52.015,61.875C30.497,61.872 20.988,70.315 16.798,74.846C4.802,87.816 3.701,109.407 3.814,114.335C3.816,182.821 64.096,173.57 67.912,193.589C69.109,199.907 61.984,207.129 52.074,208.064C43.387,208.883 35.287,204.285 34.445,191.666C34.002,185.858 31.433,184.249 27.836,185.388C18.597,188.57 10.601,191.09 5.217,192.707C1.506,193.826 -0.178,196.765 0.015,200.874C0.967,218.432 7.486,240.274 52.071,236.151C85.413,233.068 95.972,219.141 98.756,215.348C106.211,205.188 106.426,193.755 106.426,193.4C106.413,166.537 89.918,153.168 80.727,146.891C62.962,134.758 41.82,129.762 40.222,117.181C39.426,110.716 44.129,104.234 52.02,104.093C61.148,103.931 68.001,110.498 69.448,122.144C69.909,126.363 71.306,130.381 76.064,128.792C78.2,128.021 88.78,124.201 98.881,120.636Z" style="fill:url(#_Linear1);fill-rule:nonzero;"/><path d="M148.615,65.167C153.687,65.156 154.617,68.569 154.621,71.523C154.68,117.139 155.099,166.272 154.992,214.981C154.987,217.471 153.234,219.44 148.96,220.204C147.536,220.459 137.218,222.307 126.881,224.051C122.896,224.724 120.864,223.485 120.868,220.945C120.784,171.215 120.7,121.484 120.616,71.754C120.613,66.686 123.503,65.216 126.614,65.211C133.948,65.196 141.281,65.181 148.615,65.167Z" style="fill:url(#_Linear2);fill-rule:nonzero;"/><path d="M222.019,65.005C226.442,64.997 227.878,68.048 228.431,70.38C232.711,87.808 237.752,109.216 243.073,130.879C243.488,132.934 245.097,132.778 245.478,130.643C249.527,112.135 254.187,90.874 259.234,70.23C259.798,67.838 261.272,64.946 265.62,64.942C279.42,64.942 293.22,64.941 307.02,64.941C309.72,64.943 313.017,65.832 313.038,70.735C313.215,112.877 314.154,141.89 313.902,190.622C313.882,194.539 309.831,195.203 307.867,195.37C301.549,195.908 293.582,196.692 285.42,197.639C281.413,198.104 279.416,196.715 279.428,194.112C279.55,168.377 279.402,151.629 279.054,119.326C279.039,117.945 277.233,117.853 276.849,119.269C266.035,166.358 262.318,183.623 257.763,197.639C256.754,200.842 253.636,201.895 251.125,202.277C250.065,202.438 244.722,203.251 237.882,204.361C235.657,204.722 232.305,204.827 231.276,201.82C230.43,199.431 226.635,190.579 211.533,124.526C211.125,123.003 209.32,123.383 209.33,124.954C209.573,160.05 209.689,179.188 209.6,204.999C209.592,207.444 207.936,209.481 203.562,210.266C196.067,211.63 188.573,212.993 181.079,214.356C179.358,214.672 175.058,215.241 175.069,211.301C175.196,163.408 174.704,117.136 174.624,71.372C174.619,68.217 175.729,65.106 180.617,65.095C194.417,65.065 208.218,65.035 222.019,65.005Z" style="fill:url(#_Linear3);fill-rule:nonzero;"/><path d="M337.819,64.992C333.953,64.982 331.821,67.035 331.837,70.79C331.955,99.136 332.527,126.186 332.714,154.137C332.877,178.463 343.654,185.476 345.549,186.851C351.675,191.297 361.85,195.331 382.879,196.483C396.287,197.217 411.654,196.711 420.926,190.331C422.987,188.913 433.147,182.607 433.009,159.082C432.838,129.999 432.35,99.619 432.237,70.762C432.223,67.051 430.369,64.934 426.22,64.933C418.753,64.935 411.287,64.936 403.82,64.938C399.924,64.941 397.822,67.006 397.838,70.73C397.943,95.66 398.38,120.971 398.604,145.425C398.741,160.332 397.691,168.965 382.966,168.13C368.298,167.298 367.184,158.551 367.04,143.738C366.806,119.721 366.338,95.874 366.236,70.838C366.221,67.201 364.411,65.006 360.218,65.019C350.599,65.049 350.622,65.024 337.819,64.992Z" style="fill:url(#_Linear4);fill-rule:nonzero;"/><path d="M479.419,64.993C484.166,65.002 485.423,67.84 485.432,71.025C485.522,102.203 485.955,140.037 486.065,171.471C486.079,175.417 488.376,177.949 492.06,178.595C506.994,181.212 523.014,184.18 536.488,186.659C538.423,187.015 542.468,188.212 542.468,193.945C542.461,200.307 542.454,206.67 542.446,213.032C542.438,216.343 539.65,216.664 536.456,216.073C511.13,211.38 484.123,206.308 457.73,202.262C453.846,201.667 451.758,199.798 451.769,197.131C451.98,149.823 451.194,114.917 451.036,70.83C451.022,66.878 453.278,64.953 457.02,64.958C464.486,64.97 471.952,64.981 479.419,64.993Z" style="fill:url(#_Linear5);fill-rule:nonzero;"/><path d="M651.503,229.34C651.502,231.419 650.597,233.892 645.512,233.343C639.354,232.679 631.432,231.733 623.167,230.615C621.25,230.355 617.185,229.492 617.189,225.707C617.191,221.005 617.193,216.304 617.195,211.603C617.195,208.519 615.744,205.509 611.214,204.831C602.984,203.601 595.441,202.362 594.071,202.137C590.01,201.47 588.093,203.616 588.092,207.027C588.089,211.744 588.085,216.461 588.081,221.178C588.076,224.442 585.314,224.823 582.093,224.276C571.648,222.499 561.216,220.611 559.771,220.351C556.158,219.698 553.798,217.81 553.805,214.553C553.874,183.941 553.734,155.809 553.587,121.731C553.441,87.724 558.194,61.46 602.415,61.46C645.643,61.46 651.406,86.321 651.45,128.136C651.468,161.871 651.485,195.606 651.503,229.34ZM617.089,126.339C617.063,113.228 615.687,106.823 602.465,106.274C589.145,105.721 587.895,112.035 587.931,124.373C587.958,133.904 587.986,143.434 588.014,152.964C588.035,160.689 593.194,161.327 594.018,161.429C595.39,161.599 602.939,162.533 611.174,163.468C616.246,163.709 617.152,159.544 617.146,155.849C617.127,146.012 617.108,136.176 617.089,126.339Z" style="fill:url(#_Linear6);fill-rule:nonzero;"/><path d="M698.422,117.589C698.421,114.181 697.777,108.971 692.42,108.967C684.439,108.961 674.673,108.885 664.425,108.711C660.838,108.649 658.425,105.752 658.422,100.356C658.418,90.899 658.415,81.443 658.411,71.987C658.411,70.409 658.558,65.269 664.413,65.263C698.547,65.261 732.681,65.258 766.815,65.256C771.88,65.257 772.815,68.782 772.816,71.949C772.817,81.348 772.818,90.747 772.819,100.146C772.82,105.761 770.416,108.387 766.821,108.462C756.397,108.68 746.638,108.815 738.821,108.882C736.098,108.906 732.821,110.466 732.823,117.503C732.827,155.805 732.832,194.106 732.837,232.407C732.835,236.242 728.566,236.613 726.835,236.669C725.044,236.726 715.128,237.045 704.436,236.959C700.598,236.929 698.439,235.424 698.44,232.833C698.434,194.418 698.428,156.004 698.422,117.589Z" style="fill:url(#_Linear7);fill-rule:nonzero;"/><path d="M812.815,65.233C817.899,65.228 818.815,68.742 818.816,71.809C818.821,122.593 818.826,173.378 818.832,224.163C818.831,227.891 814.74,228.733 812.831,228.988C804.408,230.115 796.627,231.068 790.833,231.734C786.892,232.187 784.833,230.897 784.834,228.382C784.828,176.23 784.822,124.079 784.816,71.928C784.815,70.374 784.958,65.255 790.815,65.252C798.148,65.246 805.482,65.24 812.815,65.233Z" style="fill:url(#_Linear8);fill-rule:nonzero;"/><path d="M937.218,114.002C937.214,74.886 916.459,61.46 887.015,61.46C856.08,61.46 836.815,75.981 836.822,120.087C836.825,141.521 836.828,162.955 836.831,184.389C836.834,212.717 845.735,226.586 887.025,219.951C926.331,213.634 937.223,198.562 937.222,170.264C937.22,151.51 937.219,132.756 937.218,114.002ZM902.824,163.082C902.825,180.291 901.994,190.196 887.027,192.544C872.072,194.89 871.228,185.192 871.227,167.195C871.225,155.271 871.224,143.347 871.222,131.423C871.219,111.799 872.205,100.307 887.018,99.742C901.964,99.172 902.818,110.637 902.82,128.85C902.822,140.261 902.823,151.672 902.824,163.082Z" style="fill:url(#_Linear9);fill-rule:nonzero;"/><path d="M990.615,64.97C994.022,64.969 996.234,66.375 997.615,69.507C1005.45,88.55 1014.25,111.278 1024.82,137.249C1025.61,139.035 1027.22,138.565 1027.22,136.531C1027.21,114.658 1027.21,92.785 1027.21,70.912C1027.21,66.939 1029.47,64.991 1033.21,64.997C1040.68,65.012 1048.15,65.028 1055.62,65.043C1059.96,65.055 1061.62,67.463 1061.62,71.06L1061.62,195.321C1061.62,198.804 1057.86,199.233 1055.62,199.256C1047.23,199.34 1037.09,199.644 1026.22,200.268C1023.1,200.446 1020.68,199.881 1019.22,197.738C1013.86,189.34 1010.66,181.714 1005.62,169.841C999.903,156.402 995.012,144.205 992.017,136.65C991.224,134.816 989.617,135.335 989.617,137.454C989.617,158.081 989.617,178.708 989.618,199.335C989.618,202.857 985.806,203.657 983.618,203.897C977.659,204.553 969.732,205.489 961.219,206.597C957.168,207.125 955.22,205.851 955.22,203.457C955.218,159.311 955.217,115.165 955.215,71.019C955.215,66.837 957.584,64.992 961.215,64.988C971.015,64.982 980.815,64.976 990.615,64.97Z" style="fill:url(#_Linear10);fill-rule:nonzero;"/></g><g><path d="M63.396,255.549C65.815,255.299 70.443,255.118 71.958,258.613C76.445,268.582 79.864,276.854 90.933,325.131C91.466,327.979 93.629,327.656 94.144,324.819C104.398,278.308 107.134,268.193 113.2,253.099C114.699,249.24 119.156,248.138 121.785,247.721C140.589,244.741 160.206,241.288 177.261,238.292C180.615,237.702 185.297,237.42 185.276,241.495C184.949,304.984 184.949,409.798 184.949,424.433C184.949,429.511 182.225,432.451 176.931,432.451L146.997,432.451C141.944,432.451 138.979,429.486 138.979,424.433C139.027,385.312 139.075,346.191 139.123,307.071C139.126,304.985 136.713,305.018 136.179,307.169C123.579,366.454 124.429,366.621 110.114,425.502C109.051,430.021 106.084,432.451 101.294,432.451L83.655,432.451C78.865,432.451 75.898,430.021 74.835,425.502C67.838,396.722 67.721,396.774 61.878,371.719C58.156,355.759 53.638,336.107 48.936,316.72C48.406,314.867 45.993,315.311 45.993,317.203C45.985,352.946 45.978,388.69 45.97,424.433C45.97,429.511 43.246,432.451 37.952,432.451L8.018,432.451C2.724,432.451 0,429.511 0,424.433L0,263.441C-0,259.795 4.099,259.045 8.019,258.986C29.731,258.657 49.628,256.969 63.396,255.549Z" style="fill:url(#_Linear11);fill-rule:nonzero;"/><path d="M343.632,267.052C343.67,248.371 340.637,234.444 328.096,226.391C317.791,219.773 300.77,216.979 276.693,219.898C255.787,222.432 236.32,228.469 224.499,238.576C213.016,248.393 209.323,261.363 209.295,281.12C209.222,309.496 209.149,337.872 209.076,366.247C208.996,396.857 216.516,409.836 223.819,418.089C239.951,436.32 265.896,437.262 276.087,437.262C292.522,437.262 315.493,434.107 329.933,416.23C336.598,407.978 343.165,395.342 343.284,362.909C343.4,330.956 343.516,299.004 343.632,267.052ZM297.383,342.964C297.27,373.043 295.991,388.674 276.117,388.821C256.129,388.968 255.035,373.268 255.131,344.941C255.189,327.311 255.246,309.682 255.304,292.053C255.375,266.081 256.414,254.129 276.512,251.796C296.706,249.451 297.663,261.317 297.582,287.851C297.516,306.222 297.45,324.593 297.383,342.964Z" style="fill:url(#_Linear12);fill-rule:nonzero;"/><path d="M415.142,220.764C419.321,221.183 422.508,222.459 424.449,225.378C439.162,248.99 445.346,267.809 460.469,320.884C460.541,321.114 461.262,323.445 462.465,323.135C462.975,323.003 463.67,322.158 463.677,320.07C463.721,302.013 463.765,283.955 463.809,265.898C463.814,259.678 463.804,247.355 463.918,231.711C463.952,227.02 470.403,228 471.953,228.243C484.543,230.219 496.819,232.322 501.809,233.18C505.584,233.83 509.799,235.298 509.776,239.195C509.411,301.727 509.411,409.614 509.411,424.433C509.411,429.511 506.687,432.451 501.393,432.451L462.105,432.451C457.579,432.451 454.611,430.555 452.751,426.304C436.628,386.828 436.413,384.499 416.695,312.897C416.625,312.665 415.904,310.257 414.7,310.607C414.198,310.753 413.494,311.634 413.486,313.842C413.31,361.671 413.195,380.614 413.195,424.433C413.195,429.511 410.471,432.451 405.177,432.451L375.243,432.451C370.191,432.451 367.225,429.486 367.225,424.433C367.225,388.991 367.24,389.002 367.547,310.088C367.784,248.986 367.591,248.995 367.836,222.506C367.881,217.646 374.515,217.908 375.897,217.963C392.844,218.636 407.781,220.027 415.142,220.764Z" style="fill:url(#_Linear13);fill-rule:nonzero;"/><path d="M573.773,245.722C577.666,246.37 581.767,247.801 581.754,251.549C581.694,309.177 581.634,366.805 581.574,424.433C581.574,429.511 578.85,432.451 573.556,432.451L544.156,432.451C539.104,432.451 536.138,429.486 536.138,424.433C536.138,303.753 536.362,258.296 536.433,243.849C536.456,239.344 542.709,240.368 544.453,240.675C550.386,241.719 562.317,243.813 573.773,245.722Z" style="fill:url(#_Linear14);fill-rule:nonzero;"/><path d="M651.098,296.46C651.097,290.906 648.04,288.344 643.087,287.843C627.305,286.244 613.002,284.314 605.724,283.3C600.39,282.557 597.718,278.934 597.72,274.85C597.731,267.913 597.742,260.977 597.753,254.04C597.765,249.706 603.806,250.455 605.766,250.74C664.866,259.32 703.398,260.343 742.477,258.051C746.258,257.829 750.495,258.218 750.493,261.895C750.491,268.739 750.489,275.583 750.487,282.427C750.487,286.394 748.168,289.932 742.469,290.274C729.357,291.06 716.682,291.406 705.051,291.348C699.308,291.32 697.035,294.593 697.035,299.194C697.034,340.94 697.034,382.686 697.033,424.433C697.033,429.511 694.309,432.451 689.015,432.451L659.081,432.451C654.028,432.451 651.063,429.486 651.063,424.433C651.075,381.775 651.086,339.117 651.098,296.46Z" style="fill:url(#_Linear15);fill-rule:nonzero;"/><path d="M895.345,284.483C895.345,253.781 887.886,237.321 828.269,246.135C770.285,254.708 761.177,271.928 761.177,302.851L761.177,372.027C761.177,386.338 762.617,437.262 828.261,437.262C838.358,437.262 864.109,436.339 880.255,418.394C888.368,409.377 895.345,395.977 895.345,367.174L895.345,284.483ZM849.376,352.508C849.376,376.993 848.093,390.641 828.261,390.894C808.273,391.149 807.147,377.488 807.147,355.147L807.147,312.682C807.147,290.191 808.614,279.092 828.262,276.107C848.031,273.104 849.376,283.843 849.376,307.313L849.376,352.508Z" style="fill:url(#_Linear16);fill-rule:nonzero;"/><path d="M1031.92,352.88C1031.34,350.776 1031.78,348.814 1032.72,347.75C1034.81,345.498 1053.03,328.32 1053.03,271.931C1053.03,248.149 1049.67,236.274 1038.7,229.73C1032.7,226.154 1019.16,221.028 986.217,224.68C965.215,227.009 944.55,230.028 927.688,232.649C922.792,233.41 919.402,235.775 919.402,238.317C919.401,300.266 919.4,362.216 919.4,424.166C919.4,428.952 922.899,432.451 927.685,432.451L957.619,432.451C962.405,432.451 965.904,428.952 965.904,424.166L965.904,377.158C965.904,370.876 969.448,366.06 974.189,365.924C977.753,365.827 981.316,365.731 984.88,365.634C986.125,365.603 986.92,367.217 987.018,367.417C999.567,400.363 1003.4,406.655 1014.81,428.709C1015.87,431.077 1018.27,432.451 1020.96,432.451L1051.43,432.451C1059.7,432.451 1063.99,424.957 1060.25,418.018C1052.16,402.992 1047.59,395.393 1031.92,352.88ZM987.82,255.9C1001.84,254.333 1007.06,255.96 1007.06,274.515C1007.06,296.987 999.726,299.174 987.82,300.218C986.729,300.314 981.165,300.802 974.189,301.483C969.441,301.946 965.904,297.61 965.904,291.34L965.904,267.349C965.904,262.154 969.219,258.149 974.189,257.523C981.165,256.644 986.729,256.022 987.82,255.9Z" style="fill:url(#_Linear17);fill-rule:nonzero;"/></g></g><path d="M225.97,30.813C225.97,34.938 226.845,46 241.658,46C256.47,46 257.345,34.938 257.345,30.813L257.345,22.375C257.345,21.125 256.72,20.5 255.47,20.5L242.97,20.5C241.783,20.5 241.095,21.125 241.095,22.375L241.095,27.375C241.095,28.562 241.783,29.25 242.97,29.25L246.595,29.25C246.595,32.313 246.283,35.25 241.658,35.25C237.033,35.25 236.72,32.313 236.72,27.5L236.72,18.5C236.72,13.687 237.033,10.75 241.658,10.75C245.22,10.75 246.283,12.5 246.533,15.5C246.658,16.812 247.345,17.375 248.595,17.125L255.658,15.562C256.783,15.312 257.345,14.625 257.283,13.5C256.97,8.625 254.783,0 241.658,0C226.845,0 225.97,11.062 225.97,15.187L225.97,30.813Z" style="fill:rgb(255,90,199);fill-rule:nonzero;"/><path d="M293.158,42.75C293.158,44.125 292.533,44.875 291.283,44.875L284.283,44.875C283.095,44.875 282.408,44.25 282.408,43L282.408,37.563C282.408,36.313 281.783,35.688 280.533,35.688L275.158,35.688C273.97,35.688 273.283,36.313 273.283,37.563L273.283,43C273.283,44.25 272.658,44.875 271.408,44.875L264.408,44.875C263.22,44.875 262.533,44.125 262.533,42.75L262.533,16.25C262.533,8.375 263.783,0 277.845,0C291.908,0 293.158,8.375 293.158,16.25L293.158,42.75ZM282.408,16.25C282.408,13.25 281.97,11.75 277.845,11.75C273.72,11.75 273.283,13.25 273.283,16.25L273.283,23.062C273.283,24.25 273.97,24.937 275.158,24.937L280.533,24.937C281.783,24.875 282.408,24.25 282.408,23L282.408,16.25Z" style="fill:rgb(255,90,199);fill-rule:nonzero;"/><path d="M328.033,15.062C329.158,14.812 329.72,14.125 329.658,13C329.283,8.5 326.283,0.125 313.408,0.125C299.408,0.125 298.283,11.187 298.345,13.062C298.345,27.437 317.158,26.25 318.345,31.563C318.72,33.25 316.47,35.063 313.408,35.063C310.47,35.063 308.158,33.313 307.908,30.313C307.783,29 307.095,28.437 305.845,28.687L298.783,30.25C297.658,30.5 297.095,31.188 297.158,32.313C297.47,37.188 300.283,45.813 313.408,45.813C328.22,45.813 330.345,34.75 330.345,32.875C330.345,18.5 310.595,18.625 309.72,13.75C309.47,12.312 310.97,10.875 313.408,10.875C316.345,10.875 318.408,12.5 318.845,15.062C319.033,16.312 319.658,16.875 320.908,16.625L328.033,15.062Z" style="fill:rgb(255,90,199);fill-rule:nonzero;"/><path d="M364.658,1.125C365.72,1.125 366.408,1.562 366.845,2.562L375.345,23.375C375.595,23.937 376.095,23.812 376.095,23.187L376.095,3C376.095,1.75 376.783,1.125 377.97,1.125L384.97,1.125C386.22,1.125 386.845,1.75 386.845,3L386.845,43C386.845,44.188 386.22,44.875 384.97,44.875L375.783,44.875C374.72,44.875 374.033,44.438 373.595,43.438L365.095,22.625C364.845,22.062 364.345,22.187 364.345,22.813L364.345,43C364.345,44.188 363.72,44.875 362.47,44.875L355.47,44.875C354.283,44.875 353.595,44.188 353.595,43L353.595,3C353.595,1.75 354.283,1.125 355.47,1.125L364.658,1.125Z" style="fill:rgb(255,90,199);fill-rule:nonzero;"/><path d="M423.845,15.187C423.845,11.062 422.97,0 408.158,0C393.345,0 392.47,11.062 392.47,15.187L392.47,30.813C392.47,34.938 393.345,46 408.158,46C422.97,46 423.845,34.938 423.845,30.813L423.845,15.187ZM413.095,27.5C413.095,32.313 412.783,35.25 408.158,35.25C403.533,35.25 403.22,32.313 403.22,27.5L403.22,18.5C403.22,13.687 403.533,10.75 408.158,10.75C412.783,10.75 413.095,13.687 413.095,18.5L413.095,27.5Z" style="fill:rgb(255,90,199);fill-rule:nonzero;"/><path d="M438.845,13.75C438.845,12.5 438.22,11.875 436.97,11.875L428.22,11.875C427.033,11.875 426.345,11.187 426.345,10L426.345,3C426.345,1.75 427.033,1.125 428.22,1.125L460.22,1.125C461.47,1.125 462.095,1.75 462.095,3L462.095,10C462.095,11.187 461.47,11.875 460.22,11.875L451.47,11.875C450.283,11.875 449.595,12.5 449.595,13.75L449.595,43C449.595,44.188 448.97,44.875 447.72,44.875L440.72,44.875C439.533,44.875 438.845,44.188 438.845,43L438.845,13.75Z" style="fill:rgb(255,90,199);fill-rule:nonzero;"/><path d="M493.97,1.125C495.22,1.125 495.845,1.75 495.845,3L495.845,10C495.845,11.187 495.22,11.875 493.97,11.875L478.845,11.875C477.658,11.875 476.97,12.5 476.97,13.75L476.97,15.75C476.97,16.937 477.658,17.625 478.845,17.625L488.533,17.625C489.783,17.625 490.408,18.25 490.408,19.5L490.408,26.5C490.408,27.687 489.783,28.375 488.533,28.375L478.845,28.375C477.658,28.375 476.97,29 476.97,30.25L476.97,32.25C476.97,33.438 477.658,34.125 478.845,34.125L493.97,34.125C495.22,34.125 495.845,34.75 495.845,36L495.845,43C495.845,44.25 495.22,44.875 493.97,44.875L467.72,44.875C466.533,44.875 465.845,44.188 465.845,43L465.845,3C465.845,1.75 466.533,1.125 467.72,1.125L493.97,1.125Z" style="fill:rgb(255,90,199);fill-rule:nonzero;"/><path d="M528.345,15.062C529.47,14.812 530.033,14.125 529.97,13C529.595,8.5 526.595,0.125 513.72,0.125C499.72,0.125 498.595,11.187 498.658,13.062C498.658,27.437 517.47,26.25 518.658,31.563C519.033,33.25 516.783,35.063 513.72,35.063C510.783,35.063 508.47,33.313 508.22,30.313C508.095,29 507.408,28.437 506.158,28.687L499.095,30.25C497.97,30.5 497.408,31.188 497.47,32.313C497.783,37.188 500.595,45.813 513.72,45.813C528.533,45.813 530.658,34.75 530.658,32.875C530.658,18.5 510.908,18.625 510.033,13.75C509.783,12.312 511.283,10.875 513.72,10.875C516.658,10.875 518.72,12.5 519.158,15.062C519.345,16.312 519.97,16.875 521.22,16.625L528.345,15.062Z" style="fill:rgb(255,90,199);fill-rule:nonzero;"/><path d="M555.783,1.125C554.533,1.187 553.908,1.812 553.908,3.062L553.908,43C553.908,44.188 554.595,44.875 555.783,44.875L562.783,44.875C564.033,44.875 564.658,44.25 564.658,43L564.658,33C564.658,31.75 565.345,31.125 566.533,31.125L569.533,31.125C580.658,31.125 585.158,26.375 585.158,16.125C585.158,5.875 580.658,1.125 569.533,1.125L555.783,1.125ZM566.533,20.375C565.345,20.375 564.658,19.687 564.658,18.5L564.658,13.75C564.658,12.5 565.345,11.875 566.533,11.875L569.908,11.875C572.908,11.875 574.408,12.25 574.408,16.125C574.408,20 572.908,20.375 569.908,20.375L566.533,20.375Z" style="fill:rgb(255,90,199);fill-rule:nonzero;"/><path d="M615.345,29.188C615.22,28.875 615.283,28.562 615.533,28.375C618.845,26 620.283,21.937 620.283,16.125C620.283,5.875 615.783,1.125 604.658,1.125L590.97,1.125C589.845,1.125 589.033,1.937 589.033,3.062L589.033,42.938C589.033,44.063 589.845,44.875 590.97,44.875L597.97,44.875C599.095,44.875 599.908,44.063 599.908,42.938L599.908,33.063C599.908,31.938 600.72,31.125 601.845,31.125L604.345,31.125C604.533,31.125 604.72,31.25 604.845,31.438L611.345,44C611.595,44.563 612.158,44.875 612.783,44.875L619.908,44.875C621.845,44.875 622.845,43.125 621.97,41.5L615.345,29.188ZM605.033,11.875C608.033,11.875 609.533,12.25 609.533,16.125C609.533,20 608.033,20.375 605.033,20.375L601.845,20.375C600.72,20.375 599.908,19.562 599.908,18.437L599.908,13.812C599.908,12.687 600.72,11.875 601.845,11.875L605.033,11.875Z" style="fill:rgb(255,90,199);fill-rule:nonzero;"/><path d="M654.22,1.125C655.47,1.125 656.095,1.75 656.095,3L656.095,10C656.095,11.187 655.47,11.875 654.22,11.875L639.095,11.875C637.908,11.875 637.22,12.5 637.22,13.75L637.22,15.75C637.22,16.937 637.908,17.625 639.095,17.625L648.783,17.625C650.033,17.625 650.658,18.25 650.658,19.5L650.658,26.5C650.658,27.687 650.033,28.375 648.783,28.375L639.095,28.375C637.908,28.375 637.22,29 637.22,30.25L637.22,32.25C637.22,33.438 637.908,34.125 639.095,34.125L654.22,34.125C655.47,34.125 656.095,34.75 656.095,36L656.095,43C656.095,44.25 655.47,44.875 654.22,44.875L627.97,44.875C626.783,44.875 626.095,44.188 626.095,43L626.095,3C626.095,1.75 626.783,1.125 627.97,1.125L654.22,1.125Z" style="fill:rgb(255,90,199);fill-rule:nonzero;"/><path d="M688.595,15.062C689.72,14.812 690.283,14.125 690.22,13C689.845,8.5 686.845,0.125 673.97,0.125C659.97,0.125 658.845,11.187 658.908,13.062C658.908,27.437 677.72,26.25 678.908,31.563C679.283,33.25 677.033,35.063 673.97,35.063C671.033,35.063 668.72,33.313 668.47,30.313C668.345,29 667.658,28.437 666.408,28.687L659.345,30.25C658.22,30.5 657.658,31.188 657.72,32.313C658.033,37.188 660.845,45.813 673.97,45.813C688.783,45.813 690.908,34.75 690.908,32.875C690.908,18.5 671.158,18.625 670.283,13.75C670.033,12.312 671.533,10.875 673.97,10.875C676.908,10.875 678.97,12.5 679.408,15.062C679.595,16.312 680.22,16.875 681.47,16.625L688.595,15.062Z" style="fill:rgb(255,90,199);fill-rule:nonzero;"/><path d="M723.533,1.125C724.783,1.125 725.408,1.75 725.408,3L725.408,10C725.408,11.187 724.783,11.875 723.533,11.875L708.408,11.875C707.22,11.875 706.533,12.5 706.533,13.75L706.533,15.75C706.533,16.937 707.22,17.625 708.408,17.625L718.095,17.625C719.345,17.625 719.97,18.25 719.97,19.5L719.97,26.5C719.97,27.687 719.345,28.375 718.095,28.375L708.408,28.375C707.22,28.375 706.533,29 706.533,30.25L706.533,32.25C706.533,33.438 707.22,34.125 708.408,34.125L723.533,34.125C724.783,34.125 725.408,34.75 725.408,36L725.408,43C725.408,44.25 724.783,44.875 723.533,44.875L697.283,44.875C696.095,44.875 695.408,44.188 695.408,43L695.408,3C695.408,1.75 696.095,1.125 697.283,1.125L723.533,1.125Z" style="fill:rgb(255,90,199);fill-rule:nonzero;"/><path d="M741.283,1.125C742.345,1.125 743.033,1.562 743.47,2.562L751.97,23.375C752.22,23.937 752.72,23.812 752.72,23.187L752.72,3C752.72,1.75 753.408,1.125 754.595,1.125L761.595,1.125C762.845,1.125 763.47,1.75 763.47,3L763.47,43C763.47,44.188 762.845,44.875 761.595,44.875L752.408,44.875C751.345,44.875 750.658,44.438 750.22,43.438L741.72,22.625C741.47,22.062 740.97,22.187 740.97,22.813L740.97,43C740.97,44.188 740.345,44.875 739.095,44.875L732.095,44.875C730.908,44.875 730.22,44.188 730.22,43L730.22,3C730.22,1.75 730.908,1.125 732.095,1.125L741.283,1.125Z" style="fill:rgb(255,90,199);fill-rule:nonzero;"/><path d="M779.72,13.75C779.72,12.5 779.095,11.875 777.845,11.875L769.095,11.875C767.908,11.875 767.22,11.187 767.22,10L767.22,3C767.22,1.75 767.908,1.125 769.095,1.125L801.095,1.125C802.345,1.125 802.97,1.75 802.97,3L802.97,10C802.97,11.187 802.345,11.875 801.095,11.875L792.345,11.875C791.158,11.875 790.47,12.5 790.47,13.75L790.47,43C790.47,44.188 789.845,44.875 788.595,44.875L781.595,44.875C780.408,44.875 779.72,44.188 779.72,43L779.72,13.75Z" style="fill:rgb(255,90,199);fill-rule:nonzero;"/><path d="M833.783,15.062C834.908,14.812 835.47,14.125 835.408,13C835.033,8.5 832.033,0.125 819.158,0.125C805.158,0.125 804.033,11.187 804.095,13.062C804.095,27.437 822.908,26.25 824.095,31.563C824.47,33.25 822.22,35.063 819.158,35.063C816.22,35.063 813.908,33.313 813.658,30.313C813.533,29 812.845,28.437 811.595,28.687L804.533,30.25C803.408,30.5 802.845,31.188 802.908,32.313C803.22,37.188 806.033,45.813 819.158,45.813C833.97,45.813 836.095,34.75 836.095,32.875C836.095,18.5 816.345,18.625 815.47,13.75C815.22,12.312 816.72,10.875 819.158,10.875C822.095,10.875 824.158,12.5 824.595,15.062C824.783,16.312 825.408,16.875 826.658,16.625L833.783,15.062Z" style="fill:rgb(255,90,199);fill-rule:nonzero;"/><path d="M80.04,486.922C80.04,488.022 79.54,488.622 78.54,488.622L72.94,488.622C71.99,488.622 71.44,488.122 71.44,487.122L71.44,482.772C71.44,481.772 70.94,481.272 69.94,481.272L65.64,481.272C64.69,481.272 64.14,481.772 64.14,482.772L64.14,487.122C64.14,488.122 63.64,488.622 62.64,488.622L57.04,488.622C56.09,488.622 55.54,488.022 55.54,486.922L55.54,465.722C55.54,459.422 56.54,452.722 67.79,452.722C79.04,452.722 80.04,459.422 80.04,465.722L80.04,486.922ZM71.44,465.722C71.44,463.322 71.09,462.122 67.79,462.122C64.49,462.122 64.14,463.322 64.14,465.722L64.14,471.172C64.14,472.122 64.69,472.672 65.64,472.672L69.94,472.672C70.94,472.622 71.44,472.122 71.44,471.122L71.44,465.722Z" style="fill:rgb(255,136,5);fill-rule:nonzero;"/><path d="M122.79,453.622C123.79,453.622 124.29,454.122 124.29,455.122L124.29,460.722C124.29,461.672 123.79,462.222 122.79,462.222L110.19,462.222C109.24,462.222 108.69,462.722 108.69,463.722L108.69,465.322C108.69,466.272 109.24,466.822 110.19,466.822L118.44,466.822C119.44,466.822 119.94,467.322 119.94,468.322L119.94,473.922C119.94,474.872 119.44,475.422 118.44,475.422L110.19,475.422C109.24,475.422 108.69,475.922 108.69,476.922L108.69,487.122C108.69,488.072 108.19,488.622 107.19,488.622L101.29,488.622C100.34,488.622 99.79,488.072 99.79,487.122L99.79,455.122C99.79,454.122 100.34,453.622 101.29,453.622L122.79,453.622Z" style="fill:rgb(255,136,5);fill-rule:nonzero;"/><path d="M148.34,476.072C148.24,475.822 148.29,475.572 148.49,475.422C151.14,473.522 152.29,470.272 152.29,465.622C152.29,457.422 148.69,453.622 139.79,453.622L128.84,453.622C127.94,453.622 127.29,454.272 127.29,455.172L127.29,487.072C127.29,487.972 127.94,488.622 128.84,488.622L134.44,488.622C135.34,488.622 135.99,487.972 135.99,487.072L135.99,479.172C135.99,478.272 136.64,477.622 137.54,477.622L139.54,477.622C139.69,477.622 139.84,477.722 139.94,477.872L145.14,487.922C145.34,488.372 145.79,488.622 146.29,488.622L151.99,488.622C153.54,488.622 154.34,487.222 153.64,485.922L148.34,476.072ZM140.09,462.222C142.49,462.222 143.69,462.522 143.69,465.622C143.69,468.722 142.49,469.022 140.09,469.022L137.54,469.022C136.64,469.022 135.99,468.372 135.99,467.472L135.99,463.772C135.99,462.872 136.64,462.222 137.54,462.222L140.09,462.222Z" style="fill:rgb(255,136,5);fill-rule:nonzero;"/><path d="M179.44,453.622C180.44,453.622 180.94,454.122 180.94,455.122L180.94,460.722C180.94,461.672 180.44,462.222 179.44,462.222L167.34,462.222C166.39,462.222 165.84,462.722 165.84,463.722L165.84,465.322C165.84,466.272 166.39,466.822 167.34,466.822L175.09,466.822C176.09,466.822 176.59,467.322 176.59,468.322L176.59,473.922C176.59,474.872 176.09,475.422 175.09,475.422L167.34,475.422C166.39,475.422 165.84,475.922 165.84,476.922L165.84,478.522C165.84,479.472 166.39,480.022 167.34,480.022L179.44,480.022C180.44,480.022 180.94,480.522 180.94,481.522L180.94,487.122C180.94,488.122 180.44,488.622 179.44,488.622L158.44,488.622C157.49,488.622 156.94,488.072 156.94,487.122L156.94,455.122C156.94,454.122 157.49,453.622 158.44,453.622L179.44,453.622Z" style="fill:rgb(255,136,5);fill-rule:nonzero;"/><path d="M207.29,453.622C208.29,453.622 208.79,454.122 208.79,455.122L208.79,460.722C208.79,461.672 208.29,462.222 207.29,462.222L195.19,462.222C194.24,462.222 193.69,462.722 193.69,463.722L193.69,465.322C193.69,466.272 194.24,466.822 195.19,466.822L202.94,466.822C203.94,466.822 204.44,467.322 204.44,468.322L204.44,473.922C204.44,474.872 203.94,475.422 202.94,475.422L195.19,475.422C194.24,475.422 193.69,475.922 193.69,476.922L193.69,478.522C193.69,479.472 194.24,480.022 195.19,480.022L207.29,480.022C208.29,480.022 208.79,480.522 208.79,481.522L208.79,487.122C208.79,488.122 208.29,488.622 207.29,488.622L186.29,488.622C185.34,488.622 184.79,488.072 184.79,487.122L184.79,455.122C184.79,454.122 185.34,453.622 186.29,453.622L207.29,453.622Z" style="fill:rgb(255,136,5);fill-rule:nonzero;"/><path d="M235.64,463.722C235.64,462.722 235.14,462.222 234.14,462.222L227.14,462.222C226.19,462.222 225.64,461.672 225.64,460.722L225.64,455.122C225.64,454.122 226.19,453.622 227.14,453.622L252.74,453.622C253.74,453.622 254.24,454.122 254.24,455.122L254.24,460.722C254.24,461.672 253.74,462.222 252.74,462.222L245.74,462.222C244.79,462.222 244.24,462.722 244.24,463.722L244.24,487.122C244.24,488.072 243.74,488.622 242.74,488.622L237.14,488.622C236.19,488.622 235.64,488.072 235.64,487.122L235.64,463.722Z" style="fill:rgb(255,136,5);fill-rule:nonzero;"/><path d="M281.34,464.872C281.34,461.572 280.64,452.722 268.79,452.722C256.94,452.722 256.24,461.572 256.24,464.872L256.24,477.372C256.24,480.672 256.94,489.522 268.79,489.522C280.64,489.522 281.34,480.672 281.34,477.372L281.34,464.872ZM272.74,474.722C272.74,478.572 272.49,480.922 268.79,480.922C265.09,480.922 264.84,478.572 264.84,474.722L264.84,467.522C264.84,463.672 265.09,461.322 268.79,461.322C272.49,461.322 272.74,463.672 272.74,467.522L272.74,474.722Z" style="fill:rgb(255,136,5);fill-rule:nonzero;"/><path d="M310.44,464.872C310.44,461.572 309.74,452.722 297.89,452.722C286.04,452.722 285.34,461.572 285.34,464.872L285.34,477.372C285.34,480.672 286.04,489.522 297.89,489.522C309.74,489.522 310.44,480.672 310.44,477.372L310.44,464.872ZM301.84,474.722C301.84,478.572 301.59,480.922 297.89,480.922C294.19,480.922 293.94,478.572 293.94,474.722L293.94,467.522C293.94,463.672 294.19,461.322 297.89,461.322C301.59,461.322 301.84,463.672 301.84,467.522L301.84,474.722Z" style="fill:rgb(255,136,5);fill-rule:nonzero;"/><path d="M322.04,453.622C323.04,453.622 323.54,454.122 323.54,455.122L323.54,478.522C323.54,479.472 324.09,480.022 325.04,480.022L336.19,480.022C337.19,480.022 337.69,480.522 337.69,481.522L337.69,487.122C337.69,488.122 337.19,488.622 336.19,488.622L316.44,488.622C315.49,488.622 314.94,488.072 314.94,487.122L314.94,455.122C314.94,454.122 315.49,453.622 316.44,453.622L322.04,453.622Z" style="fill:rgb(255,136,5);fill-rule:nonzero;"/><path d="M378.79,453.622C379.79,453.622 380.29,454.122 380.29,455.122L380.29,460.722C380.29,461.672 379.79,462.222 378.79,462.222L366.19,462.222C365.24,462.222 364.69,462.722 364.69,463.722L364.69,465.322C364.69,466.272 365.24,466.822 366.19,466.822L374.44,466.822C375.44,466.822 375.94,467.322 375.94,468.322L375.94,473.922C375.94,474.872 375.44,475.422 374.44,475.422L366.19,475.422C365.24,475.422 364.69,475.922 364.69,476.922L364.69,487.122C364.69,488.072 364.19,488.622 363.19,488.622L357.29,488.622C356.34,488.622 355.79,488.072 355.79,487.122L355.79,455.122C355.79,454.122 356.34,453.622 357.29,453.622L378.79,453.622Z" style="fill:rgb(255,136,5);fill-rule:nonzero;"/><path d="M407.39,464.872C407.39,461.572 406.69,452.722 394.84,452.722C382.99,452.722 382.29,461.572 382.29,464.872L382.29,477.372C382.29,480.672 382.99,489.522 394.84,489.522C406.69,489.522 407.39,480.672 407.39,477.372L407.39,464.872ZM398.79,474.722C398.79,478.572 398.54,480.922 394.84,480.922C391.14,480.922 390.89,478.572 390.89,474.722L390.89,467.522C390.89,463.672 391.14,461.322 394.84,461.322C398.54,461.322 398.79,463.672 398.79,467.522L398.79,474.722Z" style="fill:rgb(255,136,5);fill-rule:nonzero;"/><path d="M432.94,476.072C432.84,475.822 432.89,475.572 433.09,475.422C435.74,473.522 436.89,470.272 436.89,465.622C436.89,457.422 433.29,453.622 424.39,453.622L413.44,453.622C412.54,453.622 411.89,454.272 411.89,455.172L411.89,487.072C411.89,487.972 412.54,488.622 413.44,488.622L419.04,488.622C419.94,488.622 420.59,487.972 420.59,487.072L420.59,479.172C420.59,478.272 421.24,477.622 422.14,477.622L424.14,477.622C424.29,477.622 424.44,477.722 424.54,477.872L429.74,487.922C429.94,488.372 430.39,488.622 430.89,488.622L436.59,488.622C438.14,488.622 438.94,487.222 438.24,485.922L432.94,476.072ZM424.69,462.222C427.09,462.222 428.29,462.522 428.29,465.622C428.29,468.722 427.09,469.022 424.69,469.022L422.14,469.022C421.24,469.022 420.59,468.372 420.59,467.472L420.59,463.772C420.59,462.872 421.24,462.222 422.14,462.222L424.69,462.222Z" style="fill:rgb(255,136,5);fill-rule:nonzero;"/><path d="M463.64,453.622C464.59,453.622 465.14,454.172 465.14,455.122L465.14,467.622C465.14,468.572 465.69,469.122 466.64,469.122L471.44,469.122C472.44,469.122 472.94,468.572 472.94,467.622L472.94,455.122C472.94,454.172 473.49,453.622 474.44,453.622L480.04,453.622C481.04,453.622 481.54,454.122 481.54,455.122L481.54,487.122C481.54,488.072 481.04,488.622 480.04,488.622L474.44,488.622C473.49,488.622 472.94,488.072 472.94,487.122L472.94,479.222C472.94,478.222 472.44,477.722 471.44,477.722L466.64,477.722C465.69,477.722 465.14,478.222 465.14,479.222L465.14,487.122C465.14,488.072 464.64,488.622 463.64,488.622L458.04,488.622C457.09,488.622 456.54,488.072 456.54,487.122L456.54,455.122C456.54,454.122 457.04,453.622 458.04,453.622L463.64,453.622Z" style="fill:rgb(255,136,5);fill-rule:nonzero;"/><path d="M509.04,453.622C510.04,453.622 510.54,454.122 510.54,455.122L510.54,460.722C510.54,461.672 510.04,462.222 509.04,462.222L496.94,462.222C495.99,462.222 495.44,462.722 495.44,463.722L495.44,465.322C495.44,466.272 495.99,466.822 496.94,466.822L504.69,466.822C505.69,466.822 506.19,467.322 506.19,468.322L506.19,473.922C506.19,474.872 505.69,475.422 504.69,475.422L496.94,475.422C495.99,475.422 495.44,475.922 495.44,476.922L495.44,478.522C495.44,479.472 495.99,480.022 496.94,480.022L509.04,480.022C510.04,480.022 510.54,480.522 510.54,481.522L510.54,487.122C510.54,488.122 510.04,488.622 509.04,488.622L488.04,488.622C487.09,488.622 486.54,488.072 486.54,487.122L486.54,455.122C486.54,454.122 487.09,453.622 488.04,453.622L509.04,453.622Z" style="fill:rgb(255,136,5);fill-rule:nonzero;"/><path d="M538.64,486.922C538.64,488.022 538.14,488.622 537.14,488.622L531.54,488.622C530.59,488.622 530.04,488.122 530.04,487.122L530.04,482.772C530.04,481.772 529.54,481.272 528.54,481.272L524.24,481.272C523.29,481.272 522.74,481.772 522.74,482.772L522.74,487.122C522.74,488.122 522.24,488.622 521.24,488.622L515.64,488.622C514.69,488.622 514.14,488.022 514.14,486.922L514.14,465.722C514.14,459.422 515.14,452.722 526.39,452.722C537.64,452.722 538.64,459.422 538.64,465.722L538.64,486.922ZM530.04,465.722C530.04,463.322 529.69,462.122 526.39,462.122C523.09,462.122 522.74,463.322 522.74,465.722L522.74,471.172C522.74,472.122 523.29,472.672 524.24,472.672L528.54,472.672C529.54,472.622 530.04,472.122 530.04,471.122L530.04,465.722Z" style="fill:rgb(255,136,5);fill-rule:nonzero;"/><path d="M550.49,453.622C551.49,453.622 551.99,454.122 551.99,455.122L551.99,478.522C551.99,479.472 552.54,480.022 553.49,480.022L564.64,480.022C565.64,480.022 566.14,480.522 566.14,481.522L566.14,487.122C566.14,488.122 565.64,488.622 564.64,488.622L544.89,488.622C543.94,488.622 543.39,488.072 543.39,487.122L543.39,455.122C543.39,454.122 543.94,453.622 544.89,453.622L550.49,453.622Z" style="fill:rgb(255,136,5);fill-rule:nonzero;"/><path d="M577.24,463.722C577.24,462.722 576.74,462.222 575.74,462.222L568.74,462.222C567.79,462.222 567.24,461.672 567.24,460.722L567.24,455.122C567.24,454.122 567.79,453.622 568.74,453.622L594.34,453.622C595.34,453.622 595.84,454.122 595.84,455.122L595.84,460.722C595.84,461.672 595.34,462.222 594.34,462.222L587.34,462.222C586.39,462.222 585.84,462.722 585.84,463.722L585.84,487.122C585.84,488.072 585.34,488.622 584.34,488.622L578.74,488.622C577.79,488.622 577.24,488.072 577.24,487.122L577.24,463.722Z" style="fill:rgb(255,136,5);fill-rule:nonzero;"/><path d="M605.94,453.622C606.89,453.622 607.44,454.172 607.44,455.122L607.44,467.622C607.44,468.572 607.99,469.122 608.94,469.122L613.74,469.122C614.74,469.122 615.24,468.572 615.24,467.622L615.24,455.122C615.24,454.172 615.79,453.622 616.74,453.622L622.34,453.622C623.34,453.622 623.84,454.122 623.84,455.122L623.84,487.122C623.84,488.072 623.34,488.622 622.34,488.622L616.74,488.622C615.79,488.622 615.24,488.072 615.24,487.122L615.24,479.222C615.24,478.222 614.74,477.722 613.74,477.722L608.94,477.722C607.99,477.722 607.44,478.222 607.44,479.222L607.44,487.122C607.44,488.072 606.94,488.622 605.94,488.622L600.34,488.622C599.39,488.622 598.84,488.072 598.84,487.122L598.84,455.122C598.84,454.122 599.34,453.622 600.34,453.622L605.94,453.622Z" style="fill:rgb(255,136,5);fill-rule:nonzero;"/><path d="M628.34,477.372C628.34,480.672 629.04,489.522 640.89,489.522C651.54,489.522 653.19,482.372 653.39,478.572C653.44,477.822 652.99,477.272 652.29,477.122L646.64,475.872C645.64,475.622 644.84,476.272 644.69,477.322C644.39,479.622 643.64,480.922 640.89,480.922C637.19,480.922 636.94,478.572 636.94,474.722L636.94,467.522C636.94,463.672 637.19,461.322 640.89,461.322C643.59,461.322 644.49,462.622 644.74,464.822C644.89,465.872 645.69,466.572 646.74,466.372L652.29,465.122C652.99,464.972 653.44,464.422 653.39,463.722C653.19,459.872 651.54,452.722 640.89,452.722C629.04,452.722 628.34,461.572 628.34,464.872L628.34,477.372Z" style="fill:rgb(255,136,5);fill-rule:nonzero;"/><path d="M681.09,486.922C681.09,488.022 680.59,488.622 679.59,488.622L673.99,488.622C673.04,488.622 672.49,488.122 672.49,487.122L672.49,482.772C672.49,481.772 671.99,481.272 670.99,481.272L666.69,481.272C665.74,481.272 665.19,481.772 665.19,482.772L665.19,487.122C665.19,488.122 664.69,488.622 663.69,488.622L658.09,488.622C657.14,488.622 656.59,488.022 656.59,486.922L656.59,465.722C656.59,459.422 657.59,452.722 668.84,452.722C680.09,452.722 681.09,459.422 681.09,465.722L681.09,486.922ZM672.49,465.722C672.49,463.322 672.14,462.122 668.84,462.122C665.54,462.122 665.19,463.322 665.19,465.722L665.19,471.172C665.19,472.122 665.74,472.672 666.69,472.672L670.99,472.672C671.99,472.622 672.49,472.122 672.49,471.122L672.49,465.722Z" style="fill:rgb(255,136,5);fill-rule:nonzero;"/><path d="M706.89,476.072C706.79,475.822 706.84,475.572 707.04,475.422C709.69,473.522 710.84,470.272 710.84,465.622C710.84,457.422 707.24,453.622 698.34,453.622L687.39,453.622C686.49,453.622 685.84,454.272 685.84,455.172L685.84,487.072C685.84,487.972 686.49,488.622 687.39,488.622L692.99,488.622C693.89,488.622 694.54,487.972 694.54,487.072L694.54,479.172C694.54,478.272 695.19,477.622 696.09,477.622L698.09,477.622C698.24,477.622 698.39,477.722 698.49,477.872L703.69,487.922C703.89,488.372 704.34,488.622 704.84,488.622L710.54,488.622C712.09,488.622 712.89,487.222 712.19,485.922L706.89,476.072ZM698.64,462.222C701.04,462.222 702.24,462.522 702.24,465.622C702.24,468.722 701.04,469.022 698.64,469.022L696.09,469.022C695.19,469.022 694.54,468.372 694.54,467.472L694.54,463.772C694.54,462.872 695.19,462.222 696.09,462.222L698.64,462.222Z" style="fill:rgb(255,136,5);fill-rule:nonzero;"/><path d="M737.99,453.622C738.99,453.622 739.49,454.122 739.49,455.122L739.49,460.722C739.49,461.672 738.99,462.222 737.99,462.222L725.89,462.222C724.94,462.222 724.39,462.722 724.39,463.722L724.39,465.322C724.39,466.272 724.94,466.822 725.89,466.822L733.64,466.822C734.64,466.822 735.14,467.322 735.14,468.322L735.14,473.922C735.14,474.872 734.64,475.422 733.64,475.422L725.89,475.422C724.94,475.422 724.39,475.922 724.39,476.922L724.39,478.522C724.39,479.472 724.94,480.022 725.89,480.022L737.99,480.022C738.99,480.022 739.49,480.522 739.49,481.522L739.49,487.122C739.49,488.122 738.99,488.622 737.99,488.622L716.99,488.622C716.04,488.622 715.49,488.072 715.49,487.122L715.49,455.122C715.49,454.122 716.04,453.622 716.99,453.622L737.99,453.622Z" style="fill:rgb(255,136,5);fill-rule:nonzero;"/><path d="M780.84,453.622C781.84,453.622 782.34,454.122 782.34,455.122L782.34,460.722C782.34,461.672 781.84,462.222 780.84,462.222L768.74,462.222C767.79,462.222 767.24,462.722 767.24,463.722L767.24,465.322C767.24,466.272 767.79,466.822 768.74,466.822L776.49,466.822C777.49,466.822 777.99,467.322 777.99,468.322L777.99,473.922C777.99,474.872 777.49,475.422 776.49,475.422L768.74,475.422C767.79,475.422 767.24,475.922 767.24,476.922L767.24,478.522C767.24,479.472 767.79,480.022 768.74,480.022L780.84,480.022C781.84,480.022 782.34,480.522 782.34,481.522L782.34,487.122C782.34,488.122 781.84,488.622 780.84,488.622L759.84,488.622C758.89,488.622 758.34,488.072 758.34,487.122L758.34,455.122C758.34,454.122 758.89,453.622 759.84,453.622L780.84,453.622Z" style="fill:rgb(255,136,5);fill-rule:nonzero;"/><path d="M787.69,453.622C786.69,453.672 786.19,454.172 786.19,455.172L786.19,487.122C786.19,488.072 786.74,488.622 787.69,488.622L798.84,488.622C808.24,488.622 811.34,484.772 811.34,476.572L811.34,465.622C811.34,457.422 808.24,453.622 798.84,453.622L787.69,453.622ZM796.29,480.022C795.34,480.022 794.79,479.472 794.79,478.522L794.79,463.722C794.79,462.722 795.34,462.222 796.29,462.222L798.99,462.222C801.39,462.222 802.59,462.522 802.59,465.622L802.59,476.622C802.59,479.622 801.39,480.022 798.99,480.022L796.29,480.022Z" style="fill:rgb(255,136,5);fill-rule:nonzero;"/><path d="M817.04,453.622C816.09,453.622 815.54,454.122 815.54,455.122L815.54,477.372C815.54,480.672 816.24,489.522 828.09,489.522C839.94,489.522 840.64,480.672 840.64,477.372L840.64,455.122C840.64,454.122 840.14,453.622 839.14,453.622L833.54,453.622C832.59,453.622 832.04,454.122 832.04,455.122L832.04,474.722C832.04,478.572 831.79,480.922 828.09,480.922C824.39,480.922 824.14,478.572 824.14,474.722L824.14,455.122C824.14,454.122 823.64,453.622 822.64,453.622L817.04,453.622Z" style="fill:rgb(255,136,5);fill-rule:nonzero;"/><path d="M844.84,477.372C844.84,480.672 845.54,489.522 857.39,489.522C868.04,489.522 869.69,482.372 869.89,478.572C869.94,477.822 869.49,477.272 868.79,477.122L863.14,475.872C862.14,475.622 861.34,476.272 861.19,477.322C860.89,479.622 860.14,480.922 857.39,480.922C853.69,480.922 853.44,478.572 853.44,474.722L853.44,467.522C853.44,463.672 853.69,461.322 857.39,461.322C860.09,461.322 860.99,462.622 861.24,464.822C861.39,465.872 862.19,466.572 863.24,466.372L868.79,465.122C869.49,464.972 869.94,464.422 869.89,463.722C869.69,459.872 868.04,452.722 857.39,452.722C845.54,452.722 844.84,461.572 844.84,464.872L844.84,477.372Z" style="fill:rgb(255,136,5);fill-rule:nonzero;"/><path d="M897.59,486.922C897.59,488.022 897.09,488.622 896.09,488.622L890.49,488.622C889.54,488.622 888.99,488.122 888.99,487.122L888.99,482.772C888.99,481.772 888.49,481.272 887.49,481.272L883.19,481.272C882.24,481.272 881.69,481.772 881.69,482.772L881.69,487.122C881.69,488.122 881.19,488.622 880.19,488.622L874.59,488.622C873.64,488.622 873.09,488.022 873.09,486.922L873.09,465.722C873.09,459.422 874.09,452.722 885.34,452.722C896.59,452.722 897.59,459.422 897.59,465.722L897.59,486.922ZM888.99,465.722C888.99,463.322 888.64,462.122 885.34,462.122C882.04,462.122 881.69,463.322 881.69,465.722L881.69,471.172C881.69,472.122 882.24,472.672 883.19,472.672L887.49,472.672C888.49,472.622 888.99,472.122 888.99,471.122L888.99,465.722Z" style="fill:rgb(255,136,5);fill-rule:nonzero;"/><path d="M909.34,463.722C909.34,462.722 908.84,462.222 907.84,462.222L900.84,462.222C899.89,462.222 899.34,461.672 899.34,460.722L899.34,455.122C899.34,454.122 899.89,453.622 900.84,453.622L926.44,453.622C927.44,453.622 927.94,454.122 927.94,455.122L927.94,460.722C927.94,461.672 927.44,462.222 926.44,462.222L919.44,462.222C918.49,462.222 917.94,462.722 917.94,463.722L917.94,487.122C917.94,488.072 917.44,488.622 916.44,488.622L910.84,488.622C909.89,488.622 909.34,488.072 909.34,487.122L909.34,463.722Z" style="fill:rgb(255,136,5);fill-rule:nonzero;"/><path d="M955.04,464.872C955.04,461.572 954.34,452.722 942.49,452.722C930.64,452.722 929.94,461.572 929.94,464.872L929.94,477.372C929.94,480.672 930.64,489.522 942.49,489.522C954.34,489.522 955.04,480.672 955.04,477.372L955.04,464.872ZM946.44,474.722C946.44,478.572 946.19,480.922 942.49,480.922C938.79,480.922 938.54,478.572 938.54,474.722L938.54,467.522C938.54,463.672 938.79,461.322 942.49,461.322C946.19,461.322 946.44,463.672 946.44,467.522L946.44,474.722Z" style="fill:rgb(255,136,5);fill-rule:nonzero;"/><path d="M980.59,476.072C980.49,475.822 980.54,475.572 980.74,475.422C983.39,473.522 984.54,470.272 984.54,465.622C984.54,457.422 980.94,453.622 972.04,453.622L961.09,453.622C960.19,453.622 959.54,454.272 959.54,455.172L959.54,487.072C959.54,487.972 960.19,488.622 961.09,488.622L966.69,488.622C967.59,488.622 968.24,487.972 968.24,487.072L968.24,479.172C968.24,478.272 968.89,477.622 969.79,477.622L971.79,477.622C971.94,477.622 972.09,477.722 972.19,477.872L977.39,487.922C977.59,488.372 978.04,488.622 978.54,488.622L984.24,488.622C985.79,488.622 986.59,487.222 985.89,485.922L980.59,476.072ZM972.34,462.222C974.74,462.222 975.94,462.522 975.94,465.622C975.94,468.722 974.74,469.022 972.34,469.022L969.79,469.022C968.89,469.022 968.24,468.372 968.24,467.472L968.24,463.772C968.24,462.872 968.89,462.222 969.79,462.222L972.34,462.222Z" style="fill:rgb(255,136,5);fill-rule:nonzero;"/><path d="M1011.59,464.772C1012.49,464.572 1012.94,464.022 1012.89,463.122C1012.59,459.522 1010.19,452.822 999.89,452.822C988.69,452.822 987.79,461.672 987.84,463.172C987.84,474.672 1002.89,473.722 1003.84,477.972C1004.14,479.322 1002.34,480.772 999.89,480.772C997.54,480.772 995.69,479.372 995.49,476.972C995.39,475.922 994.84,475.472 993.84,475.672L988.19,476.922C987.29,477.122 986.84,477.672 986.89,478.572C987.14,482.472 989.39,489.372 999.89,489.372C1011.74,489.372 1013.44,480.522 1013.44,479.022C1013.44,467.522 997.64,467.622 996.94,463.722C996.74,462.572 997.94,461.422 999.89,461.422C1002.24,461.422 1003.89,462.722 1004.24,464.772C1004.39,465.772 1004.89,466.222 1005.89,466.022L1011.59,464.772Z" style="fill:rgb(255,136,5);fill-rule:nonzero;"/><defs><linearGradient id="_Linear1" x1="0" y1="0" x2="1" y2="0" gradientUnits="userSpaceOnUse" gradientTransform="matrix(1266.47,-474.289,474.289,1266.47,21.2341,408.66)"><stop offset="0" style="stop-color:rgb(254,145,25);stop-opacity:1"/><stop offset="0.32" style="stop-color:rgb(252,69,117);stop-opacity:1"/><stop offset="1" style="stop-color:rgb(157,0,205);stop-opacity:1"/></linearGradient><linearGradient id="_Linear2" x1="0" y1="0" x2="1" y2="0" gradientUnits="userSpaceOnUse" gradientTransform="matrix(1266.47,-474.289,474.289,1266.47,21.2341,408.66)"><stop offset="0" style="stop-color:rgb(254,145,25);stop-opacity:1"/><stop offset="0.32" style="stop-color:rgb(252,69,117);stop-opacity:1"/><stop offset="1" style="stop-color:rgb(157,0,205);stop-opacity:1"/></linearGradient><linearGradient id="_Linear3" x1="0" y1="0" x2="1" y2="0" gradientUnits="userSpaceOnUse" gradientTransform="matrix(1266.47,-474.289,474.289,1266.47,21.2341,408.66)"><stop offset="0" style="stop-color:rgb(254,145,25);stop-opacity:1"/><stop offset="0.32" style="stop-color:rgb(252,69,117);stop-opacity:1"/><stop offset="1" style="stop-color:rgb(157,0,205);stop-opacity:1"/></linearGradient><linearGradient id="_Linear4" x1="0" y1="0" x2="1" y2="0" gradientUnits="userSpaceOnUse" gradientTransform="matrix(1266.47,-474.289,474.289,1266.47,21.2341,408.66)"><stop offset="0" style="stop-color:rgb(254,145,25);stop-opacity:1"/><stop offset="0.32" style="stop-color:rgb(252,69,117);stop-opacity:1"/><stop offset="1" style="stop-color:rgb(157,0,205);stop-opacity:1"/></linearGradient><linearGradient id="_Linear5" x1="0" y1="0" x2="1" y2="0" gradientUnits="userSpaceOnUse" gradientTransform="matrix(1266.47,-474.289,474.289,1266.47,21.2341,408.66)"><stop offset="0" style="stop-color:rgb(254,145,25);stop-opacity:1"/><stop offset="0.32" style="stop-color:rgb(252,69,117);stop-opacity:1"/><stop offset="1" style="stop-color:rgb(157,0,205);stop-opacity:1"/></linearGradient><linearGradient id="_Linear6" x1="0" y1="0" x2="1" y2="0" gradientUnits="userSpaceOnUse" gradientTransform="matrix(1266.47,-474.289,474.289,1266.47,21.2341,408.66)"><stop offset="0" style="stop-color:rgb(254,145,25);stop-opacity:1"/><stop offset="0.32" style="stop-color:rgb(252,69,117);stop-opacity:1"/><stop offset="1" style="stop-color:rgb(157,0,205);stop-opacity:1"/></linearGradient><linearGradient id="_Linear7" x1="0" y1="0" x2="1" y2="0" gradientUnits="userSpaceOnUse" gradientTransform="matrix(1266.47,-474.289,474.289,1266.47,21.2341,408.66)"><stop offset="0" style="stop-color:rgb(254,145,25);stop-opacity:1"/><stop offset="0.32" style="stop-color:rgb(252,69,117);stop-opacity:1"/><stop offset="1" style="stop-color:rgb(157,0,205);stop-opacity:1"/></linearGradient><linearGradient id="_Linear8" x1="0" y1="0" x2="1" y2="0" gradientUnits="userSpaceOnUse" gradientTransform="matrix(1266.47,-474.289,474.289,1266.47,21.2341,408.66)"><stop offset="0" style="stop-color:rgb(254,145,25);stop-opacity:1"/><stop offset="0.32" style="stop-color:rgb(252,69,117);stop-opacity:1"/><stop offset="1" style="stop-color:rgb(157,0,205);stop-opacity:1"/></linearGradient><linearGradient id="_Linear9" x1="0" y1="0" x2="1" y2="0" gradientUnits="userSpaceOnUse" gradientTransform="matrix(1266.47,-474.289,474.289,1266.47,21.2341,408.66)"><stop offset="0" style="stop-color:rgb(254,145,25);stop-opacity:1"/><stop offset="0.32" style="stop-color:rgb(252,69,117);stop-opacity:1"/><stop offset="1" style="stop-color:rgb(157,0,205);stop-opacity:1"/></linearGradient><linearGradient id="_Linear10" x1="0" y1="0" x2="1" y2="0" gradientUnits="userSpaceOnUse" gradientTransform="matrix(1266.47,-474.289,474.289,1266.47,21.2341,408.66)"><stop offset="0" style="stop-color:rgb(254,145,25);stop-opacity:1"/><stop offset="0.32" style="stop-color:rgb(252,69,117);stop-opacity:1"/><stop offset="1" style="stop-color:rgb(157,0,205);stop-opacity:1"/></linearGradient><linearGradient id="_Linear11" x1="0" y1="0" x2="1" y2="0" gradientUnits="userSpaceOnUse" gradientTransform="matrix(1692.43,-633.809,633.809,1692.43,-159.533,704.529)"><stop offset="0" style="stop-color:rgb(254,145,25);stop-opacity:1"/><stop offset="0.32" style="stop-color:rgb(252,69,117);stop-opacity:1"/><stop offset="1" style="stop-color:rgb(157,0,205);stop-opacity:1"/></linearGradient><linearGradient id="_Linear12" x1="0" y1="0" x2="1" y2="0" gradientUnits="userSpaceOnUse" gradientTransform="matrix(1692.43,-633.809,633.809,1692.43,-159.533,704.529)"><stop offset="0" style="stop-color:rgb(254,145,25);stop-opacity:1"/><stop offset="0.32" style="stop-color:rgb(252,69,117);stop-opacity:1"/><stop offset="1" style="stop-color:rgb(157,0,205);stop-opacity:1"/></linearGradient><linearGradient id="_Linear13" x1="0" y1="0" x2="1" y2="0" gradientUnits="userSpaceOnUse" gradientTransform="matrix(1692.43,-633.809,633.809,1692.43,-159.533,704.529)"><stop offset="0" style="stop-color:rgb(254,145,25);stop-opacity:1"/><stop offset="0.32" style="stop-color:rgb(252,69,117);stop-opacity:1"/><stop offset="1" style="stop-color:rgb(157,0,205);stop-opacity:1"/></linearGradient><linearGradient id="_Linear14" x1="0" y1="0" x2="1" y2="0" gradientUnits="userSpaceOnUse" gradientTransform="matrix(1692.43,-633.809,633.809,1692.43,-159.533,704.529)"><stop offset="0" style="stop-color:rgb(254,145,25);stop-opacity:1"/><stop offset="0.32" style="stop-color:rgb(252,69,117);stop-opacity:1"/><stop offset="1" style="stop-color:rgb(157,0,205);stop-opacity:1"/></linearGradient><linearGradient id="_Linear15" x1="0" y1="0" x2="1" y2="0" gradientUnits="userSpaceOnUse" gradientTransform="matrix(1692.43,-633.809,633.809,1692.43,-159.533,704.529)"><stop offset="0" style="stop-color:rgb(254,145,25);stop-opacity:1"/><stop offset="0.32" style="stop-color:rgb(252,69,117);stop-opacity:1"/><stop offset="1" style="stop-color:rgb(157,0,205);stop-opacity:1"/></linearGradient><linearGradient id="_Linear16" x1="0" y1="0" x2="1" y2="0" gradientUnits="userSpaceOnUse" gradientTransform="matrix(1692.43,-633.809,633.809,1692.43,-159.533,704.529)"><stop offset="0" style="stop-color:rgb(254,145,25);stop-opacity:1"/><stop offset="0.32" style="stop-color:rgb(252,69,117);stop-opacity:1"/><stop offset="1" style="stop-color:rgb(157,0,205);stop-opacity:1"/></linearGradient><linearGradient id="_Linear17" x1="0" y1="0" x2="1" y2="0" gradientUnits="userSpaceOnUse" gradientTransform="matrix(1692.43,-633.809,633.809,1692.43,-159.533,704.529)"><stop offset="0" style="stop-color:rgb(254,145,25);stop-opacity:1"/><stop offset="0.32" style="stop-color:rgb(252,69,117);stop-opacity:1"/><stop offset="1" style="stop-color:rgb(157,0,205);stop-opacity:1"/></linearGradient></defs></svg>