<svg clip-rule="evenodd" fill-rule="evenodd" height="376" stroke-linejoin="round" stroke-miterlimit="2" width="1062" xmlns="http://www.w3.org/2000/svg" xmlns:xlink="http://www.w3.org/1999/xlink"><linearGradient id="a"><stop offset="0" stop-color="#fe9119"/><stop offset=".32" stop-color="#fc4575"/><stop offset="1" stop-color="#9d00cd"/></linearGradient><linearGradient id="b" gradientTransform="matrix(1266.47 -474.289 474.289 1266.47 21.2341 347.2)" gradientUnits="userSpaceOnUse" x1="0" x2="1" xlink:href="#a" y1="0" y2="0"/><linearGradient id="c" gradientTransform="matrix(1692.43 -633.809 633.809 1692.43 -159.533 643.069)" gradientUnits="userSpaceOnUse" x1="0" x2="1" xlink:href="#a" y1="0" y2="0"/><g fill-rule="nonzero"><g fill="url(#b)"><path d="m98.881 59.176c5.165-1.843 5.283-6.937 5.188-9.085-1.649-25.238-13.687-35.981-16.162-38.19-6.293-5.616-16.961-11.484-35.892-11.486-21.518-.003-31.027 8.44-35.217 12.971-11.996 12.97-13.097 34.561-12.984 39.489.002 68.486 60.282 59.235 64.098 79.254 1.197 6.318-5.928 13.54-15.838 14.475-8.687.819-16.787-3.779-17.629-16.398-.443-5.809-3.012-7.418-6.609-6.278-9.239 3.182-17.235 5.702-22.619 7.319-3.711 1.119-5.395 4.058-5.202 8.167.952 17.558 7.471 39.4 52.056 35.277 33.342-3.083 43.901-17.01 46.685-20.803 7.455-10.161 7.67-21.593 7.67-21.948-.013-26.863-16.508-40.232-25.699-46.509-17.765-12.133-38.907-17.129-40.505-29.71-.796-6.465 3.907-12.947 11.798-13.088 9.128-.162 15.981 6.405 17.428 18.051.461 4.219 1.858 8.237 6.616 6.648 2.136-.771 12.716-4.591 22.817-8.156z"/><path d="m148.615 3.707c5.072-.011 6.002 3.402 6.006 6.355.059 45.617.478 94.75.371 143.459-.005 2.49-1.758 4.459-6.032 5.223-1.424.255-11.742 2.103-22.079 3.847-3.985.673-6.017-.566-6.013-3.106-.084-49.73-.168-99.461-.252-149.191-.003-5.068 2.887-6.538 5.998-6.543 7.334-.015 14.667-.03 22.001-.044z"/><path d="m222.019 3.545c4.423-.008 5.859 3.043 6.412 5.375 4.28 17.428 9.321 38.836 14.642 60.499.415 2.055 2.024 1.899 2.405-.236 4.049-18.508 8.709-39.769 13.756-60.413.564-2.392 2.038-5.284 6.386-5.288 13.8 0 27.6-.001 41.4-.001 2.7.002 5.997.891 6.018 5.794.177 42.142 1.116 71.155.864 119.886-.02 3.918-4.071 4.582-6.035 4.749-6.318.538-14.285 1.322-22.447 2.269-4.007.465-6.004-.924-5.992-3.527.122-25.735-.026-42.483-.374-74.786-.015-1.381-1.821-1.473-2.205-.057-10.814 47.089-14.531 64.354-19.086 78.37-1.009 3.203-4.127 4.256-6.638 4.638-1.06.161-6.403.974-13.243 2.084-2.225.361-5.577.466-6.606-2.541-.846-2.389-4.641-11.241-19.743-77.294-.408-1.523-2.213-1.143-2.203.428.243 35.096.359 54.234.27 80.045-.008 2.445-1.664 4.482-6.038 5.267-7.495 1.364-14.989 2.727-22.483 4.09-1.721.316-6.021.885-6.01-3.055.127-47.893-.365-94.165-.445-139.929-.005-3.155 1.105-6.266 5.993-6.278 13.8-.029 27.601-.059 41.402-.089z"/><path d="m337.819 3.532c-3.866-.01-5.998 2.043-5.982 5.798.118 28.346.69 55.396.877 83.347.163 24.326 10.94 31.339 12.835 32.714 6.126 4.446 16.301 8.48 37.33 9.632 13.408.734 28.775.228 38.047-6.152 2.061-1.418 12.221-7.724 12.083-31.249-.171-29.083-.659-59.463-.772-88.321-.014-3.71-1.868-5.827-6.017-5.828-7.467.002-14.933.003-22.4.005-3.896.003-5.998 2.068-5.982 5.792.105 24.929.542 50.241.766 74.695.137 14.907-.913 23.54-15.638 22.705-14.668-.832-15.782-9.58-15.926-24.392-.234-24.017-.702-47.864-.804-72.9-.015-3.637-1.825-5.832-6.018-5.819-9.619.03-9.596.005-22.399-.027z"/><path d="m479.419 3.533c4.747.009 6.004 2.847 6.013 6.032.09 31.178.523 69.012.633 100.446.014 3.946 2.311 6.478 5.995 7.124 14.934 2.617 30.954 5.585 44.428 8.064 1.935.356 5.98 1.553 5.98 7.286-.007 6.362-.014 12.725-.022 19.087-.008 3.311-2.796 3.632-5.99 3.041-25.326-4.693-52.333-9.765-78.726-13.811-3.884-.595-5.972-2.464-5.961-5.132.211-47.307-.575-82.213-.733-126.3-.014-3.952 2.242-5.877 5.984-5.872 7.466.012 14.932.023 22.399.035z"/><path d="m651.503 167.88c-.001 2.079-.906 4.552-5.991 4.003-6.158-.665-14.08-1.61-22.345-2.728-1.917-.26-5.982-1.123-5.978-4.908.002-4.702.004-9.403.006-14.104 0-3.084-1.451-6.094-5.981-6.772-8.23-1.23-15.773-2.469-17.143-2.694-4.061-.667-5.978 1.479-5.979 4.89-.003 4.717-.007 9.434-.011 14.151-.005 3.264-2.767 3.645-5.988 3.098-10.445-1.777-20.877-3.665-22.322-3.925-3.613-.653-5.973-2.541-5.966-5.798.069-30.612-.071-58.744-.218-92.822-.146-34.007 4.607-60.271 48.828-60.271 43.228-0 48.991 24.861 49.035 66.676.018 33.735.035 67.47.053 101.204zm-34.414-103.001c-.026-13.111-1.402-19.516-14.624-20.065-13.32-.553-14.57 5.761-14.534 18.099.027 9.531.055 19.061.083 28.591.021 7.725 5.18 8.363 6.004 8.465 1.372.17 8.921 1.104 17.156 2.039 5.072.241 5.978-3.924 5.972-7.62-.019-9.836-.038-19.672-.057-29.509z"/><path d="m698.422 56.129c-.001-3.408-.645-8.618-6.002-8.622-7.981-.006-17.747-.082-27.995-.256-3.587-.062-6-2.959-6.003-8.355-.004-9.457-.007-18.913-.011-28.369 0-1.578.147-6.718 6.002-6.724 34.134-.002 68.268-.005 102.402-.007 5.065.001 6 3.526 6.001 6.693.001 9.399.002 18.798.003 28.197.001 5.615-2.403 8.24-5.998 8.316-10.424.218-20.183.353-28 .42-2.723.024-6 1.584-5.998 8.621.004 38.302.009 76.603.014 114.904-.002 3.835-4.271 4.206-6.002 4.262-1.791.057-11.707.376-22.399.29-3.838-.031-5.997-1.535-5.996-4.126-.006-38.415-.012-76.829-.018-115.244z"/><path d="m812.815 3.773c5.084-.005 6 3.509 6.001 6.576.005 50.784.01 101.569.016 152.353-.001 3.729-4.092 4.571-6.001 4.826-8.423 1.127-16.204 2.08-21.998 2.746-3.941.453-6-.838-5.999-3.353-.006-52.151-.012-104.302-.018-156.453-.001-1.554.142-6.673 5.999-6.676 7.333-.006 14.667-.012 22-.019z"/><path d="m937.218 52.542c-.004-39.116-20.759-52.542-50.203-52.542-30.935 0-50.2 14.521-50.193 58.627.003 21.434.006 42.868.009 64.302.003 28.328 8.904 42.197 50.194 35.562 39.306-6.317 50.198-21.389 50.197-49.687-.002-18.754-.003-37.508-.004-56.262zm-34.394 49.08c.001 17.209-.83 27.114-15.797 29.462-14.955 2.346-15.799-7.352-15.8-25.35-.002-11.923-.003-23.847-.005-35.771-.003-19.624.983-31.116 15.796-31.681 14.946-.57 15.8 10.895 15.802 29.108.002 11.411.003 22.822.004 34.232z"/><path d="m990.615 3.51c3.407-.001 5.619 1.405 7 4.537 7.835 19.043 16.635 41.771 27.205 67.742.79 1.786 2.4 1.316 2.4-.718-.01-21.873-.01-43.746-.01-65.619 0-3.973 2.26-5.921 6-5.916 7.47.016 14.94.032 22.41.047 4.34.012 6 2.42 6 6.017v124.261c0 3.483-3.76 3.912-6 3.935-8.39.084-18.53.388-29.4 1.012-3.12.178-5.54-.388-7-2.53-5.36-8.399-8.56-16.024-13.6-27.897-5.717-13.439-10.608-25.636-13.603-33.191-.793-1.834-2.4-1.315-2.4.804 0 20.627 0 41.254.001 61.881 0 3.522-3.812 4.322-6 4.562-5.959.656-13.886 1.592-22.399 2.7-4.051.528-5.999-.746-5.999-3.141-.002-44.145-.003-88.291-.005-132.437 0-4.182 2.369-6.027 6-6.031z"/></g><path d="m63.396 194.089c2.419-.25 7.047-.431 8.562 3.064 4.487 9.969 7.906 18.241 18.975 66.518.533 2.848 2.696 2.525 3.211-.312 10.254-46.511 12.99-56.626 19.056-71.72 1.499-3.859 5.956-4.961 8.585-5.378 18.804-2.98 38.421-6.433 55.476-9.43 3.354-.589 8.036-.871 8.015 3.204-.327 63.489-.327 168.303-.327 182.938 0 5.078-2.724 8.018-8.018 8.018h-29.934c-5.053 0-8.018-2.965-8.018-8.018.048-39.121.096-78.242.144-117.362.003-2.086-2.41-2.053-2.944.098-12.6 59.285-11.75 59.452-26.065 118.333-1.063 4.519-4.03 6.949-8.82 6.949h-17.639c-4.79 0-7.757-2.43-8.82-6.949-6.997-28.78-7.114-28.728-12.957-53.783-3.722-15.96-8.24-35.612-12.942-54.999-.53-1.853-2.943-1.409-2.943.483-.008 35.743-.015 71.487-.023 107.23 0 5.078-2.724 8.018-8.018 8.018h-29.934c-5.294 0-8.018-2.94-8.018-8.018v-160.992c-0-3.646 4.099-4.396 8.019-4.455 21.712-.329 41.609-2.017 55.377-3.437z" fill="url(#c)"/><path d="m343.632 205.592c.038-18.681-2.995-32.608-15.536-40.661-10.305-6.618-27.326-9.412-51.403-6.494-20.906 2.535-40.373 8.572-52.194 18.679-11.483 9.817-15.176 22.787-15.204 42.544-.073 28.376-.146 56.752-.219 85.127-.08 30.61 7.44 43.589 14.743 51.842 16.132 18.231 42.077 19.173 52.268 19.173 16.435 0 39.406-3.155 53.846-21.032 6.665-8.252 13.232-20.888 13.351-53.321.116-31.953.232-63.905.348-95.857zm-46.249 75.912c-.113 30.079-1.392 45.71-21.266 45.857-19.988.147-21.082-15.553-20.986-43.88.058-17.63.115-35.259.173-52.889.071-25.971 1.11-37.923 21.208-40.256 20.194-2.345 21.151 9.521 21.07 36.055-.066 18.371-.132 36.742-.199 55.113z" fill="url(#c)"/><path d="m415.142 159.304c4.179.419 7.366 1.695 9.307 4.614 14.713 23.612 20.897 42.431 36.02 95.506.072.23.793 2.561 1.996 2.251.51-.132 1.205-.977 1.212-3.065.044-18.057.088-36.115.132-54.172.005-6.22-.005-18.544.109-34.187.034-4.692 6.485-3.711 8.035-3.468 12.59 1.976 24.866 4.079 29.856 4.937 3.775.65 7.99 2.118 7.967 6.015-.365 62.532-.365 170.419-.365 185.238 0 5.078-2.724 8.018-8.018 8.018h-39.288c-4.526 0-7.494-1.896-9.354-6.147-16.123-39.476-16.338-41.805-36.056-113.407-.07-.232-.791-2.64-1.995-2.29-.502.146-1.206 1.027-1.214 3.235-.176 47.829-.291 66.772-.291 110.591 0 5.078-2.724 8.018-8.018 8.018h-29.934c-5.052 0-8.018-2.965-8.018-8.018 0-35.442.015-35.431.322-114.345.237-61.102.044-61.093.289-87.582.045-4.86 6.679-4.598 8.061-4.543 16.947.673 31.884 2.064 39.245 2.801z" fill="url(#c)"/><path d="m573.773 184.262c3.893.648 7.994 2.079 7.981 5.827-.06 57.628-.12 115.256-.18 172.884 0 5.078-2.724 8.018-8.018 8.018h-29.4c-5.052 0-8.018-2.965-8.018-8.018 0-120.68.224-166.137.295-180.584.023-4.505 6.276-3.481 8.02-3.174 5.933 1.044 17.864 3.138 29.32 5.047z" fill="url(#c)"/><path d="m651.098 235c-.001-5.554-3.058-8.116-8.011-8.618-15.782-1.598-30.085-3.528-37.363-4.542-5.334-.743-8.006-4.366-8.004-8.45.011-6.937.022-13.873.033-20.81.012-4.334 6.053-3.585 8.013-3.3 59.1 8.58 97.632 9.603 136.711 7.311 3.781-.222 8.018.167 8.016 3.844-.002 6.844-.004 13.688-.006 20.532 0 3.967-2.319 7.505-8.018 7.847-13.112.786-25.787 1.132-37.418 1.074-5.743-.028-8.016 3.245-8.016 7.846-.001 41.746-.001 83.492-.002 125.239 0 5.078-2.724 8.018-8.018 8.018h-29.934c-5.053 0-8.018-2.965-8.018-8.018.012-42.658.023-85.316.035-127.973z" fill="url(#c)"/><path d="m895.345 223.022c0-30.701-7.459-47.161-67.076-38.347-57.984 8.573-67.092 25.793-67.092 56.716v69.176c0 14.311 1.44 65.235 67.084 65.235 10.097 0 35.848-.923 51.994-18.868 8.113-9.017 15.09-22.417 15.09-51.22zm-45.969 68.026c0 24.485-1.283 38.133-21.115 38.386-19.988.255-21.114-13.406-21.114-35.747v-42.465c0-22.491 1.467-33.59 21.115-36.575 19.769-3.003 21.114 7.736 21.114 31.206z" fill="url(#c)"/><path d="m1031.92 291.42c-.58-2.104-.14-4.066.8-5.13 2.09-2.252 20.31-19.43 20.31-75.819 0-23.782-3.36-35.657-14.33-42.201-6-3.576-19.54-8.702-52.483-5.05-21.002 2.329-41.667 5.348-58.529 7.969-4.896.761-8.286 3.126-8.286 5.668-.001 61.949-.002 123.899-.002 185.849 0 4.785 3.499 8.285 8.285 8.285h29.934c4.786 0 8.285-3.5 8.285-8.285v-47.008c0-6.282 3.544-11.098 8.285-11.234 3.564-.097 7.127-.193 10.691-.29 1.245-.031 2.04 1.583 2.138 1.783 12.549 32.946 16.382 39.238 27.792 61.292 1.06 2.368 3.46 3.742 6.15 3.742h30.47c8.27 0 12.56-7.494 8.82-14.433-8.09-15.026-12.66-22.625-28.33-65.138zm-44.1-96.98c14.02-1.567 19.24.06 19.24 18.615 0 22.472-7.334 24.659-19.24 25.703-1.091.096-6.655.584-13.631 1.265-4.748.463-8.285-3.873-8.285-10.143v-23.991c0-5.195 3.315-9.2 8.285-9.826 6.976-.879 12.54-1.501 13.631-1.623z" fill="url(#c)"/></g></svg>