<svg clip-rule="evenodd" fill-rule="evenodd" height="493" stroke-linejoin="round" stroke-miterlimit="2" width="1062" xmlns="http://www.w3.org/2000/svg" xmlns:xlink="http://www.w3.org/1999/xlink"><linearGradient id="a"><stop offset="0" stop-color="#fe9119"/><stop offset=".32" stop-color="#fc4575"/><stop offset="1" stop-color="#9d00cd"/></linearGradient><linearGradient id="b" gradientTransform="matrix(1266.47 -474.289 474.289 1266.47 21.2341 411.834)" gradientUnits="userSpaceOnUse" x1="0" x2="1" xlink:href="#a" y1="0" y2="0"/><linearGradient id="c" gradientTransform="matrix(1692.43 -633.809 633.809 1692.43 -159.533 707.703)" gradientUnits="userSpaceOnUse" x1="0" x2="1" xlink:href="#a" y1="0" y2="0"/><g fill-rule="nonzero"><path d="m98.881 123.81c5.165-1.843 5.283-6.937 5.188-9.084-1.649-25.239-13.687-35.982-16.162-38.191-6.293-5.616-16.961-11.484-35.892-11.486-21.518-.002-31.027 8.44-35.217 12.971-11.996 12.97-13.097 34.561-12.984 39.489.002 68.486 60.282 59.235 64.098 79.254 1.197 6.318-5.928 13.54-15.838 14.475-8.687.82-16.787-3.779-17.629-16.398-.443-5.808-3.012-7.417-6.609-6.278-9.239 3.183-17.235 5.703-22.619 7.319-3.711 1.119-5.395 4.058-5.202 8.167.952 17.558 7.471 39.4 52.056 35.277 33.342-3.083 43.901-17.009 46.685-20.803 7.455-10.16 7.67-21.592 7.67-21.947-.013-26.863-16.508-40.233-25.699-46.51-17.765-12.133-38.907-17.129-40.505-29.709-.796-6.465 3.907-12.948 11.798-13.089 9.128-.162 15.981 6.405 17.428 18.052.461 4.218 1.858 8.236 6.616 6.647 2.136-.771 12.716-4.591 22.817-8.156z" fill="url(#b)"/><path d="m148.615 68.341c5.072-.011 6.002 3.402 6.006 6.356.059 45.616.478 94.749.371 143.458-.005 2.49-1.758 4.459-6.032 5.224-1.424.254-11.742 2.102-22.079 3.846-3.985.673-6.017-.566-6.013-3.106-.084-49.73-.168-99.461-.252-149.191-.003-5.068 2.887-6.538 5.998-6.543 7.334-.015 14.667-.03 22.001-.044z" fill="url(#b)"/><path d="m222.019 68.179c4.423-.008 5.859 3.043 6.412 5.375 4.28 17.428 9.321 38.836 14.642 60.499.415 2.055 2.024 1.899 2.405-.236 4.049-18.508 8.709-39.769 13.756-60.413.564-2.392 2.038-5.284 6.386-5.287 13.8-.001 27.6-.002 41.4-.002 2.7.002 5.997.891 6.018 5.794.177 42.142 1.116 71.155.864 119.887-.02 3.917-4.071 4.581-6.035 4.749-6.318.537-14.285 1.321-22.447 2.268-4.007.465-6.004-.923-5.992-3.527.122-25.735-.026-42.483-.374-74.786-.015-1.381-1.821-1.473-2.205-.056-10.814 47.088-14.531 64.353-19.086 78.37-1.009 3.203-4.127 4.255-6.638 4.637-1.06.161-6.403.974-13.243 2.084-2.225.362-5.577.467-6.606-2.541-.846-2.389-4.641-11.241-19.743-77.294-.408-1.523-2.213-1.143-2.203.428.243 35.096.359 54.234.27 80.045-.008 2.445-1.664 4.482-6.038 5.267-7.495 1.364-14.989 2.727-22.483 4.091-1.721.315-6.021.884-6.01-3.056.127-47.893-.365-94.165-.445-139.929-.005-3.155 1.105-6.266 5.993-6.277 13.8-.03 27.601-.06 41.402-.09z" fill="url(#b)"/><path d="m337.819 68.166c-3.866-.01-5.998 2.043-5.982 5.798.118 28.346.69 55.397.877 83.347.163 24.327 10.94 31.339 12.835 32.714 6.126 4.447 16.301 8.48 37.33 9.632 13.408.734 28.775.228 38.047-6.152 2.061-1.418 12.221-7.723 12.083-31.248-.171-29.084-.659-59.463-.772-88.321-.014-3.711-1.868-5.828-6.017-5.829-7.467.002-14.933.003-22.4.005-3.896.003-5.998 2.068-5.982 5.792.105 24.93.542 50.241.766 74.695.137 14.907-.913 23.54-15.638 22.705-14.668-.831-15.782-9.579-15.926-24.392-.234-24.017-.702-47.864-.804-72.899-.015-3.637-1.825-5.833-6.018-5.82-9.619.03-9.596.005-22.399-.027z" fill="url(#b)"/><path d="m479.419 68.167c4.747.009 6.004 2.847 6.013 6.032.09 31.179.523 69.013.633 100.446.014 3.947 2.311 6.479 5.995 7.124 14.934 2.618 30.954 5.586 44.428 8.064 1.935.356 5.98 1.553 5.98 7.286-.007 6.363-.014 12.725-.022 19.087-.008 3.312-2.796 3.633-5.99 3.041-25.326-4.693-52.333-9.765-78.726-13.811-3.884-.595-5.972-2.464-5.961-5.131.211-47.308-.575-82.214-.733-126.3-.014-3.953 2.242-5.878 5.984-5.873 7.466.012 14.932.024 22.399.035z" fill="url(#b)"/><path d="m651.503 232.514c-.001 2.08-.906 4.553-5.991 4.004-6.158-.665-14.08-1.611-22.345-2.729-1.917-.259-5.982-1.123-5.978-4.908.002-4.702.004-9.403.006-14.104 0-3.084-1.451-6.094-5.981-6.772-8.23-1.23-15.773-2.469-17.143-2.694-4.061-.667-5.978 1.479-5.979 4.891-.003 4.716-.007 9.433-.011 14.15-.005 3.265-2.767 3.646-5.988 3.098-10.445-1.777-20.877-3.664-22.322-3.925-3.613-.653-5.973-2.541-5.966-5.798.069-30.612-.071-58.743-.218-92.822-.146-34.006 4.607-60.271 48.828-60.271 43.228 0 48.991 24.861 49.035 66.676.018 33.735.035 67.47.053 101.204zm-34.414-103c-.026-13.112-1.402-19.517-14.624-20.066-13.32-.553-14.57 5.761-14.534 18.099.027 9.531.055 19.061.083 28.591.021 7.725 5.18 8.363 6.004 8.465 1.372.17 8.921 1.104 17.156 2.039 5.072.241 5.978-3.924 5.972-7.619-.019-9.837-.038-19.673-.057-29.509z" fill="url(#b)"/><path d="m698.422 120.763c-.001-3.407-.645-8.618-6.002-8.622-7.981-.006-17.747-.081-27.995-.256-3.587-.061-6-2.959-6.003-8.355-.004-9.457-.007-18.913-.011-28.369 0-1.578.147-6.718 6.002-6.724 34.134-.002 68.268-.004 102.402-.007 5.065.002 6 3.526 6.001 6.693.001 9.399.002 18.798.003 28.197.001 5.615-2.403 8.241-5.998 8.316-10.424.218-20.183.353-28 .42-2.723.024-6 1.584-5.998 8.622.004 38.301.009 76.602.014 114.904-.002 3.834-4.271 4.205-6.002 4.261-1.791.057-11.707.376-22.399.291-3.838-.031-5.997-1.536-5.996-4.127-.006-38.415-.012-76.829-.018-115.244z" fill="url(#b)"/><path d="m812.815 68.407c5.084-.005 6 3.509 6.001 6.576.005 50.784.01 101.569.016 152.354-.001 3.728-4.092 4.57-6.001 4.825-8.423 1.127-16.204 2.08-21.998 2.746-3.941.454-6-.837-5.999-3.352-.006-52.151-.012-104.303-.018-156.454-.001-1.554.142-6.672 5.999-6.676 7.333-.006 14.667-.012 22-.019z" fill="url(#b)"/><path d="m937.218 117.176c-.004-39.116-20.759-52.542-50.203-52.542-30.935 0-50.2 14.521-50.193 58.627.003 21.434.006 42.868.009 64.302.003 28.328 8.904 42.198 50.194 35.562 39.306-6.317 50.198-21.389 50.197-49.687-.002-18.754-.003-37.508-.004-56.262zm-34.394 49.081c.001 17.209-.83 27.113-15.797 29.461-14.955 2.346-15.799-7.352-15.8-25.349-.002-11.924-.003-23.848-.005-35.772-.003-19.624.983-31.116 15.796-31.681 14.946-.57 15.8 10.896 15.802 29.108.002 11.411.003 22.822.004 34.233z" fill="url(#b)"/><path d="m990.615 68.144c3.407-.001 5.619 1.405 7 4.537 7.835 19.043 16.635 41.771 27.205 67.742.79 1.786 2.4 1.316 2.4-.718-.01-21.873-.01-43.746-.01-65.619 0-3.973 2.26-5.921 6-5.915 7.47.015 14.94.031 22.41.046 4.34.012 6 2.42 6 6.017v124.261c0 3.483-3.76 3.912-6 3.935-8.39.084-18.53.389-29.4 1.012-3.12.178-5.54-.387-7-2.53-5.36-8.398-8.56-16.024-13.6-27.897-5.717-13.439-10.608-25.636-13.603-33.191-.793-1.834-2.4-1.315-2.4.804 0 20.627 0 41.254.001 61.881 0 3.523-3.812 4.322-6 4.563-5.959.655-13.886 1.591-22.399 2.7-4.051.527-5.999-.746-5.999-3.141-.002-44.146-.003-88.292-.005-132.438 0-4.182 2.369-6.027 6-6.031z" fill="url(#b)"/><path d="m63.396 258.723c2.419-.25 7.047-.431 8.562 3.064 4.487 9.969 7.906 18.242 18.975 66.518.533 2.849 2.696 2.525 3.211-.312 10.254-46.511 12.99-56.626 19.056-71.72 1.499-3.858 5.956-4.961 8.585-5.377 18.804-2.981 38.421-6.434 55.476-9.43 3.354-.59 8.036-.872 8.015 3.203-.327 63.489-.327 168.303-.327 182.938 0 5.079-2.724 8.018-8.018 8.018h-29.934c-5.053 0-8.018-2.965-8.018-8.018.048-39.121.096-78.241.144-117.362.003-2.085-2.41-2.053-2.944.098-12.6 59.285-11.75 59.452-26.065 118.333-1.063 4.519-4.03 6.949-8.82 6.949h-17.639c-4.79 0-7.757-2.43-8.82-6.949-6.997-28.78-7.114-28.728-12.957-53.783-3.722-15.96-8.24-35.612-12.942-54.999-.53-1.853-2.943-1.409-2.943.483-.008 35.744-.015 71.487-.023 107.23 0 5.079-2.724 8.018-8.018 8.018h-29.934c-5.294 0-8.018-2.939-8.018-8.018v-160.992c-0-3.646 4.099-4.396 8.019-4.455 21.712-.328 41.609-2.016 55.377-3.437z" fill="url(#c)"/><path d="m343.632 270.226c.038-18.681-2.995-32.608-15.536-40.661-10.305-6.617-27.326-9.412-51.403-6.493-20.906 2.534-40.373 8.571-52.194 18.678-11.483 9.817-15.176 22.787-15.204 42.545-.073 28.375-.146 56.751-.219 85.126-.08 30.61 7.44 43.589 14.743 51.842 16.132 18.231 42.077 19.173 52.268 19.173 16.435 0 39.406-3.155 53.846-21.032 6.665-8.252 13.232-20.888 13.351-53.321.116-31.952.232-63.905.348-95.857zm-46.249 75.912c-.113 30.079-1.392 45.711-21.266 45.857-19.988.147-21.082-15.553-20.986-43.88.058-17.629.115-35.259.173-52.888.071-25.972 1.11-37.924 21.208-40.257 20.194-2.345 21.151 9.521 21.07 36.055-.066 18.371-.132 36.742-.199 55.113z" fill="url(#c)"/><path d="m415.142 223.939c4.179.418 7.366 1.694 9.307 4.613 14.713 23.612 20.897 42.431 36.02 95.507.072.229.793 2.56 1.996 2.25.51-.132 1.205-.977 1.212-3.065.044-18.057.088-36.115.132-54.172.005-6.219-.005-18.543.109-34.187.034-4.691 6.485-3.711 8.035-3.468 12.59 1.976 24.866 4.079 29.856 4.937 3.775.65 7.99 2.118 7.967 6.015-.365 62.532-.365 170.419-.365 185.238 0 5.079-2.724 8.018-8.018 8.018h-39.288c-4.526 0-7.494-1.895-9.354-6.147-16.123-39.476-16.338-41.805-36.056-113.406-.07-.233-.791-2.641-1.995-2.291-.502.146-1.206 1.027-1.214 3.235-.176 47.829-.291 66.772-.291 110.591 0 5.079-2.724 8.018-8.018 8.018h-29.934c-5.052 0-8.018-2.965-8.018-8.018 0-35.441.015-35.43.322-114.345.237-61.102.044-61.093.289-87.581.045-4.861 6.679-4.598 8.061-4.544 16.947.673 31.884 2.064 39.245 2.802z" fill="url(#c)"/><path d="m573.773 248.896c3.893.648 7.994 2.08 7.981 5.827-.06 57.628-.12 115.256-.18 172.884 0 5.079-2.724 8.018-8.018 8.018h-29.4c-5.052 0-8.018-2.965-8.018-8.018 0-120.68.224-166.137.295-180.583.023-4.506 6.276-3.481 8.02-3.174 5.933 1.043 17.864 3.137 29.32 5.046z" fill="url(#c)"/><path d="m651.098 299.634c-.001-5.554-3.058-8.116-8.011-8.617-15.782-1.599-30.085-3.529-37.363-4.543-5.334-.743-8.006-4.365-8.004-8.45.011-6.937.022-13.873.033-20.81.012-4.334 6.053-3.584 8.013-3.3 59.1 8.58 97.632 9.603 136.711 7.311 3.781-.222 8.018.167 8.016 3.844-.002 6.844-.004 13.688-.006 20.532 0 3.968-2.319 7.505-8.018 7.847-13.112.787-25.787 1.132-37.418 1.074-5.743-.028-8.016 3.245-8.016 7.846-.001 41.746-.001 83.493-.002 125.239 0 5.079-2.724 8.018-8.018 8.018h-29.934c-5.053 0-8.018-2.965-8.018-8.018.012-42.658.023-85.315.035-127.973z" fill="url(#c)"/><path d="m895.345 287.657c0-30.702-7.459-47.162-67.076-38.348-57.984 8.573-67.092 25.793-67.092 56.717v69.175c0 14.312 1.44 65.235 67.084 65.235 10.097 0 35.848-.923 51.994-18.868 8.113-9.017 15.09-22.417 15.09-51.22zm-45.969 68.025c0 24.485-1.283 38.133-21.115 38.386-19.988.255-21.114-13.406-21.114-35.746v-42.466c0-22.49 1.467-33.59 21.115-36.575 19.769-3.003 21.114 7.736 21.114 31.206z" fill="url(#c)"/><path d="m1031.92 356.054c-.58-2.104-.14-4.066.8-5.13 2.09-2.252 20.31-19.429 20.31-75.819 0-23.781-3.36-35.657-14.33-42.201-6-3.576-19.54-8.702-52.483-5.05-21.002 2.329-41.667 5.348-58.529 7.969-4.896.761-8.286 3.126-8.286 5.668-.001 61.95-.002 123.899-.002 185.849 0 4.786 3.499 8.285 8.285 8.285h29.934c4.786 0 8.285-3.499 8.285-8.285v-47.008c0-6.282 3.544-11.098 8.285-11.234 3.564-.097 7.127-.193 10.691-.29 1.245-.031 2.04 1.584 2.138 1.783 12.549 32.946 16.382 39.238 27.792 61.292 1.06 2.368 3.46 3.742 6.15 3.742h30.47c8.27 0 12.56-7.494 8.82-14.432-8.09-15.027-12.66-22.626-28.33-65.139zm-44.1-96.98c14.02-1.567 19.24.06 19.24 18.615 0 22.473-7.334 24.659-19.24 25.703-1.091.096-6.655.584-13.631 1.265-4.748.464-8.285-3.873-8.285-10.143v-23.991c0-5.194 3.315-9.2 8.285-9.826 6.976-.879 12.54-1.501 13.631-1.623z" fill="url(#c)"/><path d="m373.768 32.867c0 4.4.934 16.2 16.734 16.2s16.733-11.8 16.733-16.2v-9c0-1.334-.667-2-2-2h-13.333c-1.267 0-2 .666-2 2v5.333c0 1.267.733 2 2 2h3.866c0 3.267-.333 6.4-5.266 6.4-4.934 0-5.267-3.133-5.267-8.267v-9.6c0-5.133.333-8.266 5.267-8.266 3.8 0 4.933 1.866 5.2 5.066.133 1.4.866 2 2.2 1.734l7.533-1.667c1.2-.267 1.8-1 1.733-2.2-.333-5.2-2.666-14.4-16.666-14.4-15.8 0-16.734 11.8-16.734 16.2z" fill="#ff5ac7"/><path d="m445.435 45.6c0 1.467-.667 2.267-2 2.267h-7.467c-1.266 0-2-.667-2-2v-5.8c0-1.334-.666-2-2-2h-5.733c-1.267 0-2 .666-2 2v5.8c0 1.333-.667 2-2 2h-7.467c-1.266 0-2-.8-2-2.267v-28.267c0-8.4 1.334-17.333 16.334-17.333s16.333 8.933 16.333 17.333zm-11.467-28.267c0-3.2-.466-4.8-4.866-4.8s-4.867 1.6-4.867 4.8v7.267c0 1.267.733 2 2 2h5.733c1.334-.067 2-.733 2-2.067z" fill="#ff5ac7"/><path d="m482.635 16.067c1.2-.267 1.8-1 1.733-2.2-.4-4.8-3.6-13.734-17.333-13.734-14.933 0-16.133 11.8-16.067 13.8 0 15.334 20.067 14.067 21.334 19.734.4 1.8-2 3.733-5.267 3.733-3.133 0-5.6-1.867-5.867-5.067-.133-1.4-.866-2-2.2-1.733l-7.533 1.667c-1.2.266-1.8 1-1.733 2.2.333 5.2 3.333 14.4 17.333 14.4 15.8 0 18.067-11.8 18.067-13.8 0-15.334-21.067-15.2-22-20.4-.267-1.534 1.333-3.067 3.933-3.067 3.133 0 5.333 1.733 5.8 4.467.2 1.333.867 1.933 2.2 1.666z" fill="#ff5ac7"/><path d="m521.702 1.2c1.133 0 1.866.467 2.333 1.533l9.067 22.2c.266.6.8.467.8-.2v-21.533c0-1.333.733-2 2-2h7.466c1.334 0 2 .667 2 2v42.667c0 1.266-.666 2-2 2h-9.8c-1.133 0-1.866-.467-2.333-1.534l-9.067-22.2c-.266-.6-.8-.466-.8.2v21.534c0 1.266-.666 2-2 2h-7.466c-1.267 0-2-.734-2-2v-42.667c0-1.333.733-2 2-2z" fill="#ff5ac7"/><path d="m584.835 16.2c0-4.4-.933-16.2-16.733-16.2s-16.734 11.8-16.734 16.2v16.667c0 4.4.934 16.2 16.734 16.2s16.733-11.8 16.733-16.2zm-11.467 13.133c0 5.134-.333 8.267-5.266 8.267-4.934 0-5.267-3.133-5.267-8.267v-9.6c0-5.133.333-8.266 5.267-8.266 4.933 0 5.266 3.133 5.266 8.266z" fill="#ff5ac7"/><path d="m600.835 14.667c0-1.334-.667-2-2-2h-9.333c-1.267 0-2-.734-2-2v-7.467c0-1.333.733-2 2-2h34.133c1.333 0 2 .667 2 2v7.467c0 1.266-.667 2-2 2h-9.333c-1.267 0-2 .666-2 2v31.2c0 1.266-.667 2-2 2h-7.467c-1.267 0-2-.734-2-2z" fill="#ff5ac7"/><path d="m659.635 1.2c1.333 0 2 .667 2 2v7.467c0 1.266-.667 2-2 2h-16.133c-1.267 0-2 .666-2 2v2.133c0 1.267.733 2 2 2h10.333c1.333 0 2 .667 2 2v7.467c0 1.266-.667 2-2 2h-10.333c-1.267 0-2 .666-2 2v2.133c0 1.267.733 2 2 2h16.133c1.333 0 2 .667 2 2v7.467c0 1.333-.667 2-2 2h-28c-1.267 0-2-.734-2-2v-42.667c0-1.333.733-2 2-2z" fill="#ff5ac7"/><path d="m696.302 16.067c1.2-.267 1.8-1 1.733-2.2-.4-4.8-3.6-13.734-17.333-13.734-14.934 0-16.134 11.8-16.067 13.8 0 15.334 20.067 14.067 21.333 19.734.4 1.8-2 3.733-5.266 3.733-3.134 0-5.6-1.867-5.867-5.067-.133-1.4-.867-2-2.2-1.733l-7.533 1.667c-1.2.266-1.8 1-1.734 2.2.334 5.2 3.334 14.4 17.334 14.4 15.8 0 18.066-11.8 18.066-13.8 0-15.334-21.066-15.2-22-20.4-.266-1.534 1.334-3.067 3.934-3.067 3.133 0 5.333 1.733 5.8 4.467.2 1.333.866 1.933 2.2 1.666z" fill="#ff5ac7"/><g fill="#ff8805"><path d="m128.831 489.903c0 1.1-.5 1.7-1.5 1.7h-5.6c-.95 0-1.5-.5-1.5-1.5v-4.35c0-1-.5-1.5-1.5-1.5h-4.3c-.95 0-1.5.5-1.5 1.5v4.35c0 1-.5 1.5-1.5 1.5h-5.6c-.95 0-1.5-.6-1.5-1.7v-21.2c0-6.3 1-13 12.25-13s12.25 6.7 12.25 13zm-8.6-21.2c0-2.4-.35-3.6-3.65-3.6s-3.65 1.2-3.65 3.6v5.45c0 .95.55 1.5 1.5 1.5h4.3c1-.05 1.5-.55 1.5-1.55z"/><path d="m171.581 456.603c1 0 1.5.5 1.5 1.5v5.6c0 .95-.5 1.5-1.5 1.5h-12.6c-.95 0-1.5.5-1.5 1.5v1.6c0 .95.55 1.5 1.5 1.5h8.25c1 0 1.5.5 1.5 1.5v5.6c0 .95-.5 1.5-1.5 1.5h-8.25c-.95 0-1.5.5-1.5 1.5v10.2c0 .95-.5 1.5-1.5 1.5h-5.9c-.95 0-1.5-.55-1.5-1.5v-32c0-1 .55-1.5 1.5-1.5z"/><path d="m197.131 479.053c-.1-.25-.05-.5.15-.65 2.65-1.9 3.8-5.15 3.8-9.8 0-8.2-3.6-12-12.5-12h-10.95c-.9 0-1.55.65-1.55 1.55v31.9c0 .9.65 1.55 1.55 1.55h5.6c.9 0 1.55-.65 1.55-1.55v-7.9c0-.9.65-1.55 1.55-1.55h2c.15 0 .3.1.4.25l5.2 10.05c.2.45.65.7 1.15.7h5.7c1.55 0 2.35-1.4 1.65-2.7zm-8.25-13.85c2.4 0 3.6.3 3.6 3.4s-1.2 3.4-3.6 3.4h-2.55c-.9 0-1.55-.65-1.55-1.55v-3.7c0-.9.65-1.55 1.55-1.55z"/><path d="m228.231 456.603c1 0 1.5.5 1.5 1.5v5.6c0 .95-.5 1.5-1.5 1.5h-12.1c-.95 0-1.5.5-1.5 1.5v1.6c0 .95.55 1.5 1.5 1.5h7.75c1 0 1.5.5 1.5 1.5v5.6c0 .95-.5 1.5-1.5 1.5h-7.75c-.95 0-1.5.5-1.5 1.5v1.6c0 .95.55 1.5 1.5 1.5h12.1c1 0 1.5.5 1.5 1.5v5.6c0 1-.5 1.5-1.5 1.5h-21c-.95 0-1.5-.55-1.5-1.5v-32c0-1 .55-1.5 1.5-1.5z"/><path d="m256.081 456.603c1 0 1.5.5 1.5 1.5v5.6c0 .95-.5 1.5-1.5 1.5h-12.1c-.95 0-1.5.5-1.5 1.5v1.6c0 .95.55 1.5 1.5 1.5h7.75c1 0 1.5.5 1.5 1.5v5.6c0 .95-.5 1.5-1.5 1.5h-7.75c-.95 0-1.5.5-1.5 1.5v1.6c0 .95.55 1.5 1.5 1.5h12.1c1 0 1.5.5 1.5 1.5v5.6c0 1-.5 1.5-1.5 1.5h-21c-.95 0-1.5-.55-1.5-1.5v-32c0-1 .55-1.5 1.5-1.5z"/><path d="m284.431 466.703c0-1-.5-1.5-1.5-1.5h-7c-.95 0-1.5-.55-1.5-1.5v-5.6c0-1 .55-1.5 1.5-1.5h25.6c1 0 1.5.5 1.5 1.5v5.6c0 .95-.5 1.5-1.5 1.5h-7c-.95 0-1.5.5-1.5 1.5v23.4c0 .95-.5 1.5-1.5 1.5h-5.6c-.95 0-1.5-.55-1.5-1.5z"/><path d="m330.131 467.853c0-3.3-.7-12.15-12.55-12.15s-12.55 8.85-12.55 12.15v12.5c0 3.3.7 12.15 12.55 12.15s12.55-8.85 12.55-12.15zm-8.6 9.85c0 3.85-.25 6.2-3.95 6.2s-3.95-2.35-3.95-6.2v-7.2c0-3.85.25-6.2 3.95-6.2s3.95 2.35 3.95 6.2z"/><path d="m359.231 467.853c0-3.3-.7-12.15-12.55-12.15s-12.55 8.85-12.55 12.15v12.5c0 3.3.7 12.15 12.55 12.15s12.55-8.85 12.55-12.15zm-8.6 9.85c0 3.85-.25 6.2-3.95 6.2s-3.95-2.35-3.95-6.2v-7.2c0-3.85.25-6.2 3.95-6.2s3.95 2.35 3.95 6.2z"/><path d="m370.831 456.603c1 0 1.5.5 1.5 1.5v23.4c0 .95.55 1.5 1.5 1.5h11.15c1 0 1.5.5 1.5 1.5v5.6c0 1-.5 1.5-1.5 1.5h-19.75c-.95 0-1.5-.55-1.5-1.5v-32c0-1 .55-1.5 1.5-1.5z"/><path d="m427.581 456.603c1 0 1.5.5 1.5 1.5v5.6c0 .95-.5 1.5-1.5 1.5h-12.6c-.95 0-1.5.5-1.5 1.5v1.6c0 .95.55 1.5 1.5 1.5h8.25c1 0 1.5.5 1.5 1.5v5.6c0 .95-.5 1.5-1.5 1.5h-8.25c-.95 0-1.5.5-1.5 1.5v10.2c0 .95-.5 1.5-1.5 1.5h-5.9c-.95 0-1.5-.55-1.5-1.5v-32c0-1 .55-1.5 1.5-1.5z"/><path d="m456.181 467.853c0-3.3-.7-12.15-12.55-12.15s-12.55 8.85-12.55 12.15v12.5c0 3.3.7 12.15 12.55 12.15s12.55-8.85 12.55-12.15zm-8.6 9.85c0 3.85-.25 6.2-3.95 6.2s-3.95-2.35-3.95-6.2v-7.2c0-3.85.25-6.2 3.95-6.2s3.95 2.35 3.95 6.2z"/><path d="m481.731 479.053c-.1-.25-.05-.5.15-.65 2.65-1.9 3.8-5.15 3.8-9.8 0-8.2-3.6-12-12.5-12h-10.95c-.9 0-1.55.65-1.55 1.55v31.9c0 .9.65 1.55 1.55 1.55h5.6c.9 0 1.55-.65 1.55-1.55v-7.9c0-.9.65-1.55 1.55-1.55h2c.15 0 .3.1.4.25l5.2 10.05c.2.45.65.7 1.15.7h5.7c1.55 0 2.35-1.4 1.65-2.7zm-8.25-13.85c2.4 0 3.6.3 3.6 3.4s-1.2 3.4-3.6 3.4h-2.55c-.9 0-1.55-.65-1.55-1.55v-3.7c0-.9.65-1.55 1.55-1.55z"/><path d="m517.181 456.603c.9 0 1.4.5 1.6 1.35l3.55 14.55c.1.5.5.5.6 0l3.55-14.55c.2-.85.7-1.35 1.6-1.35h10.35c1 0 1.5.5 1.5 1.5v32c0 .95-.5 1.5-1.5 1.5h-5.6c-.95 0-1.5-.55-1.5-1.5v-19.7c0-.35-.45-.4-.55-.05l-4.85 19.95c-.2.85-.75 1.3-1.65 1.3h-3.3c-.9 0-1.45-.45-1.65-1.3l-4.85-19.95c-.1-.35-.55-.3-.55.05v19.7c0 .95-.5 1.5-1.5 1.5h-5.6c-1 0-1.5-.55-1.5-1.5v-32c0-1 .5-1.5 1.5-1.5z"/><path d="m567.431 456.603c1 0 1.5.5 1.5 1.5v5.6c0 .95-.5 1.5-1.5 1.5h-12.1c-.95 0-1.5.5-1.5 1.5v1.6c0 .95.55 1.5 1.5 1.5h7.75c1 0 1.5.5 1.5 1.5v5.6c0 .95-.5 1.5-1.5 1.5h-7.75c-.95 0-1.5.5-1.5 1.5v1.6c0 .95.55 1.5 1.5 1.5h12.1c1 0 1.5.5 1.5 1.5v5.6c0 1-.5 1.5-1.5 1.5h-21c-.95 0-1.5-.55-1.5-1.5v-32c0-1 .55-1.5 1.5-1.5z"/><path d="m574.281 456.603c-1 .05-1.5.55-1.5 1.55v31.95c0 .95.55 1.5 1.5 1.5h11.15c9.4 0 12.5-3.85 12.5-12.05v-10.95c0-8.2-3.1-12-12.5-12zm8.6 26.4c-.95 0-1.5-.55-1.5-1.5v-14.8c0-1 .55-1.5 1.5-1.5h2.7c2.4 0 3.6.3 3.6 3.4v11c0 3-1.2 3.4-3.6 3.4z"/><path d="m609.431 456.603c1 0 1.5.5 1.5 1.5v32c0 .95-.5 1.5-1.5 1.5h-5.5c-.95 0-1.5-.55-1.5-1.5v-32c0-1 .55-1.5 1.5-1.5z"/><path d="m615.431 480.353c0 3.3.7 12.15 12.55 12.15 10.65 0 12.3-7.15 12.5-10.95.05-.75-.4-1.3-1.1-1.45l-5.65-1.25c-1-.25-1.8.4-1.95 1.45-.3 2.3-1.05 3.6-3.8 3.6-3.7 0-3.95-2.35-3.95-6.2v-7.2c0-3.85.25-6.2 3.95-6.2 2.7 0 3.6 1.3 3.85 3.5.15 1.05.95 1.75 2 1.55l5.55-1.25c.7-.15 1.15-.7 1.1-1.4-.2-3.85-1.85-11-12.5-11-11.85 0-12.55 8.85-12.55 12.15z"/><path d="m668.181 489.903c0 1.1-.5 1.7-1.5 1.7h-5.6c-.95 0-1.5-.5-1.5-1.5v-4.35c0-1-.5-1.5-1.5-1.5h-4.3c-.95 0-1.5.5-1.5 1.5v4.35c0 1-.5 1.5-1.5 1.5h-5.6c-.95 0-1.5-.6-1.5-1.7v-21.2c0-6.3 1-13 12.25-13s12.25 6.7 12.25 13zm-8.6-21.2c0-2.4-.35-3.6-3.65-3.6s-3.65 1.2-3.65 3.6v5.45c0 .95.55 1.5 1.5 1.5h4.3c1-.05 1.5-.55 1.5-1.55z"/><path d="m680.031 456.603c1 0 1.5.5 1.5 1.5v23.4c0 .95.55 1.5 1.5 1.5h11.15c1 0 1.5.5 1.5 1.5v5.6c0 1-.5 1.5-1.5 1.5h-19.75c-.95 0-1.5-.55-1.5-1.5v-32c0-1 .55-1.5 1.5-1.5z"/><path d="m736.281 456.603c1 0 1.5.5 1.5 1.5v5.6c0 .95-.5 1.5-1.5 1.5h-12.1c-.95 0-1.5.5-1.5 1.5v1.6c0 .95.55 1.5 1.5 1.5h7.75c1 0 1.5.5 1.5 1.5v5.6c0 .95-.5 1.5-1.5 1.5h-7.75c-.95 0-1.5.5-1.5 1.5v1.6c0 .95.55 1.5 1.5 1.5h12.1c1 0 1.5.5 1.5 1.5v5.6c0 1-.5 1.5-1.5 1.5h-21c-.95 0-1.5-.55-1.5-1.5v-32c0-1 .55-1.5 1.5-1.5z"/><path d="m743.131 456.603c-1 .05-1.5.55-1.5 1.55v31.95c0 .95.55 1.5 1.5 1.5h11.15c9.4 0 12.5-3.85 12.5-12.05v-10.95c0-8.2-3.1-12-12.5-12zm8.6 26.4c-.95 0-1.5-.55-1.5-1.5v-14.8c0-1 .55-1.5 1.5-1.5h2.7c2.4 0 3.6.3 3.6 3.4v11c0 3-1.2 3.4-3.6 3.4z"/><path d="m772.481 456.603c-.95 0-1.5.5-1.5 1.5v22.25c0 3.3.7 12.15 12.55 12.15s12.55-8.85 12.55-12.15v-22.25c0-1-.5-1.5-1.5-1.5h-5.6c-.95 0-1.5.5-1.5 1.5v19.6c0 3.85-.25 6.2-3.95 6.2s-3.95-2.35-3.95-6.2v-19.6c0-1-.5-1.5-1.5-1.5z"/><path d="m800.281 480.353c0 3.3.7 12.15 12.55 12.15 10.65 0 12.3-7.15 12.5-10.95.05-.75-.4-1.3-1.1-1.45l-5.65-1.25c-1-.25-1.8.4-1.95 1.45-.3 2.3-1.05 3.6-3.8 3.6-3.7 0-3.95-2.35-3.95-6.2v-7.2c0-3.85.25-6.2 3.95-6.2 2.7 0 3.6 1.3 3.85 3.5.15 1.05.95 1.75 2 1.55l5.55-1.25c.7-.15 1.15-.7 1.1-1.4-.2-3.85-1.85-11-12.5-11-11.85 0-12.55 8.85-12.55 12.15z"/><path d="m853.031 489.903c0 1.1-.5 1.7-1.5 1.7h-5.6c-.95 0-1.5-.5-1.5-1.5v-4.35c0-1-.5-1.5-1.5-1.5h-4.3c-.95 0-1.5.5-1.5 1.5v4.35c0 1-.5 1.5-1.5 1.5h-5.6c-.95 0-1.5-.6-1.5-1.7v-21.2c0-6.3 1-13 12.25-13s12.25 6.7 12.25 13zm-8.6-21.2c0-2.4-.35-3.6-3.65-3.6s-3.65 1.2-3.65 3.6v5.45c0 .95.55 1.5 1.5 1.5h4.3c1-.05 1.5-.55 1.5-1.55z"/><path d="m864.781 466.703c0-1-.5-1.5-1.5-1.5h-7c-.95 0-1.5-.55-1.5-1.5v-5.6c0-1 .55-1.5 1.5-1.5h25.6c1 0 1.5.5 1.5 1.5v5.6c0 .95-.5 1.5-1.5 1.5h-7c-.95 0-1.5.5-1.5 1.5v23.4c0 .95-.5 1.5-1.5 1.5h-5.6c-.95 0-1.5-.55-1.5-1.5z"/><path d="m910.481 467.853c0-3.3-.7-12.15-12.55-12.15s-12.55 8.85-12.55 12.15v12.5c0 3.3.7 12.15 12.55 12.15s12.55-8.85 12.55-12.15zm-8.6 9.85c0 3.85-.25 6.2-3.95 6.2s-3.95-2.35-3.95-6.2v-7.2c0-3.85.25-6.2 3.95-6.2s3.95 2.35 3.95 6.2z"/><path d="m936.031 479.053c-.1-.25-.05-.5.15-.65 2.65-1.9 3.8-5.15 3.8-9.8 0-8.2-3.6-12-12.5-12h-10.95c-.9 0-1.55.65-1.55 1.55v31.9c0 .9.65 1.55 1.55 1.55h5.6c.9 0 1.55-.65 1.55-1.55v-7.9c0-.9.65-1.55 1.55-1.55h2c.15 0 .3.1.4.25l5.2 10.05c.2.45.65.7 1.15.7h5.7c1.55 0 2.35-1.4 1.65-2.7zm-8.25-13.85c2.4 0 3.6.3 3.6 3.4s-1.2 3.4-3.6 3.4h-2.55c-.9 0-1.55-.65-1.55-1.55v-3.7c0-.9.65-1.55 1.55-1.55z"/><path d="m967.031 467.753c.9-.2 1.35-.75 1.3-1.65-.3-3.6-2.7-10.3-13-10.3-11.2 0-12.1 8.85-12.05 10.35 0 11.5 15.05 10.55 16 14.8.3 1.35-1.5 2.8-3.95 2.8-2.35 0-4.2-1.4-4.4-3.8-.1-1.05-.65-1.5-1.65-1.3l-5.65 1.25c-.9.2-1.35.75-1.3 1.65.25 3.9 2.5 10.8 13 10.8 11.85 0 13.55-8.85 13.55-10.35 0-11.5-15.8-11.4-16.5-15.3-.2-1.15 1-2.3 2.95-2.3 2.35 0 4 1.3 4.35 3.35.15 1 .65 1.45 1.65 1.25z"/></g></g></svg>