<?xml version="1.0" encoding="UTF-8" standalone="no"?><!DOCTYPE svg PUBLIC "-//W3C//DTD SVG 1.1//EN" "http://www.w3.org/Graphics/SVG/1.1/DTD/svg11.dtd"><svg width="1062px" height="493px" version="1.1" xmlns="http://www.w3.org/2000/svg" xmlns:xlink="http://www.w3.org/1999/xlink" xml:space="preserve" xmlns:serif="http://www.serif.com/" style="fill-rule:evenodd;clip-rule:evenodd;stroke-linejoin:round;stroke-miterlimit:2;"><g><g><path d="M98.881,123.81C104.046,121.967 104.164,116.873 104.069,114.726C102.42,89.487 90.382,78.744 87.907,76.535C81.614,70.919 70.946,65.051 52.015,65.049C30.497,65.047 20.988,73.489 16.798,78.02C4.802,90.99 3.701,112.581 3.814,117.509C3.816,185.995 64.096,176.744 67.912,196.763C69.109,203.081 61.984,210.303 52.074,211.238C43.387,212.058 35.287,207.459 34.445,194.84C34.002,189.032 31.433,187.423 27.836,188.562C18.597,191.745 10.601,194.265 5.217,195.881C1.506,197 -0.178,199.939 0.015,204.048C0.967,221.606 7.486,243.448 52.071,239.325C85.413,236.242 95.972,222.316 98.756,218.522C106.211,208.362 106.426,196.93 106.426,196.575C106.413,169.712 89.918,156.342 80.727,150.065C62.962,137.932 41.82,132.936 40.222,120.356C39.426,113.891 44.129,107.408 52.02,107.267C61.148,107.105 68.001,113.672 69.448,125.319C69.909,129.537 71.306,133.555 76.064,131.966C78.2,131.195 88.78,127.375 98.881,123.81Z" style="fill:url(#_Linear1);fill-rule:nonzero;"/><path d="M148.615,68.341C153.687,68.33 154.617,71.743 154.621,74.697C154.68,120.313 155.099,169.446 154.992,218.155C154.987,220.645 153.234,222.614 148.96,223.379C147.536,223.633 137.218,225.481 126.881,227.225C122.896,227.898 120.864,226.659 120.868,224.119C120.784,174.389 120.7,124.658 120.616,74.928C120.613,69.86 123.503,68.39 126.614,68.385C133.948,68.37 141.281,68.355 148.615,68.341Z" style="fill:url(#_Linear2);fill-rule:nonzero;"/><path d="M222.019,68.179C226.442,68.171 227.878,71.222 228.431,73.554C232.711,90.982 237.752,112.39 243.073,134.053C243.488,136.108 245.097,135.952 245.478,133.817C249.527,115.309 254.187,94.048 259.234,73.404C259.798,71.012 261.272,68.12 265.62,68.117C279.42,68.116 293.22,68.115 307.02,68.115C309.72,68.117 313.017,69.006 313.038,73.909C313.215,116.051 314.154,145.064 313.902,193.796C313.882,197.713 309.831,198.377 307.867,198.545C301.549,199.082 293.582,199.866 285.42,200.813C281.413,201.278 279.416,199.89 279.428,197.286C279.55,171.551 279.402,154.803 279.054,122.5C279.039,121.119 277.233,121.027 276.849,122.444C266.035,169.532 262.318,186.797 257.763,200.814C256.754,204.017 253.636,205.069 251.125,205.451C250.065,205.612 244.722,206.425 237.882,207.535C235.657,207.897 232.305,208.002 231.276,204.994C230.43,202.605 226.635,193.753 211.533,127.7C211.125,126.177 209.32,126.557 209.33,128.128C209.573,163.224 209.689,182.362 209.6,208.173C209.592,210.618 207.936,212.655 203.562,213.44C196.067,214.804 188.573,216.167 181.079,217.531C179.358,217.846 175.058,218.415 175.069,214.475C175.196,166.582 174.704,120.31 174.624,74.546C174.619,71.391 175.729,68.28 180.617,68.269C194.417,68.239 208.218,68.209 222.019,68.179Z" style="fill:url(#_Linear3);fill-rule:nonzero;"/><path d="M337.819,68.166C333.953,68.156 331.821,70.209 331.837,73.964C331.955,102.31 332.527,129.361 332.714,157.311C332.877,181.638 343.654,188.65 345.549,190.025C351.675,194.472 361.85,198.505 382.879,199.657C396.287,200.391 411.654,199.885 420.926,193.505C422.987,192.087 433.147,185.782 433.009,162.257C432.838,133.173 432.35,102.794 432.237,73.936C432.223,70.225 430.369,68.108 426.22,68.107C418.753,68.109 411.287,68.11 403.82,68.112C399.924,68.115 397.822,70.18 397.838,73.904C397.943,98.834 398.38,124.145 398.604,148.599C398.741,163.506 397.691,172.139 382.966,171.304C368.298,170.473 367.184,161.725 367.04,146.912C366.806,122.895 366.338,99.048 366.236,74.013C366.221,70.376 364.411,68.18 360.218,68.193C350.599,68.223 350.622,68.198 337.819,68.166Z" style="fill:url(#_Linear4);fill-rule:nonzero;"/><path d="M479.419,68.167C484.166,68.176 485.423,71.014 485.432,74.199C485.522,105.378 485.955,143.212 486.065,174.645C486.079,178.592 488.376,181.124 492.06,181.769C506.994,184.387 523.014,187.355 536.488,189.833C538.423,190.189 542.468,191.386 542.468,197.119C542.461,203.482 542.454,209.844 542.446,216.206C542.438,219.518 539.65,219.839 536.456,219.247C511.13,214.554 484.123,209.482 457.73,205.436C453.846,204.841 451.758,202.972 451.769,200.305C451.98,152.997 451.194,118.091 451.036,74.005C451.022,70.052 453.278,68.127 457.02,68.132C464.486,68.144 471.952,68.156 479.419,68.167Z" style="fill:url(#_Linear5);fill-rule:nonzero;"/><path d="M651.503,232.514C651.502,234.594 650.597,237.067 645.512,236.518C639.354,235.853 631.432,234.907 623.167,233.789C621.25,233.53 617.185,232.666 617.189,228.881C617.191,224.179 617.193,219.478 617.195,214.777C617.195,211.693 615.744,208.683 611.214,208.005C602.984,206.775 595.441,205.536 594.071,205.311C590.01,204.644 588.093,206.79 588.092,210.202C588.089,214.918 588.085,219.635 588.081,224.352C588.076,227.617 585.314,227.998 582.093,227.45C571.648,225.673 561.216,223.786 559.771,223.525C556.158,222.872 553.798,220.984 553.805,217.727C553.874,187.115 553.734,158.984 553.587,124.905C553.441,90.899 558.194,64.634 602.415,64.634C645.643,64.634 651.406,89.495 651.45,131.31C651.468,165.045 651.485,198.78 651.503,232.514ZM617.089,129.514C617.063,116.402 615.687,109.997 602.465,109.448C589.145,108.895 587.895,115.209 587.931,127.547C587.958,137.078 587.986,146.608 588.014,156.138C588.035,163.863 593.194,164.501 594.018,164.603C595.39,164.773 602.939,165.707 611.174,166.642C616.246,166.883 617.152,162.718 617.146,159.023C617.127,149.186 617.108,139.35 617.089,129.514Z" style="fill:url(#_Linear6);fill-rule:nonzero;"/><path d="M698.422,120.763C698.421,117.356 697.777,112.145 692.42,112.141C684.439,112.135 674.673,112.06 664.425,111.885C660.838,111.824 658.425,108.926 658.422,103.53C658.418,94.073 658.415,84.617 658.411,75.161C658.411,73.583 658.558,68.443 664.413,68.437C698.547,68.435 732.681,68.433 766.815,68.43C771.88,68.432 772.815,71.956 772.816,75.123C772.817,84.522 772.818,93.921 772.819,103.32C772.82,108.935 770.416,111.561 766.821,111.636C756.397,111.854 746.638,111.989 738.821,112.056C736.098,112.08 732.821,113.64 732.823,120.678C732.827,158.979 732.832,197.28 732.837,235.582C732.835,239.416 728.566,239.787 726.835,239.843C725.044,239.9 715.128,240.219 704.436,240.134C700.598,240.103 698.439,238.598 698.44,236.007C698.434,197.592 698.428,159.178 698.422,120.763Z" style="fill:url(#_Linear7);fill-rule:nonzero;"/><path d="M812.815,68.407C817.899,68.402 818.815,71.916 818.816,74.983C818.821,125.767 818.826,176.552 818.832,227.337C818.831,231.065 814.74,231.907 812.831,232.162C804.408,233.289 796.627,234.242 790.833,234.908C786.892,235.362 784.833,234.071 784.834,231.556C784.828,179.405 784.822,127.253 784.816,75.102C784.815,73.548 784.958,68.43 790.815,68.426C798.148,68.42 805.482,68.414 812.815,68.407Z" style="fill:url(#_Linear8);fill-rule:nonzero;"/><path d="M937.218,117.176C937.214,78.06 916.459,64.634 887.015,64.634C856.08,64.634 836.815,79.155 836.822,123.261C836.825,144.695 836.828,166.129 836.831,187.563C836.834,215.891 845.735,229.761 887.025,223.125C926.331,216.808 937.223,201.736 937.222,173.438C937.22,154.684 937.219,135.93 937.218,117.176ZM902.824,166.257C902.825,183.466 901.994,193.37 887.027,195.718C872.072,198.064 871.228,188.366 871.227,170.369C871.225,158.445 871.224,146.521 871.222,134.597C871.219,114.973 872.205,103.481 887.018,102.916C901.964,102.346 902.818,113.812 902.82,132.024C902.822,143.435 902.823,154.846 902.824,166.257Z" style="fill:url(#_Linear9);fill-rule:nonzero;"/><path d="M990.615,68.144C994.022,68.143 996.234,69.549 997.615,72.681C1005.45,91.724 1014.25,114.452 1024.82,140.423C1025.61,142.209 1027.22,141.739 1027.22,139.705C1027.21,117.832 1027.21,95.959 1027.21,74.086C1027.21,70.113 1029.47,68.165 1033.21,68.171C1040.68,68.186 1048.15,68.202 1055.62,68.217C1059.96,68.229 1061.62,70.637 1061.62,74.234L1061.62,198.495C1061.62,201.978 1057.86,202.407 1055.62,202.43C1047.23,202.514 1037.09,202.819 1026.22,203.442C1023.1,203.62 1020.68,203.055 1019.22,200.912C1013.86,192.514 1010.66,184.888 1005.62,173.015C999.903,159.576 995.012,147.379 992.017,139.824C991.224,137.99 989.617,138.509 989.617,140.628C989.617,161.255 989.617,181.882 989.618,202.509C989.618,206.032 985.806,206.831 983.618,207.072C977.659,207.727 969.732,208.663 961.219,209.772C957.168,210.299 955.22,209.026 955.22,206.631C955.218,162.485 955.217,118.339 955.215,74.193C955.215,70.011 957.584,68.166 961.215,68.162C971.015,68.156 980.815,68.15 990.615,68.144Z" style="fill:url(#_Linear10);fill-rule:nonzero;"/></g><g><path d="M63.396,258.723C65.815,258.473 70.443,258.292 71.958,261.787C76.445,271.756 79.864,280.029 90.933,328.305C91.466,331.154 93.629,330.83 94.144,327.993C104.398,281.482 107.134,271.367 113.2,256.273C114.699,252.415 119.156,251.312 121.785,250.896C140.589,247.915 160.206,244.462 177.261,241.466C180.615,240.876 185.297,240.594 185.276,244.669C184.949,308.158 184.949,412.972 184.949,427.607C184.949,432.686 182.225,435.625 176.931,435.625L146.997,435.625C141.944,435.625 138.979,432.66 138.979,427.607C139.027,388.486 139.075,349.366 139.123,310.245C139.126,308.16 136.713,308.192 136.179,310.343C123.579,369.628 124.429,369.795 110.114,428.676C109.051,433.195 106.084,435.625 101.294,435.625L83.655,435.625C78.865,435.625 75.898,433.195 74.835,428.676C67.838,399.896 67.721,399.948 61.878,374.893C58.156,358.933 53.638,339.281 48.936,319.894C48.406,318.041 45.993,318.485 45.993,320.377C45.985,356.121 45.978,391.864 45.97,427.607C45.97,432.686 43.246,435.625 37.952,435.625L8.018,435.625C2.724,435.625 0,432.686 0,427.607L0,266.615C-0,262.969 4.099,262.219 8.019,262.16C29.731,261.832 49.628,260.144 63.396,258.723Z" style="fill:url(#_Linear11);fill-rule:nonzero;"/><path d="M343.632,270.226C343.67,251.545 340.637,237.618 328.096,229.565C317.791,222.948 300.77,220.153 276.693,223.072C255.787,225.606 236.32,231.643 224.499,241.75C213.016,251.567 209.323,264.537 209.295,284.295C209.222,312.67 209.149,341.046 209.076,369.421C208.996,400.031 216.516,413.01 223.819,421.263C239.951,439.494 265.896,440.436 276.087,440.436C292.522,440.436 315.493,437.281 329.933,419.404C336.598,411.152 343.165,398.516 343.284,366.083C343.4,334.131 343.516,302.178 343.632,270.226ZM297.383,346.138C297.27,376.217 295.991,391.849 276.117,391.995C256.129,392.142 255.035,376.442 255.131,348.115C255.189,330.486 255.246,312.856 255.304,295.227C255.375,269.255 256.414,257.303 276.512,254.97C296.706,252.625 297.663,264.491 297.582,291.025C297.516,309.396 297.45,327.767 297.383,346.138Z" style="fill:url(#_Linear12);fill-rule:nonzero;"/><path d="M415.142,223.939C419.321,224.357 422.508,225.633 424.449,228.552C439.162,252.164 445.346,270.983 460.469,324.059C460.541,324.288 461.262,326.619 462.465,326.309C462.975,326.177 463.67,325.332 463.677,323.244C463.721,305.187 463.765,287.129 463.809,269.072C463.814,262.853 463.804,250.529 463.918,234.885C463.952,230.194 470.403,231.174 471.953,231.417C484.543,233.393 496.819,235.496 501.809,236.354C505.584,237.004 509.799,238.472 509.776,242.369C509.411,304.901 509.411,412.788 509.411,427.607C509.411,432.686 506.687,435.625 501.393,435.625L462.105,435.625C457.579,435.625 454.611,433.73 452.751,429.478C436.628,390.002 436.413,387.673 416.695,316.072C416.625,315.839 415.904,313.431 414.7,313.781C414.198,313.927 413.494,314.808 413.486,317.016C413.31,364.845 413.195,383.788 413.195,427.607C413.195,432.686 410.471,435.625 405.177,435.625L375.243,435.625C370.191,435.625 367.225,432.66 367.225,427.607C367.225,392.166 367.24,392.177 367.547,313.262C367.784,252.16 367.591,252.169 367.836,225.681C367.881,220.82 374.515,221.083 375.897,221.137C392.844,221.81 407.781,223.201 415.142,223.939Z" style="fill:url(#_Linear13);fill-rule:nonzero;"/><path d="M573.773,248.896C577.666,249.544 581.767,250.976 581.754,254.723C581.694,312.351 581.634,369.979 581.574,427.607C581.574,432.686 578.85,435.625 573.556,435.625L544.156,435.625C539.104,435.625 536.138,432.66 536.138,427.607C536.138,306.927 536.362,261.47 536.433,247.024C536.456,242.518 542.709,243.543 544.453,243.85C550.386,244.893 562.317,246.987 573.773,248.896Z" style="fill:url(#_Linear14);fill-rule:nonzero;"/><path d="M651.098,299.634C651.097,294.08 648.04,291.518 643.087,291.017C627.305,289.418 613.002,287.488 605.724,286.474C600.39,285.731 597.718,282.109 597.72,278.024C597.731,271.087 597.742,264.151 597.753,257.214C597.765,252.88 603.806,253.63 605.766,253.914C664.866,262.494 703.398,263.517 742.477,261.225C746.258,261.003 750.495,261.392 750.493,265.069C750.491,271.913 750.489,278.757 750.487,285.601C750.487,289.569 748.168,293.106 742.469,293.448C729.357,294.235 716.682,294.58 705.051,294.522C699.308,294.494 697.035,297.767 697.035,302.368C697.034,344.114 697.034,385.861 697.033,427.607C697.033,432.686 694.309,435.625 689.015,435.625L659.081,435.625C654.028,435.625 651.063,432.66 651.063,427.607C651.075,384.949 651.086,342.292 651.098,299.634Z" style="fill:url(#_Linear15);fill-rule:nonzero;"/><path d="M895.345,287.657C895.345,256.955 887.886,240.495 828.269,249.309C770.285,257.882 761.177,275.102 761.177,306.026L761.177,375.201C761.177,389.513 762.617,440.436 828.261,440.436C838.358,440.436 864.109,439.513 880.255,421.568C888.368,412.551 895.345,399.151 895.345,370.348L895.345,287.657ZM849.376,355.682C849.376,380.167 848.093,393.815 828.261,394.068C808.273,394.323 807.147,380.662 807.147,358.322L807.147,315.856C807.147,293.366 808.614,282.266 828.262,279.281C848.031,276.278 849.376,287.017 849.376,310.487L849.376,355.682Z" style="fill:url(#_Linear16);fill-rule:nonzero;"/><path d="M1031.92,356.054C1031.34,353.95 1031.78,351.988 1032.72,350.924C1034.81,348.672 1053.03,331.495 1053.03,275.105C1053.03,251.324 1049.67,239.448 1038.7,232.904C1032.7,229.328 1019.16,224.202 986.217,227.854C965.215,230.183 944.55,233.202 927.688,235.823C922.792,236.584 919.402,238.949 919.402,241.491C919.401,303.441 919.4,365.39 919.4,427.34C919.4,432.126 922.899,435.625 927.685,435.625L957.619,435.625C962.405,435.625 965.904,432.126 965.904,427.34L965.904,380.332C965.904,374.05 969.448,369.234 974.189,369.098C977.753,369.001 981.316,368.905 984.88,368.808C986.125,368.777 986.92,370.392 987.018,370.591C999.567,403.537 1003.4,409.829 1014.81,431.883C1015.87,434.251 1018.27,435.625 1020.96,435.625L1051.43,435.625C1059.7,435.625 1063.99,428.131 1060.25,421.193C1052.16,406.166 1047.59,398.567 1031.92,356.054ZM987.82,259.074C1001.84,257.507 1007.06,259.134 1007.06,277.689C1007.06,300.162 999.726,302.348 987.82,303.392C986.729,303.488 981.165,303.976 974.189,304.657C969.441,305.121 965.904,300.784 965.904,294.514L965.904,270.523C965.904,265.329 969.219,261.323 974.189,260.697C981.165,259.818 986.729,259.196 987.82,259.074Z" style="fill:url(#_Linear17);fill-rule:nonzero;"/></g></g><path d="M373.768,32.867C373.768,37.267 374.702,49.067 390.502,49.067C406.302,49.067 407.235,37.267 407.235,32.867L407.235,23.867C407.235,22.533 406.568,21.867 405.235,21.867L391.902,21.867C390.635,21.867 389.902,22.533 389.902,23.867L389.902,29.2C389.902,30.467 390.635,31.2 391.902,31.2L395.768,31.2C395.768,34.467 395.435,37.6 390.502,37.6C385.568,37.6 385.235,34.467 385.235,29.333L385.235,19.733C385.235,14.6 385.568,11.467 390.502,11.467C394.302,11.467 395.435,13.333 395.702,16.533C395.835,17.933 396.568,18.533 397.902,18.267L405.435,16.6C406.635,16.333 407.235,15.6 407.168,14.4C406.835,9.2 404.502,0 390.502,0C374.702,0 373.768,11.8 373.768,16.2L373.768,32.867Z" style="fill:rgb(255,90,199);fill-rule:nonzero;"/><path d="M445.435,45.6C445.435,47.067 444.768,47.867 443.435,47.867L435.968,47.867C434.702,47.867 433.968,47.2 433.968,45.867L433.968,40.067C433.968,38.733 433.302,38.067 431.968,38.067L426.235,38.067C424.968,38.067 424.235,38.733 424.235,40.067L424.235,45.867C424.235,47.2 423.568,47.867 422.235,47.867L414.768,47.867C413.502,47.867 412.768,47.067 412.768,45.6L412.768,17.333C412.768,8.933 414.102,0 429.102,0C444.102,0 445.435,8.933 445.435,17.333L445.435,45.6ZM433.968,17.333C433.968,14.133 433.502,12.533 429.102,12.533C424.702,12.533 424.235,14.133 424.235,17.333L424.235,24.6C424.235,25.867 424.968,26.6 426.235,26.6L431.968,26.6C433.302,26.533 433.968,25.867 433.968,24.533L433.968,17.333Z" style="fill:rgb(255,90,199);fill-rule:nonzero;"/><path d="M482.635,16.067C483.835,15.8 484.435,15.067 484.368,13.867C483.968,9.067 480.768,0.133 467.035,0.133C452.102,0.133 450.902,11.933 450.968,13.933C450.968,29.267 471.035,28 472.302,33.667C472.702,35.467 470.302,37.4 467.035,37.4C463.902,37.4 461.435,35.533 461.168,32.333C461.035,30.933 460.302,30.333 458.968,30.6L451.435,32.267C450.235,32.533 449.635,33.267 449.702,34.467C450.035,39.667 453.035,48.867 467.035,48.867C482.835,48.867 485.102,37.067 485.102,35.067C485.102,19.733 464.035,19.867 463.102,14.667C462.835,13.133 464.435,11.6 467.035,11.6C470.168,11.6 472.368,13.333 472.835,16.067C473.035,17.4 473.702,18 475.035,17.733L482.635,16.067Z" style="fill:rgb(255,90,199);fill-rule:nonzero;"/><path d="M521.702,1.2C522.835,1.2 523.568,1.667 524.035,2.733L533.102,24.933C533.368,25.533 533.902,25.4 533.902,24.733L533.902,3.2C533.902,1.867 534.635,1.2 535.902,1.2L543.368,1.2C544.702,1.2 545.368,1.867 545.368,3.2L545.368,45.867C545.368,47.133 544.702,47.867 543.368,47.867L533.568,47.867C532.435,47.867 531.702,47.4 531.235,46.333L522.168,24.133C521.902,23.533 521.368,23.667 521.368,24.333L521.368,45.867C521.368,47.133 520.702,47.867 519.368,47.867L511.902,47.867C510.635,47.867 509.902,47.133 509.902,45.867L509.902,3.2C509.902,1.867 510.635,1.2 511.902,1.2L521.702,1.2Z" style="fill:rgb(255,90,199);fill-rule:nonzero;"/><path d="M584.835,16.2C584.835,11.8 583.902,0 568.102,0C552.302,0 551.368,11.8 551.368,16.2L551.368,32.867C551.368,37.267 552.302,49.067 568.102,49.067C583.902,49.067 584.835,37.267 584.835,32.867L584.835,16.2ZM573.368,29.333C573.368,34.467 573.035,37.6 568.102,37.6C563.168,37.6 562.835,34.467 562.835,29.333L562.835,19.733C562.835,14.6 563.168,11.467 568.102,11.467C573.035,11.467 573.368,14.6 573.368,19.733L573.368,29.333Z" style="fill:rgb(255,90,199);fill-rule:nonzero;"/><path d="M600.835,14.667C600.835,13.333 600.168,12.667 598.835,12.667L589.502,12.667C588.235,12.667 587.502,11.933 587.502,10.667L587.502,3.2C587.502,1.867 588.235,1.2 589.502,1.2L623.635,1.2C624.968,1.2 625.635,1.867 625.635,3.2L625.635,10.667C625.635,11.933 624.968,12.667 623.635,12.667L614.302,12.667C613.035,12.667 612.302,13.333 612.302,14.667L612.302,45.867C612.302,47.133 611.635,47.867 610.302,47.867L602.835,47.867C601.568,47.867 600.835,47.133 600.835,45.867L600.835,14.667Z" style="fill:rgb(255,90,199);fill-rule:nonzero;"/><path d="M659.635,1.2C660.968,1.2 661.635,1.867 661.635,3.2L661.635,10.667C661.635,11.933 660.968,12.667 659.635,12.667L643.502,12.667C642.235,12.667 641.502,13.333 641.502,14.667L641.502,16.8C641.502,18.067 642.235,18.8 643.502,18.8L653.835,18.8C655.168,18.8 655.835,19.467 655.835,20.8L655.835,28.267C655.835,29.533 655.168,30.267 653.835,30.267L643.502,30.267C642.235,30.267 641.502,30.933 641.502,32.267L641.502,34.4C641.502,35.667 642.235,36.4 643.502,36.4L659.635,36.4C660.968,36.4 661.635,37.067 661.635,38.4L661.635,45.867C661.635,47.2 660.968,47.867 659.635,47.867L631.635,47.867C630.368,47.867 629.635,47.133 629.635,45.867L629.635,3.2C629.635,1.867 630.368,1.2 631.635,1.2L659.635,1.2Z" style="fill:rgb(255,90,199);fill-rule:nonzero;"/><path d="M696.302,16.067C697.502,15.8 698.102,15.067 698.035,13.867C697.635,9.067 694.435,0.133 680.702,0.133C665.768,0.133 664.568,11.933 664.635,13.933C664.635,29.267 684.702,28 685.968,33.667C686.368,35.467 683.968,37.4 680.702,37.4C677.568,37.4 675.102,35.533 674.835,32.333C674.702,30.933 673.968,30.333 672.635,30.6L665.102,32.267C663.902,32.533 663.302,33.267 663.368,34.467C663.702,39.667 666.702,48.867 680.702,48.867C696.502,48.867 698.768,37.067 698.768,35.067C698.768,19.733 677.702,19.867 676.768,14.667C676.502,13.133 678.102,11.6 680.702,11.6C683.835,11.6 686.035,13.333 686.502,16.067C686.702,17.4 687.368,18 688.702,17.733L696.302,16.067Z" style="fill:rgb(255,90,199);fill-rule:nonzero;"/><path d="M128.831,489.903C128.831,491.003 128.331,491.603 127.331,491.603L121.731,491.603C120.781,491.603 120.231,491.103 120.231,490.103L120.231,485.753C120.231,484.753 119.731,484.253 118.731,484.253L114.431,484.253C113.481,484.253 112.931,484.753 112.931,485.753L112.931,490.103C112.931,491.103 112.431,491.603 111.431,491.603L105.831,491.603C104.881,491.603 104.331,491.003 104.331,489.903L104.331,468.703C104.331,462.403 105.331,455.703 116.581,455.703C127.831,455.703 128.831,462.403 128.831,468.703L128.831,489.903ZM120.231,468.703C120.231,466.303 119.881,465.103 116.581,465.103C113.281,465.103 112.931,466.303 112.931,468.703L112.931,474.153C112.931,475.103 113.481,475.653 114.431,475.653L118.731,475.653C119.731,475.603 120.231,475.103 120.231,474.103L120.231,468.703Z" style="fill:rgb(255,136,5);fill-rule:nonzero;"/><path d="M171.581,456.603C172.581,456.603 173.081,457.103 173.081,458.103L173.081,463.703C173.081,464.653 172.581,465.203 171.581,465.203L158.981,465.203C158.031,465.203 157.481,465.703 157.481,466.703L157.481,468.303C157.481,469.253 158.031,469.803 158.981,469.803L167.231,469.803C168.231,469.803 168.731,470.303 168.731,471.303L168.731,476.903C168.731,477.853 168.231,478.403 167.231,478.403L158.981,478.403C158.031,478.403 157.481,478.903 157.481,479.903L157.481,490.103C157.481,491.053 156.981,491.603 155.981,491.603L150.081,491.603C149.131,491.603 148.581,491.053 148.581,490.103L148.581,458.103C148.581,457.103 149.131,456.603 150.081,456.603L171.581,456.603Z" style="fill:rgb(255,136,5);fill-rule:nonzero;"/><path d="M197.131,479.053C197.031,478.803 197.081,478.553 197.281,478.403C199.931,476.503 201.081,473.253 201.081,468.603C201.081,460.403 197.481,456.603 188.581,456.603L177.631,456.603C176.731,456.603 176.081,457.253 176.081,458.153L176.081,490.053C176.081,490.953 176.731,491.603 177.631,491.603L183.231,491.603C184.131,491.603 184.781,490.953 184.781,490.053L184.781,482.153C184.781,481.253 185.431,480.603 186.331,480.603L188.331,480.603C188.481,480.603 188.631,480.703 188.731,480.853L193.931,490.903C194.131,491.353 194.581,491.603 195.081,491.603L200.781,491.603C202.331,491.603 203.131,490.203 202.431,488.903L197.131,479.053ZM188.881,465.203C191.281,465.203 192.481,465.503 192.481,468.603C192.481,471.703 191.281,472.003 188.881,472.003L186.331,472.003C185.431,472.003 184.781,471.353 184.781,470.453L184.781,466.753C184.781,465.853 185.431,465.203 186.331,465.203L188.881,465.203Z" style="fill:rgb(255,136,5);fill-rule:nonzero;"/><path d="M228.231,456.603C229.231,456.603 229.731,457.103 229.731,458.103L229.731,463.703C229.731,464.653 229.231,465.203 228.231,465.203L216.131,465.203C215.181,465.203 214.631,465.703 214.631,466.703L214.631,468.303C214.631,469.253 215.181,469.803 216.131,469.803L223.881,469.803C224.881,469.803 225.381,470.303 225.381,471.303L225.381,476.903C225.381,477.853 224.881,478.403 223.881,478.403L216.131,478.403C215.181,478.403 214.631,478.903 214.631,479.903L214.631,481.503C214.631,482.453 215.181,483.003 216.131,483.003L228.231,483.003C229.231,483.003 229.731,483.503 229.731,484.503L229.731,490.103C229.731,491.103 229.231,491.603 228.231,491.603L207.231,491.603C206.281,491.603 205.731,491.053 205.731,490.103L205.731,458.103C205.731,457.103 206.281,456.603 207.231,456.603L228.231,456.603Z" style="fill:rgb(255,136,5);fill-rule:nonzero;"/><path d="M256.081,456.603C257.081,456.603 257.581,457.103 257.581,458.103L257.581,463.703C257.581,464.653 257.081,465.203 256.081,465.203L243.981,465.203C243.031,465.203 242.481,465.703 242.481,466.703L242.481,468.303C242.481,469.253 243.031,469.803 243.981,469.803L251.731,469.803C252.731,469.803 253.231,470.303 253.231,471.303L253.231,476.903C253.231,477.853 252.731,478.403 251.731,478.403L243.981,478.403C243.031,478.403 242.481,478.903 242.481,479.903L242.481,481.503C242.481,482.453 243.031,483.003 243.981,483.003L256.081,483.003C257.081,483.003 257.581,483.503 257.581,484.503L257.581,490.103C257.581,491.103 257.081,491.603 256.081,491.603L235.081,491.603C234.131,491.603 233.581,491.053 233.581,490.103L233.581,458.103C233.581,457.103 234.131,456.603 235.081,456.603L256.081,456.603Z" style="fill:rgb(255,136,5);fill-rule:nonzero;"/><path d="M284.431,466.703C284.431,465.703 283.931,465.203 282.931,465.203L275.931,465.203C274.981,465.203 274.431,464.653 274.431,463.703L274.431,458.103C274.431,457.103 274.981,456.603 275.931,456.603L301.531,456.603C302.531,456.603 303.031,457.103 303.031,458.103L303.031,463.703C303.031,464.653 302.531,465.203 301.531,465.203L294.531,465.203C293.581,465.203 293.031,465.703 293.031,466.703L293.031,490.103C293.031,491.053 292.531,491.603 291.531,491.603L285.931,491.603C284.981,491.603 284.431,491.053 284.431,490.103L284.431,466.703Z" style="fill:rgb(255,136,5);fill-rule:nonzero;"/><path d="M330.131,467.853C330.131,464.553 329.431,455.703 317.581,455.703C305.731,455.703 305.031,464.553 305.031,467.853L305.031,480.353C305.031,483.653 305.731,492.503 317.581,492.503C329.431,492.503 330.131,483.653 330.131,480.353L330.131,467.853ZM321.531,477.703C321.531,481.553 321.281,483.903 317.581,483.903C313.881,483.903 313.631,481.553 313.631,477.703L313.631,470.503C313.631,466.653 313.881,464.303 317.581,464.303C321.281,464.303 321.531,466.653 321.531,470.503L321.531,477.703Z" style="fill:rgb(255,136,5);fill-rule:nonzero;"/><path d="M359.231,467.853C359.231,464.553 358.531,455.703 346.681,455.703C334.831,455.703 334.131,464.553 334.131,467.853L334.131,480.353C334.131,483.653 334.831,492.503 346.681,492.503C358.531,492.503 359.231,483.653 359.231,480.353L359.231,467.853ZM350.631,477.703C350.631,481.553 350.381,483.903 346.681,483.903C342.981,483.903 342.731,481.553 342.731,477.703L342.731,470.503C342.731,466.653 342.981,464.303 346.681,464.303C350.381,464.303 350.631,466.653 350.631,470.503L350.631,477.703Z" style="fill:rgb(255,136,5);fill-rule:nonzero;"/><path d="M370.831,456.603C371.831,456.603 372.331,457.103 372.331,458.103L372.331,481.503C372.331,482.453 372.881,483.003 373.831,483.003L384.981,483.003C385.981,483.003 386.481,483.503 386.481,484.503L386.481,490.103C386.481,491.103 385.981,491.603 384.981,491.603L365.231,491.603C364.281,491.603 363.731,491.053 363.731,490.103L363.731,458.103C363.731,457.103 364.281,456.603 365.231,456.603L370.831,456.603Z" style="fill:rgb(255,136,5);fill-rule:nonzero;"/><path d="M427.581,456.603C428.581,456.603 429.081,457.103 429.081,458.103L429.081,463.703C429.081,464.653 428.581,465.203 427.581,465.203L414.981,465.203C414.031,465.203 413.481,465.703 413.481,466.703L413.481,468.303C413.481,469.253 414.031,469.803 414.981,469.803L423.231,469.803C424.231,469.803 424.731,470.303 424.731,471.303L424.731,476.903C424.731,477.853 424.231,478.403 423.231,478.403L414.981,478.403C414.031,478.403 413.481,478.903 413.481,479.903L413.481,490.103C413.481,491.053 412.981,491.603 411.981,491.603L406.081,491.603C405.131,491.603 404.581,491.053 404.581,490.103L404.581,458.103C404.581,457.103 405.131,456.603 406.081,456.603L427.581,456.603Z" style="fill:rgb(255,136,5);fill-rule:nonzero;"/><path d="M456.181,467.853C456.181,464.553 455.481,455.703 443.631,455.703C431.781,455.703 431.081,464.553 431.081,467.853L431.081,480.353C431.081,483.653 431.781,492.503 443.631,492.503C455.481,492.503 456.181,483.653 456.181,480.353L456.181,467.853ZM447.581,477.703C447.581,481.553 447.331,483.903 443.631,483.903C439.931,483.903 439.681,481.553 439.681,477.703L439.681,470.503C439.681,466.653 439.931,464.303 443.631,464.303C447.331,464.303 447.581,466.653 447.581,470.503L447.581,477.703Z" style="fill:rgb(255,136,5);fill-rule:nonzero;"/><path d="M481.731,479.053C481.631,478.803 481.681,478.553 481.881,478.403C484.531,476.503 485.681,473.253 485.681,468.603C485.681,460.403 482.081,456.603 473.181,456.603L462.231,456.603C461.331,456.603 460.681,457.253 460.681,458.153L460.681,490.053C460.681,490.953 461.331,491.603 462.231,491.603L467.831,491.603C468.731,491.603 469.381,490.953 469.381,490.053L469.381,482.153C469.381,481.253 470.031,480.603 470.931,480.603L472.931,480.603C473.081,480.603 473.231,480.703 473.331,480.853L478.531,490.903C478.731,491.353 479.181,491.603 479.681,491.603L485.381,491.603C486.931,491.603 487.731,490.203 487.031,488.903L481.731,479.053ZM473.481,465.203C475.881,465.203 477.081,465.503 477.081,468.603C477.081,471.703 475.881,472.003 473.481,472.003L470.931,472.003C470.031,472.003 469.381,471.353 469.381,470.453L469.381,466.753C469.381,465.853 470.031,465.203 470.931,465.203L473.481,465.203Z" style="fill:rgb(255,136,5);fill-rule:nonzero;"/><path d="M517.181,456.603C518.081,456.603 518.581,457.103 518.781,457.953L522.331,472.503C522.431,473.003 522.831,473.003 522.931,472.503L526.481,457.953C526.681,457.103 527.181,456.603 528.081,456.603L538.431,456.603C539.431,456.603 539.931,457.103 539.931,458.103L539.931,490.103C539.931,491.053 539.431,491.603 538.431,491.603L532.831,491.603C531.881,491.603 531.331,491.053 531.331,490.103L531.331,470.403C531.331,470.053 530.881,470.003 530.781,470.353L525.931,490.303C525.731,491.153 525.181,491.603 524.281,491.603L520.981,491.603C520.081,491.603 519.531,491.153 519.331,490.303L514.481,470.353C514.381,470.003 513.931,470.053 513.931,470.403L513.931,490.103C513.931,491.053 513.431,491.603 512.431,491.603L506.831,491.603C505.831,491.603 505.331,491.053 505.331,490.103L505.331,458.103C505.331,457.103 505.831,456.603 506.831,456.603L517.181,456.603Z" style="fill:rgb(255,136,5);fill-rule:nonzero;"/><path d="M567.431,456.603C568.431,456.603 568.931,457.103 568.931,458.103L568.931,463.703C568.931,464.653 568.431,465.203 567.431,465.203L555.331,465.203C554.381,465.203 553.831,465.703 553.831,466.703L553.831,468.303C553.831,469.253 554.381,469.803 555.331,469.803L563.081,469.803C564.081,469.803 564.581,470.303 564.581,471.303L564.581,476.903C564.581,477.853 564.081,478.403 563.081,478.403L555.331,478.403C554.381,478.403 553.831,478.903 553.831,479.903L553.831,481.503C553.831,482.453 554.381,483.003 555.331,483.003L567.431,483.003C568.431,483.003 568.931,483.503 568.931,484.503L568.931,490.103C568.931,491.103 568.431,491.603 567.431,491.603L546.431,491.603C545.481,491.603 544.931,491.053 544.931,490.103L544.931,458.103C544.931,457.103 545.481,456.603 546.431,456.603L567.431,456.603Z" style="fill:rgb(255,136,5);fill-rule:nonzero;"/><path d="M574.281,456.603C573.281,456.653 572.781,457.153 572.781,458.153L572.781,490.103C572.781,491.053 573.331,491.603 574.281,491.603L585.431,491.603C594.831,491.603 597.931,487.753 597.931,479.553L597.931,468.603C597.931,460.403 594.831,456.603 585.431,456.603L574.281,456.603ZM582.881,483.003C581.931,483.003 581.381,482.453 581.381,481.503L581.381,466.703C581.381,465.703 581.931,465.203 582.881,465.203L585.581,465.203C587.981,465.203 589.181,465.503 589.181,468.603L589.181,479.603C589.181,482.603 587.981,483.003 585.581,483.003L582.881,483.003Z" style="fill:rgb(255,136,5);fill-rule:nonzero;"/><path d="M609.431,456.603C610.431,456.603 610.931,457.103 610.931,458.103L610.931,490.103C610.931,491.053 610.431,491.603 609.431,491.603L603.931,491.603C602.981,491.603 602.431,491.053 602.431,490.103L602.431,458.103C602.431,457.103 602.981,456.603 603.931,456.603L609.431,456.603Z" style="fill:rgb(255,136,5);fill-rule:nonzero;"/><path d="M615.431,480.353C615.431,483.653 616.131,492.503 627.981,492.503C638.631,492.503 640.281,485.353 640.481,481.553C640.531,480.803 640.081,480.253 639.381,480.103L633.731,478.853C632.731,478.603 631.931,479.253 631.781,480.303C631.481,482.603 630.731,483.903 627.981,483.903C624.281,483.903 624.031,481.553 624.031,477.703L624.031,470.503C624.031,466.653 624.281,464.303 627.981,464.303C630.681,464.303 631.581,465.603 631.831,467.803C631.981,468.853 632.781,469.553 633.831,469.353L639.381,468.103C640.081,467.953 640.531,467.403 640.481,466.703C640.281,462.853 638.631,455.703 627.981,455.703C616.131,455.703 615.431,464.553 615.431,467.853L615.431,480.353Z" style="fill:rgb(255,136,5);fill-rule:nonzero;"/><path d="M668.181,489.903C668.181,491.003 667.681,491.603 666.681,491.603L661.081,491.603C660.131,491.603 659.581,491.103 659.581,490.103L659.581,485.753C659.581,484.753 659.081,484.253 658.081,484.253L653.781,484.253C652.831,484.253 652.281,484.753 652.281,485.753L652.281,490.103C652.281,491.103 651.781,491.603 650.781,491.603L645.181,491.603C644.231,491.603 643.681,491.003 643.681,489.903L643.681,468.703C643.681,462.403 644.681,455.703 655.931,455.703C667.181,455.703 668.181,462.403 668.181,468.703L668.181,489.903ZM659.581,468.703C659.581,466.303 659.231,465.103 655.931,465.103C652.631,465.103 652.281,466.303 652.281,468.703L652.281,474.153C652.281,475.103 652.831,475.653 653.781,475.653L658.081,475.653C659.081,475.603 659.581,475.103 659.581,474.103L659.581,468.703Z" style="fill:rgb(255,136,5);fill-rule:nonzero;"/><path d="M680.031,456.603C681.031,456.603 681.531,457.103 681.531,458.103L681.531,481.503C681.531,482.453 682.081,483.003 683.031,483.003L694.181,483.003C695.181,483.003 695.681,483.503 695.681,484.503L695.681,490.103C695.681,491.103 695.181,491.603 694.181,491.603L674.431,491.603C673.481,491.603 672.931,491.053 672.931,490.103L672.931,458.103C672.931,457.103 673.481,456.603 674.431,456.603L680.031,456.603Z" style="fill:rgb(255,136,5);fill-rule:nonzero;"/><path d="M736.281,456.603C737.281,456.603 737.781,457.103 737.781,458.103L737.781,463.703C737.781,464.653 737.281,465.203 736.281,465.203L724.181,465.203C723.231,465.203 722.681,465.703 722.681,466.703L722.681,468.303C722.681,469.253 723.231,469.803 724.181,469.803L731.931,469.803C732.931,469.803 733.431,470.303 733.431,471.303L733.431,476.903C733.431,477.853 732.931,478.403 731.931,478.403L724.181,478.403C723.231,478.403 722.681,478.903 722.681,479.903L722.681,481.503C722.681,482.453 723.231,483.003 724.181,483.003L736.281,483.003C737.281,483.003 737.781,483.503 737.781,484.503L737.781,490.103C737.781,491.103 737.281,491.603 736.281,491.603L715.281,491.603C714.331,491.603 713.781,491.053 713.781,490.103L713.781,458.103C713.781,457.103 714.331,456.603 715.281,456.603L736.281,456.603Z" style="fill:rgb(255,136,5);fill-rule:nonzero;"/><path d="M743.131,456.603C742.131,456.653 741.631,457.153 741.631,458.153L741.631,490.103C741.631,491.053 742.181,491.603 743.131,491.603L754.281,491.603C763.681,491.603 766.781,487.753 766.781,479.553L766.781,468.603C766.781,460.403 763.681,456.603 754.281,456.603L743.131,456.603ZM751.731,483.003C750.781,483.003 750.231,482.453 750.231,481.503L750.231,466.703C750.231,465.703 750.781,465.203 751.731,465.203L754.431,465.203C756.831,465.203 758.031,465.503 758.031,468.603L758.031,479.603C758.031,482.603 756.831,483.003 754.431,483.003L751.731,483.003Z" style="fill:rgb(255,136,5);fill-rule:nonzero;"/><path d="M772.481,456.603C771.531,456.603 770.981,457.103 770.981,458.103L770.981,480.353C770.981,483.653 771.681,492.503 783.531,492.503C795.381,492.503 796.081,483.653 796.081,480.353L796.081,458.103C796.081,457.103 795.581,456.603 794.581,456.603L788.981,456.603C788.031,456.603 787.481,457.103 787.481,458.103L787.481,477.703C787.481,481.553 787.231,483.903 783.531,483.903C779.831,483.903 779.581,481.553 779.581,477.703L779.581,458.103C779.581,457.103 779.081,456.603 778.081,456.603L772.481,456.603Z" style="fill:rgb(255,136,5);fill-rule:nonzero;"/><path d="M800.281,480.353C800.281,483.653 800.981,492.503 812.831,492.503C823.481,492.503 825.131,485.353 825.331,481.553C825.381,480.803 824.931,480.253 824.231,480.103L818.581,478.853C817.581,478.603 816.781,479.253 816.631,480.303C816.331,482.603 815.581,483.903 812.831,483.903C809.131,483.903 808.881,481.553 808.881,477.703L808.881,470.503C808.881,466.653 809.131,464.303 812.831,464.303C815.531,464.303 816.431,465.603 816.681,467.803C816.831,468.853 817.631,469.553 818.681,469.353L824.231,468.103C824.931,467.953 825.381,467.403 825.331,466.703C825.131,462.853 823.481,455.703 812.831,455.703C800.981,455.703 800.281,464.553 800.281,467.853L800.281,480.353Z" style="fill:rgb(255,136,5);fill-rule:nonzero;"/><path d="M853.031,489.903C853.031,491.003 852.531,491.603 851.531,491.603L845.931,491.603C844.981,491.603 844.431,491.103 844.431,490.103L844.431,485.753C844.431,484.753 843.931,484.253 842.931,484.253L838.631,484.253C837.681,484.253 837.131,484.753 837.131,485.753L837.131,490.103C837.131,491.103 836.631,491.603 835.631,491.603L830.031,491.603C829.081,491.603 828.531,491.003 828.531,489.903L828.531,468.703C828.531,462.403 829.531,455.703 840.781,455.703C852.031,455.703 853.031,462.403 853.031,468.703L853.031,489.903ZM844.431,468.703C844.431,466.303 844.081,465.103 840.781,465.103C837.481,465.103 837.131,466.303 837.131,468.703L837.131,474.153C837.131,475.103 837.681,475.653 838.631,475.653L842.931,475.653C843.931,475.603 844.431,475.103 844.431,474.103L844.431,468.703Z" style="fill:rgb(255,136,5);fill-rule:nonzero;"/><path d="M864.781,466.703C864.781,465.703 864.281,465.203 863.281,465.203L856.281,465.203C855.331,465.203 854.781,464.653 854.781,463.703L854.781,458.103C854.781,457.103 855.331,456.603 856.281,456.603L881.881,456.603C882.881,456.603 883.381,457.103 883.381,458.103L883.381,463.703C883.381,464.653 882.881,465.203 881.881,465.203L874.881,465.203C873.931,465.203 873.381,465.703 873.381,466.703L873.381,490.103C873.381,491.053 872.881,491.603 871.881,491.603L866.281,491.603C865.331,491.603 864.781,491.053 864.781,490.103L864.781,466.703Z" style="fill:rgb(255,136,5);fill-rule:nonzero;"/><path d="M910.481,467.853C910.481,464.553 909.781,455.703 897.931,455.703C886.081,455.703 885.381,464.553 885.381,467.853L885.381,480.353C885.381,483.653 886.081,492.503 897.931,492.503C909.781,492.503 910.481,483.653 910.481,480.353L910.481,467.853ZM901.881,477.703C901.881,481.553 901.631,483.903 897.931,483.903C894.231,483.903 893.981,481.553 893.981,477.703L893.981,470.503C893.981,466.653 894.231,464.303 897.931,464.303C901.631,464.303 901.881,466.653 901.881,470.503L901.881,477.703Z" style="fill:rgb(255,136,5);fill-rule:nonzero;"/><path d="M936.031,479.053C935.931,478.803 935.981,478.553 936.181,478.403C938.831,476.503 939.981,473.253 939.981,468.603C939.981,460.403 936.381,456.603 927.481,456.603L916.531,456.603C915.631,456.603 914.981,457.253 914.981,458.153L914.981,490.053C914.981,490.953 915.631,491.603 916.531,491.603L922.131,491.603C923.031,491.603 923.681,490.953 923.681,490.053L923.681,482.153C923.681,481.253 924.331,480.603 925.231,480.603L927.231,480.603C927.381,480.603 927.531,480.703 927.631,480.853L932.831,490.903C933.031,491.353 933.481,491.603 933.981,491.603L939.681,491.603C941.231,491.603 942.031,490.203 941.331,488.903L936.031,479.053ZM927.781,465.203C930.181,465.203 931.381,465.503 931.381,468.603C931.381,471.703 930.181,472.003 927.781,472.003L925.231,472.003C924.331,472.003 923.681,471.353 923.681,470.453L923.681,466.753C923.681,465.853 924.331,465.203 925.231,465.203L927.781,465.203Z" style="fill:rgb(255,136,5);fill-rule:nonzero;"/><path d="M967.031,467.753C967.931,467.553 968.381,467.003 968.331,466.103C968.031,462.503 965.631,455.803 955.331,455.803C944.131,455.803 943.231,464.653 943.281,466.153C943.281,477.653 958.331,476.703 959.281,480.953C959.581,482.303 957.781,483.753 955.331,483.753C952.981,483.753 951.131,482.353 950.931,479.953C950.831,478.903 950.281,478.453 949.281,478.653L943.631,479.903C942.731,480.103 942.281,480.653 942.331,481.553C942.581,485.453 944.831,492.353 955.331,492.353C967.181,492.353 968.881,483.503 968.881,482.003C968.881,470.503 953.081,470.603 952.381,466.703C952.181,465.553 953.381,464.403 955.331,464.403C957.681,464.403 959.331,465.703 959.681,467.753C959.831,468.753 960.331,469.203 961.331,469.003L967.031,467.753Z" style="fill:rgb(255,136,5);fill-rule:nonzero;"/><defs><linearGradient id="_Linear1" x1="0" y1="0" x2="1" y2="0" gradientUnits="userSpaceOnUse" gradientTransform="matrix(1266.47,-474.289,474.289,1266.47,21.2341,411.834)"><stop offset="0" style="stop-color:rgb(254,145,25);stop-opacity:1"/><stop offset="0.32" style="stop-color:rgb(252,69,117);stop-opacity:1"/><stop offset="1" style="stop-color:rgb(157,0,205);stop-opacity:1"/></linearGradient><linearGradient id="_Linear2" x1="0" y1="0" x2="1" y2="0" gradientUnits="userSpaceOnUse" gradientTransform="matrix(1266.47,-474.289,474.289,1266.47,21.2341,411.834)"><stop offset="0" style="stop-color:rgb(254,145,25);stop-opacity:1"/><stop offset="0.32" style="stop-color:rgb(252,69,117);stop-opacity:1"/><stop offset="1" style="stop-color:rgb(157,0,205);stop-opacity:1"/></linearGradient><linearGradient id="_Linear3" x1="0" y1="0" x2="1" y2="0" gradientUnits="userSpaceOnUse" gradientTransform="matrix(1266.47,-474.289,474.289,1266.47,21.2341,411.834)"><stop offset="0" style="stop-color:rgb(254,145,25);stop-opacity:1"/><stop offset="0.32" style="stop-color:rgb(252,69,117);stop-opacity:1"/><stop offset="1" style="stop-color:rgb(157,0,205);stop-opacity:1"/></linearGradient><linearGradient id="_Linear4" x1="0" y1="0" x2="1" y2="0" gradientUnits="userSpaceOnUse" gradientTransform="matrix(1266.47,-474.289,474.289,1266.47,21.2341,411.834)"><stop offset="0" style="stop-color:rgb(254,145,25);stop-opacity:1"/><stop offset="0.32" style="stop-color:rgb(252,69,117);stop-opacity:1"/><stop offset="1" style="stop-color:rgb(157,0,205);stop-opacity:1"/></linearGradient><linearGradient id="_Linear5" x1="0" y1="0" x2="1" y2="0" gradientUnits="userSpaceOnUse" gradientTransform="matrix(1266.47,-474.289,474.289,1266.47,21.2341,411.834)"><stop offset="0" style="stop-color:rgb(254,145,25);stop-opacity:1"/><stop offset="0.32" style="stop-color:rgb(252,69,117);stop-opacity:1"/><stop offset="1" style="stop-color:rgb(157,0,205);stop-opacity:1"/></linearGradient><linearGradient id="_Linear6" x1="0" y1="0" x2="1" y2="0" gradientUnits="userSpaceOnUse" gradientTransform="matrix(1266.47,-474.289,474.289,1266.47,21.2341,411.834)"><stop offset="0" style="stop-color:rgb(254,145,25);stop-opacity:1"/><stop offset="0.32" style="stop-color:rgb(252,69,117);stop-opacity:1"/><stop offset="1" style="stop-color:rgb(157,0,205);stop-opacity:1"/></linearGradient><linearGradient id="_Linear7" x1="0" y1="0" x2="1" y2="0" gradientUnits="userSpaceOnUse" gradientTransform="matrix(1266.47,-474.289,474.289,1266.47,21.2341,411.834)"><stop offset="0" style="stop-color:rgb(254,145,25);stop-opacity:1"/><stop offset="0.32" style="stop-color:rgb(252,69,117);stop-opacity:1"/><stop offset="1" style="stop-color:rgb(157,0,205);stop-opacity:1"/></linearGradient><linearGradient id="_Linear8" x1="0" y1="0" x2="1" y2="0" gradientUnits="userSpaceOnUse" gradientTransform="matrix(1266.47,-474.289,474.289,1266.47,21.2341,411.834)"><stop offset="0" style="stop-color:rgb(254,145,25);stop-opacity:1"/><stop offset="0.32" style="stop-color:rgb(252,69,117);stop-opacity:1"/><stop offset="1" style="stop-color:rgb(157,0,205);stop-opacity:1"/></linearGradient><linearGradient id="_Linear9" x1="0" y1="0" x2="1" y2="0" gradientUnits="userSpaceOnUse" gradientTransform="matrix(1266.47,-474.289,474.289,1266.47,21.2341,411.834)"><stop offset="0" style="stop-color:rgb(254,145,25);stop-opacity:1"/><stop offset="0.32" style="stop-color:rgb(252,69,117);stop-opacity:1"/><stop offset="1" style="stop-color:rgb(157,0,205);stop-opacity:1"/></linearGradient><linearGradient id="_Linear10" x1="0" y1="0" x2="1" y2="0" gradientUnits="userSpaceOnUse" gradientTransform="matrix(1266.47,-474.289,474.289,1266.47,21.2341,411.834)"><stop offset="0" style="stop-color:rgb(254,145,25);stop-opacity:1"/><stop offset="0.32" style="stop-color:rgb(252,69,117);stop-opacity:1"/><stop offset="1" style="stop-color:rgb(157,0,205);stop-opacity:1"/></linearGradient><linearGradient id="_Linear11" x1="0" y1="0" x2="1" y2="0" gradientUnits="userSpaceOnUse" gradientTransform="matrix(1692.43,-633.809,633.809,1692.43,-159.533,707.703)"><stop offset="0" style="stop-color:rgb(254,145,25);stop-opacity:1"/><stop offset="0.32" style="stop-color:rgb(252,69,117);stop-opacity:1"/><stop offset="1" style="stop-color:rgb(157,0,205);stop-opacity:1"/></linearGradient><linearGradient id="_Linear12" x1="0" y1="0" x2="1" y2="0" gradientUnits="userSpaceOnUse" gradientTransform="matrix(1692.43,-633.809,633.809,1692.43,-159.533,707.703)"><stop offset="0" style="stop-color:rgb(254,145,25);stop-opacity:1"/><stop offset="0.32" style="stop-color:rgb(252,69,117);stop-opacity:1"/><stop offset="1" style="stop-color:rgb(157,0,205);stop-opacity:1"/></linearGradient><linearGradient id="_Linear13" x1="0" y1="0" x2="1" y2="0" gradientUnits="userSpaceOnUse" gradientTransform="matrix(1692.43,-633.809,633.809,1692.43,-159.533,707.703)"><stop offset="0" style="stop-color:rgb(254,145,25);stop-opacity:1"/><stop offset="0.32" style="stop-color:rgb(252,69,117);stop-opacity:1"/><stop offset="1" style="stop-color:rgb(157,0,205);stop-opacity:1"/></linearGradient><linearGradient id="_Linear14" x1="0" y1="0" x2="1" y2="0" gradientUnits="userSpaceOnUse" gradientTransform="matrix(1692.43,-633.809,633.809,1692.43,-159.533,707.703)"><stop offset="0" style="stop-color:rgb(254,145,25);stop-opacity:1"/><stop offset="0.32" style="stop-color:rgb(252,69,117);stop-opacity:1"/><stop offset="1" style="stop-color:rgb(157,0,205);stop-opacity:1"/></linearGradient><linearGradient id="_Linear15" x1="0" y1="0" x2="1" y2="0" gradientUnits="userSpaceOnUse" gradientTransform="matrix(1692.43,-633.809,633.809,1692.43,-159.533,707.703)"><stop offset="0" style="stop-color:rgb(254,145,25);stop-opacity:1"/><stop offset="0.32" style="stop-color:rgb(252,69,117);stop-opacity:1"/><stop offset="1" style="stop-color:rgb(157,0,205);stop-opacity:1"/></linearGradient><linearGradient id="_Linear16" x1="0" y1="0" x2="1" y2="0" gradientUnits="userSpaceOnUse" gradientTransform="matrix(1692.43,-633.809,633.809,1692.43,-159.533,707.703)"><stop offset="0" style="stop-color:rgb(254,145,25);stop-opacity:1"/><stop offset="0.32" style="stop-color:rgb(252,69,117);stop-opacity:1"/><stop offset="1" style="stop-color:rgb(157,0,205);stop-opacity:1"/></linearGradient><linearGradient id="_Linear17" x1="0" y1="0" x2="1" y2="0" gradientUnits="userSpaceOnUse" gradientTransform="matrix(1692.43,-633.809,633.809,1692.43,-159.533,707.703)"><stop offset="0" style="stop-color:rgb(254,145,25);stop-opacity:1"/><stop offset="0.32" style="stop-color:rgb(252,69,117);stop-opacity:1"/><stop offset="1" style="stop-color:rgb(157,0,205);stop-opacity:1"/></linearGradient></defs></svg>