<?xml version="1.0" encoding="UTF-8" standalone="no"?><!DOCTYPE svg PUBLIC "-//W3C//DTD SVG 1.1//EN" "http://www.w3.org/Graphics/SVG/1.1/DTD/svg11.dtd"><svg width="1062px" height="376px" version="1.1" xmlns="http://www.w3.org/2000/svg" xmlns:xlink="http://www.w3.org/1999/xlink" xml:space="preserve" xmlns:serif="http://www.serif.com/" style="fill-rule:evenodd;clip-rule:evenodd;stroke-linejoin:round;stroke-miterlimit:2;"><g><g><path d="M98.881,59.176C104.046,57.333 104.164,52.239 104.069,50.091C102.42,24.853 90.382,14.11 87.907,11.901C81.614,6.285 70.946,0.417 52.015,0.415C30.497,0.412 20.988,8.855 16.798,13.386C4.802,26.356 3.701,47.947 3.814,52.875C3.816,121.361 64.096,112.11 67.912,132.129C69.109,138.447 61.984,145.669 52.074,146.604C43.387,147.423 35.287,142.825 34.445,130.206C34.002,124.397 31.433,122.788 27.836,123.928C18.597,127.11 10.601,129.63 5.217,131.247C1.506,132.366 -0.178,135.305 0.015,139.414C0.967,156.972 7.486,178.814 52.071,174.691C85.413,171.608 95.972,157.681 98.756,153.888C106.211,143.727 106.426,132.295 106.426,131.94C106.413,105.077 89.918,91.708 80.727,85.431C62.962,73.298 41.82,68.302 40.222,55.721C39.426,49.256 44.129,42.774 52.02,42.633C61.148,42.471 68.001,49.038 69.448,60.684C69.909,64.903 71.306,68.921 76.064,67.332C78.2,66.561 88.78,62.741 98.881,59.176Z" style="fill:url(#_Linear1);fill-rule:nonzero;"/><path d="M148.615,3.707C153.687,3.696 154.617,7.109 154.621,10.062C154.68,55.679 155.099,104.812 154.992,153.521C154.987,156.011 153.234,157.98 148.96,158.744C147.536,158.999 137.218,160.847 126.881,162.591C122.896,163.264 120.864,162.025 120.868,159.485C120.784,109.755 120.7,60.024 120.616,10.294C120.613,5.226 123.503,3.756 126.614,3.751C133.948,3.736 141.281,3.721 148.615,3.707Z" style="fill:url(#_Linear2);fill-rule:nonzero;"/><path d="M222.019,3.545C226.442,3.537 227.878,6.588 228.431,8.92C232.711,26.348 237.752,47.756 243.073,69.419C243.488,71.474 245.097,71.318 245.478,69.183C249.527,50.675 254.187,29.414 259.234,8.77C259.798,6.378 261.272,3.486 265.62,3.482C279.42,3.482 293.22,3.481 307.02,3.481C309.72,3.483 313.017,4.372 313.038,9.275C313.215,51.417 314.154,80.43 313.902,129.161C313.882,133.079 309.831,133.743 307.867,133.91C301.549,134.448 293.582,135.232 285.42,136.179C281.413,136.644 279.416,135.255 279.428,132.652C279.55,106.917 279.402,90.169 279.054,57.866C279.039,56.485 277.233,56.393 276.849,57.809C266.035,104.898 262.318,122.163 257.763,136.179C256.754,139.382 253.636,140.435 251.125,140.817C250.065,140.978 244.722,141.791 237.882,142.901C235.657,143.262 232.305,143.367 231.276,140.36C230.43,137.971 226.635,129.119 211.533,63.066C211.125,61.543 209.32,61.923 209.33,63.494C209.573,98.59 209.689,117.728 209.6,143.539C209.592,145.984 207.936,148.021 203.562,148.806C196.067,150.17 188.573,151.533 181.079,152.896C179.358,153.212 175.058,153.781 175.069,149.841C175.196,101.948 174.704,55.676 174.624,9.912C174.619,6.757 175.729,3.646 180.617,3.634C194.417,3.605 208.218,3.575 222.019,3.545Z" style="fill:url(#_Linear3);fill-rule:nonzero;"/><path d="M337.819,3.532C333.953,3.522 331.821,5.575 331.837,9.33C331.955,37.676 332.527,64.726 332.714,92.677C332.877,117.003 343.654,124.016 345.549,125.391C351.675,129.837 361.85,133.871 382.879,135.023C396.287,135.757 411.654,135.251 420.926,128.871C422.987,127.453 433.147,121.147 433.009,97.622C432.838,68.539 432.35,38.159 432.237,9.301C432.223,5.591 430.369,3.474 426.22,3.473C418.753,3.475 411.287,3.476 403.82,3.478C399.924,3.481 397.822,5.546 397.838,9.27C397.943,34.199 398.38,59.511 398.604,83.965C398.741,98.872 397.691,107.505 382.966,106.67C368.298,105.838 367.184,97.09 367.04,82.278C366.806,58.261 366.338,34.414 366.236,9.378C366.221,5.741 364.411,3.546 360.218,3.559C350.599,3.589 350.622,3.564 337.819,3.532Z" style="fill:url(#_Linear4);fill-rule:nonzero;"/><path d="M479.419,3.533C484.166,3.542 485.423,6.38 485.432,9.565C485.522,40.743 485.955,78.577 486.065,110.011C486.079,113.957 488.376,116.489 492.06,117.135C506.994,119.752 523.014,122.72 536.488,125.199C538.423,125.555 542.468,126.752 542.468,132.485C542.461,138.847 542.454,145.21 542.446,151.572C542.438,154.883 539.65,155.204 536.456,154.613C511.13,149.92 484.123,144.848 457.73,140.802C453.846,140.207 451.758,138.338 451.769,135.67C451.98,88.363 451.194,53.457 451.036,9.37C451.022,5.418 453.278,3.493 457.02,3.498C464.486,3.51 471.952,3.521 479.419,3.533Z" style="fill:url(#_Linear5);fill-rule:nonzero;"/><path d="M651.503,167.88C651.502,169.959 650.597,172.432 645.512,171.883C639.354,171.218 631.432,170.273 623.167,169.155C621.25,168.895 617.185,168.032 617.189,164.247C617.191,159.545 617.193,154.844 617.195,150.143C617.195,147.059 615.744,144.049 611.214,143.371C602.984,142.141 595.441,140.902 594.071,140.677C590.01,140.01 588.093,142.156 588.092,145.567C588.089,150.284 588.085,155.001 588.081,159.718C588.076,162.982 585.314,163.363 582.093,162.816C571.648,161.039 561.216,159.151 559.771,158.891C556.158,158.238 553.798,156.35 553.805,153.093C553.874,122.481 553.734,94.349 553.587,60.271C553.441,26.264 558.194,0 602.415,0C645.643,-0 651.406,24.861 651.45,66.676C651.468,100.411 651.485,134.146 651.503,167.88ZM617.089,64.879C617.063,51.768 615.687,45.363 602.465,44.814C589.145,44.261 587.895,50.575 587.931,62.913C587.958,72.444 587.986,81.974 588.014,91.504C588.035,99.229 593.194,99.867 594.018,99.969C595.39,100.139 602.939,101.073 611.174,102.008C616.246,102.249 617.152,98.084 617.146,94.388C617.127,84.552 617.108,74.716 617.089,64.879Z" style="fill:url(#_Linear6);fill-rule:nonzero;"/><path d="M698.422,56.129C698.421,52.721 697.777,47.511 692.42,47.507C684.439,47.501 674.673,47.425 664.425,47.251C660.838,47.189 658.425,44.292 658.422,38.896C658.418,29.439 658.415,19.983 658.411,10.527C658.411,8.949 658.558,3.809 664.413,3.803C698.547,3.801 732.681,3.798 766.815,3.796C771.88,3.797 772.815,7.322 772.816,10.489C772.817,19.888 772.818,29.287 772.819,38.686C772.82,44.301 770.416,46.926 766.821,47.002C756.397,47.22 746.638,47.355 738.821,47.422C736.098,47.446 732.821,49.006 732.823,56.043C732.827,94.345 732.832,132.646 732.837,170.947C732.835,174.782 728.566,175.153 726.835,175.209C725.044,175.266 715.128,175.585 704.436,175.499C700.598,175.468 698.439,173.964 698.44,171.373C698.434,132.958 698.428,94.544 698.422,56.129Z" style="fill:url(#_Linear7);fill-rule:nonzero;"/><path d="M812.815,3.773C817.899,3.768 818.815,7.282 818.816,10.349C818.821,61.133 818.826,111.918 818.832,162.702C818.831,166.431 814.74,167.273 812.831,167.528C804.408,168.655 796.627,169.608 790.833,170.274C786.892,170.727 784.833,169.436 784.834,166.921C784.828,114.77 784.822,62.619 784.816,10.468C784.815,8.914 784.958,3.795 790.815,3.792C798.148,3.786 805.482,3.78 812.815,3.773Z" style="fill:url(#_Linear8);fill-rule:nonzero;"/><path d="M937.218,52.542C937.214,13.426 916.459,0 887.015,0C856.08,0 836.815,14.521 836.822,58.627C836.825,80.061 836.828,101.495 836.831,122.929C836.834,151.257 845.735,165.126 887.025,158.491C926.331,152.174 937.223,137.102 937.222,108.804C937.22,90.05 937.219,71.296 937.218,52.542ZM902.824,101.622C902.825,118.831 901.994,128.736 887.027,131.084C872.072,133.43 871.228,123.732 871.227,105.734C871.225,93.811 871.224,81.887 871.222,69.963C871.219,50.339 872.205,38.847 887.018,38.282C901.964,37.712 902.818,49.177 902.82,67.39C902.822,78.801 902.823,90.212 902.824,101.622Z" style="fill:url(#_Linear9);fill-rule:nonzero;"/><path d="M990.615,3.51C994.022,3.509 996.234,4.915 997.615,8.047C1005.45,27.09 1014.25,49.818 1024.82,75.789C1025.61,77.575 1027.22,77.105 1027.22,75.071C1027.21,53.198 1027.21,31.325 1027.21,9.452C1027.21,5.479 1029.47,3.531 1033.21,3.536C1040.68,3.552 1048.15,3.568 1055.62,3.583C1059.96,3.595 1061.62,6.003 1061.62,9.6L1061.62,133.861C1061.62,137.344 1057.86,137.773 1055.62,137.796C1047.23,137.88 1037.09,138.184 1026.22,138.808C1023.1,138.986 1020.68,138.42 1019.22,136.278C1013.86,127.879 1010.66,120.254 1005.62,108.381C999.903,94.942 995.012,82.745 992.017,75.19C991.224,73.356 989.617,73.875 989.617,75.994C989.617,96.621 989.617,117.248 989.618,137.875C989.618,141.397 985.806,142.197 983.618,142.437C977.659,143.093 969.732,144.029 961.219,145.137C957.168,145.665 955.22,144.391 955.22,141.996C955.218,97.851 955.217,53.705 955.215,9.559C955.215,5.377 957.584,3.532 961.215,3.528C971.015,3.522 980.815,3.516 990.615,3.51Z" style="fill:url(#_Linear10);fill-rule:nonzero;"/></g><g><path d="M63.396,194.089C65.815,193.839 70.443,193.658 71.958,197.153C76.445,207.122 79.864,215.394 90.933,263.671C91.466,266.519 93.629,266.196 94.144,263.359C104.398,216.848 107.134,206.733 113.2,191.639C114.699,187.78 119.156,186.678 121.785,186.261C140.589,183.281 160.206,179.828 177.261,176.831C180.615,176.242 185.297,175.96 185.276,180.035C184.949,243.524 184.949,348.338 184.949,362.973C184.949,368.051 182.225,370.991 176.931,370.991L146.997,370.991C141.944,370.991 138.979,368.026 138.979,362.973C139.027,323.852 139.075,284.731 139.123,245.611C139.126,243.525 136.713,243.558 136.179,245.709C123.579,304.994 124.429,305.161 110.114,364.042C109.051,368.561 106.084,370.991 101.294,370.991L83.655,370.991C78.865,370.991 75.898,368.561 74.835,364.042C67.838,335.262 67.721,335.314 61.878,310.259C58.156,294.299 53.638,274.647 48.936,255.26C48.406,253.407 45.993,253.851 45.993,255.743C45.985,291.486 45.978,327.23 45.97,362.973C45.97,368.051 43.246,370.991 37.952,370.991L8.018,370.991C2.724,370.991 0,368.051 0,362.973L0,201.981C-0,198.335 4.099,197.585 8.019,197.526C29.731,197.197 49.628,195.509 63.396,194.089Z" style="fill:url(#_Linear11);fill-rule:nonzero;"/><path d="M343.632,205.592C343.67,186.911 340.637,172.984 328.096,164.931C317.791,158.313 300.77,155.519 276.693,158.437C255.787,160.972 236.32,167.009 224.499,177.116C213.016,186.933 209.323,199.903 209.295,219.66C209.222,248.036 209.149,276.412 209.076,304.787C208.996,335.397 216.516,348.376 223.819,356.629C239.951,374.86 265.896,375.802 276.087,375.802C292.522,375.802 315.493,372.647 329.933,354.77C336.598,346.518 343.165,333.882 343.284,301.449C343.4,269.496 343.516,237.544 343.632,205.592ZM297.383,281.504C297.27,311.583 295.991,327.214 276.117,327.361C256.129,327.508 255.035,311.808 255.131,283.481C255.189,265.851 255.246,248.222 255.304,230.592C255.375,204.621 256.414,192.669 276.512,190.336C296.706,187.991 297.663,199.857 297.582,226.391C297.516,244.762 297.45,263.133 297.383,281.504Z" style="fill:url(#_Linear12);fill-rule:nonzero;"/><path d="M415.142,159.304C419.321,159.723 422.508,160.999 424.449,163.918C439.162,187.53 445.346,206.349 460.469,259.424C460.541,259.654 461.262,261.985 462.465,261.675C462.975,261.543 463.67,260.698 463.677,258.61C463.721,240.553 463.765,222.495 463.809,204.438C463.814,198.218 463.804,185.894 463.918,170.251C463.952,165.559 470.403,166.54 471.953,166.783C484.543,168.759 496.819,170.862 501.809,171.72C505.584,172.37 509.799,173.838 509.776,177.735C509.411,240.267 509.411,348.154 509.411,362.973C509.411,368.051 506.687,370.991 501.393,370.991L462.105,370.991C457.579,370.991 454.611,369.095 452.751,364.844C436.628,325.368 436.413,323.039 416.695,251.437C416.625,251.205 415.904,248.797 414.7,249.147C414.198,249.293 413.494,250.174 413.486,252.382C413.31,300.211 413.195,319.154 413.195,362.973C413.195,368.051 410.471,370.991 405.177,370.991L375.243,370.991C370.191,370.991 367.225,368.026 367.225,362.973C367.225,327.531 367.24,327.542 367.547,248.628C367.784,187.526 367.591,187.535 367.836,161.046C367.881,156.186 374.515,156.448 375.897,156.503C392.844,157.176 407.781,158.567 415.142,159.304Z" style="fill:url(#_Linear13);fill-rule:nonzero;"/><path d="M573.773,184.262C577.666,184.91 581.767,186.341 581.754,190.089C581.694,247.717 581.634,305.345 581.574,362.973C581.574,368.051 578.85,370.991 573.556,370.991L544.156,370.991C539.104,370.991 536.138,368.026 536.138,362.973C536.138,242.293 536.362,196.836 536.433,182.389C536.456,177.884 542.709,178.908 544.453,179.215C550.386,180.259 562.317,182.353 573.773,184.262Z" style="fill:url(#_Linear14);fill-rule:nonzero;"/><path d="M651.098,235C651.097,229.446 648.04,226.884 643.087,226.382C627.305,224.784 613.002,222.854 605.724,221.84C600.39,221.097 597.718,217.474 597.72,213.39C597.731,206.453 597.742,199.517 597.753,192.58C597.765,188.246 603.806,188.995 605.766,189.28C664.866,197.86 703.398,198.883 742.477,196.591C746.258,196.369 750.495,196.758 750.493,200.435C750.491,207.279 750.489,214.123 750.487,220.967C750.487,224.934 748.168,228.472 742.469,228.814C729.357,229.6 716.682,229.946 705.051,229.888C699.308,229.86 697.035,233.133 697.035,237.734C697.034,279.48 697.034,321.226 697.033,362.973C697.033,368.051 694.309,370.991 689.015,370.991L659.081,370.991C654.028,370.991 651.063,368.026 651.063,362.973C651.075,320.315 651.086,277.657 651.098,235Z" style="fill:url(#_Linear15);fill-rule:nonzero;"/><path d="M895.345,223.022C895.345,192.321 887.886,175.861 828.269,184.675C770.285,193.248 761.177,210.468 761.177,241.391L761.177,310.567C761.177,324.878 762.617,375.802 828.261,375.802C838.358,375.802 864.109,374.879 880.255,356.934C888.368,347.917 895.345,334.517 895.345,305.714L895.345,223.022ZM849.376,291.048C849.376,315.533 848.093,329.181 828.261,329.434C808.273,329.689 807.147,316.028 807.147,293.687L807.147,251.222C807.147,228.731 808.614,217.632 828.262,214.647C848.031,211.644 849.376,222.383 849.376,245.853L849.376,291.048Z" style="fill:url(#_Linear16);fill-rule:nonzero;"/><path d="M1031.92,291.42C1031.34,289.316 1031.78,287.354 1032.72,286.29C1034.81,284.038 1053.03,266.86 1053.03,210.471C1053.03,186.689 1049.67,174.814 1038.7,168.27C1032.7,164.694 1019.16,159.568 986.217,163.22C965.215,165.549 944.55,168.568 927.688,171.189C922.792,171.95 919.402,174.315 919.402,176.857C919.401,238.806 919.4,300.756 919.4,362.706C919.4,367.491 922.899,370.991 927.685,370.991L957.619,370.991C962.405,370.991 965.904,367.491 965.904,362.706L965.904,315.698C965.904,309.416 969.448,304.6 974.189,304.464C977.753,304.367 981.316,304.271 984.88,304.174C986.125,304.143 986.92,305.757 987.018,305.957C999.567,338.903 1003.4,345.195 1014.81,367.249C1015.87,369.617 1018.27,370.991 1020.96,370.991L1051.43,370.991C1059.7,370.991 1063.99,363.497 1060.25,356.558C1052.16,341.532 1047.59,333.933 1031.92,291.42ZM987.82,194.44C1001.84,192.873 1007.06,194.5 1007.06,213.055C1007.06,235.527 999.726,237.714 987.82,238.758C986.729,238.854 981.165,239.342 974.189,240.023C969.441,240.486 965.904,236.15 965.904,229.88L965.904,205.889C965.904,200.694 969.219,196.689 974.189,196.063C981.165,195.184 986.729,194.562 987.82,194.44Z" style="fill:url(#_Linear17);fill-rule:nonzero;"/></g></g><defs><linearGradient id="_Linear1" x1="0" y1="0" x2="1" y2="0" gradientUnits="userSpaceOnUse" gradientTransform="matrix(1266.47,-474.289,474.289,1266.47,21.2341,347.2)"><stop offset="0" style="stop-color:rgb(254,145,25);stop-opacity:1"/><stop offset="0.32" style="stop-color:rgb(252,69,117);stop-opacity:1"/><stop offset="1" style="stop-color:rgb(157,0,205);stop-opacity:1"/></linearGradient><linearGradient id="_Linear2" x1="0" y1="0" x2="1" y2="0" gradientUnits="userSpaceOnUse" gradientTransform="matrix(1266.47,-474.289,474.289,1266.47,21.2341,347.2)"><stop offset="0" style="stop-color:rgb(254,145,25);stop-opacity:1"/><stop offset="0.32" style="stop-color:rgb(252,69,117);stop-opacity:1"/><stop offset="1" style="stop-color:rgb(157,0,205);stop-opacity:1"/></linearGradient><linearGradient id="_Linear3" x1="0" y1="0" x2="1" y2="0" gradientUnits="userSpaceOnUse" gradientTransform="matrix(1266.47,-474.289,474.289,1266.47,21.2341,347.2)"><stop offset="0" style="stop-color:rgb(254,145,25);stop-opacity:1"/><stop offset="0.32" style="stop-color:rgb(252,69,117);stop-opacity:1"/><stop offset="1" style="stop-color:rgb(157,0,205);stop-opacity:1"/></linearGradient><linearGradient id="_Linear4" x1="0" y1="0" x2="1" y2="0" gradientUnits="userSpaceOnUse" gradientTransform="matrix(1266.47,-474.289,474.289,1266.47,21.2341,347.2)"><stop offset="0" style="stop-color:rgb(254,145,25);stop-opacity:1"/><stop offset="0.32" style="stop-color:rgb(252,69,117);stop-opacity:1"/><stop offset="1" style="stop-color:rgb(157,0,205);stop-opacity:1"/></linearGradient><linearGradient id="_Linear5" x1="0" y1="0" x2="1" y2="0" gradientUnits="userSpaceOnUse" gradientTransform="matrix(1266.47,-474.289,474.289,1266.47,21.2341,347.2)"><stop offset="0" style="stop-color:rgb(254,145,25);stop-opacity:1"/><stop offset="0.32" style="stop-color:rgb(252,69,117);stop-opacity:1"/><stop offset="1" style="stop-color:rgb(157,0,205);stop-opacity:1"/></linearGradient><linearGradient id="_Linear6" x1="0" y1="0" x2="1" y2="0" gradientUnits="userSpaceOnUse" gradientTransform="matrix(1266.47,-474.289,474.289,1266.47,21.2341,347.2)"><stop offset="0" style="stop-color:rgb(254,145,25);stop-opacity:1"/><stop offset="0.32" style="stop-color:rgb(252,69,117);stop-opacity:1"/><stop offset="1" style="stop-color:rgb(157,0,205);stop-opacity:1"/></linearGradient><linearGradient id="_Linear7" x1="0" y1="0" x2="1" y2="0" gradientUnits="userSpaceOnUse" gradientTransform="matrix(1266.47,-474.289,474.289,1266.47,21.2341,347.2)"><stop offset="0" style="stop-color:rgb(254,145,25);stop-opacity:1"/><stop offset="0.32" style="stop-color:rgb(252,69,117);stop-opacity:1"/><stop offset="1" style="stop-color:rgb(157,0,205);stop-opacity:1"/></linearGradient><linearGradient id="_Linear8" x1="0" y1="0" x2="1" y2="0" gradientUnits="userSpaceOnUse" gradientTransform="matrix(1266.47,-474.289,474.289,1266.47,21.2341,347.2)"><stop offset="0" style="stop-color:rgb(254,145,25);stop-opacity:1"/><stop offset="0.32" style="stop-color:rgb(252,69,117);stop-opacity:1"/><stop offset="1" style="stop-color:rgb(157,0,205);stop-opacity:1"/></linearGradient><linearGradient id="_Linear9" x1="0" y1="0" x2="1" y2="0" gradientUnits="userSpaceOnUse" gradientTransform="matrix(1266.47,-474.289,474.289,1266.47,21.2341,347.2)"><stop offset="0" style="stop-color:rgb(254,145,25);stop-opacity:1"/><stop offset="0.32" style="stop-color:rgb(252,69,117);stop-opacity:1"/><stop offset="1" style="stop-color:rgb(157,0,205);stop-opacity:1"/></linearGradient><linearGradient id="_Linear10" x1="0" y1="0" x2="1" y2="0" gradientUnits="userSpaceOnUse" gradientTransform="matrix(1266.47,-474.289,474.289,1266.47,21.2341,347.2)"><stop offset="0" style="stop-color:rgb(254,145,25);stop-opacity:1"/><stop offset="0.32" style="stop-color:rgb(252,69,117);stop-opacity:1"/><stop offset="1" style="stop-color:rgb(157,0,205);stop-opacity:1"/></linearGradient><linearGradient id="_Linear11" x1="0" y1="0" x2="1" y2="0" gradientUnits="userSpaceOnUse" gradientTransform="matrix(1692.43,-633.809,633.809,1692.43,-159.533,643.069)"><stop offset="0" style="stop-color:rgb(254,145,25);stop-opacity:1"/><stop offset="0.32" style="stop-color:rgb(252,69,117);stop-opacity:1"/><stop offset="1" style="stop-color:rgb(157,0,205);stop-opacity:1"/></linearGradient><linearGradient id="_Linear12" x1="0" y1="0" x2="1" y2="0" gradientUnits="userSpaceOnUse" gradientTransform="matrix(1692.43,-633.809,633.809,1692.43,-159.533,643.069)"><stop offset="0" style="stop-color:rgb(254,145,25);stop-opacity:1"/><stop offset="0.32" style="stop-color:rgb(252,69,117);stop-opacity:1"/><stop offset="1" style="stop-color:rgb(157,0,205);stop-opacity:1"/></linearGradient><linearGradient id="_Linear13" x1="0" y1="0" x2="1" y2="0" gradientUnits="userSpaceOnUse" gradientTransform="matrix(1692.43,-633.809,633.809,1692.43,-159.533,643.069)"><stop offset="0" style="stop-color:rgb(254,145,25);stop-opacity:1"/><stop offset="0.32" style="stop-color:rgb(252,69,117);stop-opacity:1"/><stop offset="1" style="stop-color:rgb(157,0,205);stop-opacity:1"/></linearGradient><linearGradient id="_Linear14" x1="0" y1="0" x2="1" y2="0" gradientUnits="userSpaceOnUse" gradientTransform="matrix(1692.43,-633.809,633.809,1692.43,-159.533,643.069)"><stop offset="0" style="stop-color:rgb(254,145,25);stop-opacity:1"/><stop offset="0.32" style="stop-color:rgb(252,69,117);stop-opacity:1"/><stop offset="1" style="stop-color:rgb(157,0,205);stop-opacity:1"/></linearGradient><linearGradient id="_Linear15" x1="0" y1="0" x2="1" y2="0" gradientUnits="userSpaceOnUse" gradientTransform="matrix(1692.43,-633.809,633.809,1692.43,-159.533,643.069)"><stop offset="0" style="stop-color:rgb(254,145,25);stop-opacity:1"/><stop offset="0.32" style="stop-color:rgb(252,69,117);stop-opacity:1"/><stop offset="1" style="stop-color:rgb(157,0,205);stop-opacity:1"/></linearGradient><linearGradient id="_Linear16" x1="0" y1="0" x2="1" y2="0" gradientUnits="userSpaceOnUse" gradientTransform="matrix(1692.43,-633.809,633.809,1692.43,-159.533,643.069)"><stop offset="0" style="stop-color:rgb(254,145,25);stop-opacity:1"/><stop offset="0.32" style="stop-color:rgb(252,69,117);stop-opacity:1"/><stop offset="1" style="stop-color:rgb(157,0,205);stop-opacity:1"/></linearGradient><linearGradient id="_Linear17" x1="0" y1="0" x2="1" y2="0" gradientUnits="userSpaceOnUse" gradientTransform="matrix(1692.43,-633.809,633.809,1692.43,-159.533,643.069)"><stop offset="0" style="stop-color:rgb(254,145,25);stop-opacity:1"/><stop offset="0.32" style="stop-color:rgb(252,69,117);stop-opacity:1"/><stop offset="1" style="stop-color:rgb(157,0,205);stop-opacity:1"/></linearGradient></defs></svg>