<svg clip-rule="evenodd" fill-rule="evenodd" height="1044" stroke-linecap="round" stroke-linejoin="round" stroke-miterlimit="1.5" width="1049" xmlns="http://www.w3.org/2000/svg"><g stroke="#000"><path d="m532.483 808.173c24.655-8.108 48.429 179.761 15.167 225.117-5.9 8.05 79.307-29.56 79.307-29.56 19.245-3.809 24.139-143.853-11.068-195.557" fill="#e1e1e1" stroke-width="12.5"/><path d="m558.558 853.708 71.402-13.682" fill="none" stroke-width="4.17"/><path d="m565.948 903.202 74.036-12.604" fill="none" stroke-width="4.17"/><path d="m565.948 957.58 74.036-4.884" fill="none" stroke-width="4.17"/><path d="m544.26 1037.68s113.266-150.192 193.131 0z" fill="#c0392b" stroke-width="12.5"/><path d="m494.986 808.173c-24.654-8.108-48.429 179.761-15.167 225.117 5.9 8.05-79.306-29.56-79.306-29.56-19.246-3.809-24.14-143.853 11.067-195.557" fill="#e1e1e1" stroke-width="12.5"/><path d="m397.296 840.026 75.231 13.682" fill="none" stroke-width="4.17"/><path d="m388.14 886.188 78.111 8.82" fill="none" stroke-width="4.17"/><path d="m386.644 945.231 76.807-.34" fill="none" stroke-width="4.17"/><path d="m483.21 1037.68s-113.267-150.192-193.132 0z" fill="#c0392b" stroke-width="12.5"/><path d="m73.163 331.559-8.599-9.711s-27.247 15.67-51.379-13.606c-23.465-28.467 6.275-61.698 6.275-61.698l18.877 20.786s-16.26 14.157-4.56 27.369c11.7 13.211 29.138-2.5 29.138-2.5l23.903 27.078" fill="#e74c3c" stroke-width="8.33"/><path d="m107.198 303.352-7.887-10.286s20.978-23.273-3.16-52.543c-23.472-28.463-59.787-5.641-59.787-5.641l14.487 22.074s15.495-12.18 26.226 1.814c10.73 13.994-6.944 25.02-6.944 25.02l22.167 30.337" fill="#e74c3c" stroke-width="8.33"/><path d="m64.687 345.356 54.832-53.335c15.009 15.974 28.735 38.252 40.007 68.648 51.942 140.063 166.686 76.143 166.686 76.143v84.917s-154.328 53.791-210.386-84.917c-18.905-46.779-37.599-73.882-51.139-91.456z" fill="#e1e1e1" stroke-width="12.5"/><path d="m278.073 456.53 11.909 73.269" fill="none" stroke-width="4.17"/><path d="m241.014 448.078-20.902 79.962" fill="none" stroke-width="4.17"/><path d="m203.642 428.595-50.819 64.57" fill="none" stroke-width="4.17"/><path d="m178.233 399.098-61.922 37.714" fill="none" stroke-width="4.17"/><path d="m152.823 344.164-59.688 46.827" fill="none" stroke-width="4.17"/><path d="m945.715 444.295 12.957-.618s7.791 30.45 45.598 27.304c36.77-3.059 39.81-47.551 39.81-47.551l-28.06.986s1.21 21.525-16.418 22.365c-17.627.84-18.544-22.614-18.544-22.614l-36.075 1.776" fill="#e74c3c" stroke-width="8.33"/><path d="m942.167 400.233 12.871-1.529s2.029-31.266 39.838-34.404c36.764-3.053 45.764 38.884 45.764 38.884l-25.92 5.029s-2.09-19.598-19.602-17.518c-17.511 2.081-13.074 22.434-13.074 22.434l-37.198 5.294" fill="#e74c3c" stroke-width="8.33"/><path d="m682.385 512.856s65.174 85.693 130.742 46.019c65.567-39.675 48.003-77.333 132.196-94.196l-7.195-89.545c-99.023 9.639-111.52 114.508-163.784 108.951-52.263-5.557-59.277-48.05-91.959-66.41" fill="#e1e1e1" stroke-width="12.5"/><path d="m716.424 456.503-27.078 64.57" fill="none" stroke-width="4.17"/><path d="m754.843 479.741-17.942 79.134" fill="none" stroke-width="4.17"/><path d="m795.765 479.741 32.252 69.176" fill="none" stroke-width="4.17"/><path d="m828.017 448.494 44.387 54.541" fill="none" stroke-width="4.17"/><path d="m872.404 401.21 32.21 74.555" fill="none" stroke-width="4.17"/><path d="m500.107 45.984-1.035 89.333 21.506 1.338-1.214-92.615z" fill="#fff" stroke-width="8.33"/><path d="m362.857 177.188s-15.353-1.62-15.353 15.353c0 16.974-.139 31.347 0 39.721.237 14.237 14.406 11.283 14.406 11.283" fill="#e74c3c" stroke-width="8.33"/><path d="m660.97 177.188s15.353-1.62 15.353 15.353c0 16.974.14 31.347 0 39.721-.237 14.237-14.406 11.283-14.406 11.283" fill="#e74c3c" stroke-width="8.33"/><path d="m410.421 343.379c-24.417 0-42.356-12.994-44.225-31.959-1.214-12.326-.015-101.937 1.135-156.684.307-14.615 5.166-37.85 30.515-39.226 16.237-.881 199.356-3.498 218.272-2.316 18.916 1.181 38.671 3.635 40.029 40.207.95 25.592 2.132 113.58.67 149.866-1.019 25.311-21.806 35.497-32.357 36.596-48.714 5.078-189.621 3.516-214.039 3.516z" fill="#e1e1e1" stroke-width="12.5"/><circle cx="509.825" cy="33.252" fill="#e74c3c" r="29.085" stroke-width="8.33"/><circle cx="448.908" cy="174.319" fill="#fff" r="32.38" stroke-width="8.33"/><circle cx="560.051" cy="174.319" fill="#fff" r="32.38" stroke-width="8.33"/><path d="m448.908 274.146s-15.631 1.454-15.612 15.777c.015 10.977 3.893 15.228 15.228 15.228 11.334 0 106.6.144 117.131.077 10.53-.068 17.453-8.777 17.453-15.277s.712-17.134-17.134-17.134-107.967.73-117.066 1.329z" fill="#f39c12" stroke-width="8.33"/></g><circle cx="459.485" cy="168.523" r="10.939"/><circle cx="553.659" cy="182.924" r="10.939"/><path d="m326.212 418.115c0 24.446 1.083 320.839 1.083 346.856 0 26.016 17.98 43.969 44.768 44.795 39.325 1.213 223.878-1.398 259.277-1.527 35.399-.13 51.812-20.494 51.812-49.944 0-29.451 1.35-298.761 0-322.083-2.302-39.785-.489-70.164-68.237-70.164h-227.536c-37.029 0-61.167 17.328-61.167 52.067z" fill="#e1e1e1" stroke="#000" stroke-width="12.5"/><path d="m378.671 541.225 1.237 201.804s246.258 4.062 245.784-1.103c-.474-5.164 4.895-201.092.664-202.207-4.231-1.116-245.572-3.225-247.685 1.506z" fill="#e1e1e1" stroke="#000" stroke-width="8.33"/><path d="m603.497 640.999c0-4.12-3.369-10.605-9.509-10.605s-10.948 3.608-10.948 11.199c0 7.59 4.745 10.834 10.276 10.834s10.181-4.145 10.181-11.428z" fill="#7f8c8d" stroke="#000" stroke-width="4.17"/><path d="m600.559 649.361-14.619-15.947" fill="none" stroke="#000" stroke-opacity=".5" stroke-width="4.17"/><path d="m372.952 428.687h264.06v68.064h-264.06z" fill="#63ab1f" stroke="#000" stroke-width="6.25"/><path d="m416.695 477.433v-29.429h6.534v26.153h9.809v3.276z" fill-opacity=".48" fill-rule="nonzero"/><path d="m446.124 454.538h6.553c1.788 0 3.324.645 4.608 1.935 1.283 1.29 1.925 2.829 1.925 4.617v9.81c0 1.775-.642 3.308-1.925 4.598-1.284 1.29-2.82 1.935-4.608 1.935h-6.553c-1.788 0-3.324-.642-4.608-1.925-1.283-1.284-1.925-2.82-1.925-4.608v-9.81c0-1.801.645-3.343 1.935-4.627s2.823-1.925 4.598-1.925zm0 6.552v9.81c0 .881.32 1.644.958 2.289.639.645 1.412.968 2.318.968.907 0 1.68-.323 2.319-.968.638-.645.958-1.408.958-2.289v-9.81c0-.894-.323-1.664-.968-2.309s-1.414-.967-2.309-.967c-.894 0-1.663.322-2.308.967s-.968 1.415-.968 2.309z" fill-opacity=".48" fill-rule="nonzero"/><path d="m482.086 461.09h-3.257c-.255-2.184-1.347-3.276-3.276-3.276-.894 0-1.664.322-2.309.967s-.967 1.415-.967 2.309v9.81c0 .881.319 1.644.958 2.289.638.645 1.411.968 2.318.968 1.929 0 3.021-1.086 3.276-3.257h3.257c-.268 4.355-2.446 6.533-6.533 6.533h-3.276c-1.788 0-3.324-.642-4.608-1.925-1.284-1.284-1.926-2.82-1.926-4.608v-9.81c0-1.801.645-3.343 1.936-4.627 1.29-1.284 2.822-1.925 4.598-1.925h3.276c4.113 0 6.291 2.184 6.533 6.552z" fill-opacity=".48" fill-rule="nonzero"/><path d="m501.725 464.347v-3.257c0-.894-.323-1.664-.968-2.309s-1.414-.967-2.308-.967h-3.277c-1.928 0-3.014 1.092-3.257 3.276h-3.276c.498-4.368 2.676-6.552 6.533-6.552h6.553c1.788 0 3.324.645 4.608 1.935 1.283 1.29 1.925 2.829 1.925 4.617v16.343h-6.533v-3.276c-.256 2.184-1.348 3.276-3.276 3.276h-3.277c-1.788 0-3.324-.642-4.608-1.925-1.283-1.284-1.925-2.82-1.925-4.608v-.019c0-1.789.645-3.325 1.935-4.608 1.29-1.284 2.823-1.926 4.598-1.926zm0 3.276h-3.276c-.895 0-1.664.32-2.309.958-.645.639-.968 1.405-.968 2.3v.019c0 .881.32 1.644.958 2.289.639.645 1.412.968 2.319.968.906 0 1.679-.323 2.318-.968s.958-1.408.958-2.289z" fill-opacity=".48" fill-rule="nonzero"/><path d="m514.792 448.004h6.533v29.429h-6.533z" fill-opacity=".48" fill-rule="nonzero"/><path d="m527.877 477.433v-29.429h13.086c1.789 0 3.325.645 4.608 1.935 1.284 1.29 1.926 2.823 1.926 4.599v1.647c0 1.916-.543 3.42-1.629 4.512s-2.72 1.766-4.905 2.022c2.185 0 3.819.657 4.905 1.973s1.629 2.836 1.629 4.56v1.648c0 1.775-.645 3.308-1.935 4.598s-2.823 1.935-4.599 1.935zm6.534-16.343h3.276c.894 0 1.664-.322 2.309-.967s.967-1.415.967-2.309v-3.276c0-.895-.322-1.661-.967-2.3-.645-.638-1.415-.957-2.309-.957h-3.276zm0 13.067h3.276c.894 0 1.664-.323 2.309-.968s.967-1.408.967-2.289v-3.277c0-2.184-1.092-3.276-3.276-3.276h-3.276z" fill-opacity=".48" fill-rule="nonzero"/><path d="m560.563 454.538h6.553c1.788 0 3.324.645 4.608 1.935 1.283 1.29 1.925 2.829 1.925 4.617v9.81c0 1.775-.642 3.308-1.925 4.598-1.284 1.29-2.82 1.935-4.608 1.935h-6.553c-1.788 0-3.324-.642-4.607-1.925-1.284-1.284-1.926-2.82-1.926-4.608v-9.81c0-1.801.645-3.343 1.935-4.627s2.823-1.925 4.598-1.925zm0 6.552v9.81c0 .881.32 1.644.958 2.289.639.645 1.412.968 2.319.968s1.679-.323 2.318-.968.958-1.408.958-2.289v-9.81c0-.894-.323-1.664-.968-2.309s-1.414-.967-2.308-.967-1.664.322-2.309.967-.968 1.415-.968 2.309z" fill-opacity=".48" fill-rule="nonzero"/><path d="m583.459 448.004h6.533v6.534h3.277v3.276h-3.277v13.086c0 1.06.348 1.868 1.045 2.423.696.556 1.337.834 1.925.834h.307v3.276h-3.277c-1.801 0-3.34-.642-4.617-1.925-1.277-1.284-1.916-2.82-1.916-4.608v-13.086h-3.276v-3.276h3.276z" fill-opacity=".48" fill-rule="nonzero"/></svg>