<svg clip-rule="evenodd" fill-rule="evenodd" height="91" stroke-linecap="round" stroke-linejoin="round" stroke-miterlimit="10" width="125" xmlns="http://www.w3.org/2000/svg"><g fill="none" stroke="#fff" stroke-width="2.5"><path d="m60.312 39.065c-3.061.894-19.295 13.364-20.365 15.979-2.008 4.909.276 21.653 1.143 23.245.081.148 18.423 9.662 22.668 10.294 1.016.152 19.787-9.584 21.123-12.653.807-1.852.719-23.852-.059-24.19-3.797-1.654-20.966-13.71-24.51-12.675z"/><path d="m66.598 52.663c-10.183-5.735-21.136 11.01-15.191 18.119 5.707 6.825 20.758 7.801 23.645-2.643 1.749-6.324 1.252-10.009-8.454-15.476z"/><path d="m61.19 38.275c-.057.632-.217-2.631-.259-3.015-.143-1.313-.238-2.735-.34-4.079-.351-4.593-.768-8.738-.36-13.306"/><path d="m59.762 2.265c-5.319-2.063-5.737 12.473 2.042 10.139 2.758-.828 1.802-8.647-2.042-10.139z"/><path d="m67.487 3.361c.094-1.051.82 6.753.638 8.794"/><path d="m73.423 2.875c.119-1.334-.04 7.565.767 9.618"/><path d="m69.878 8.451.604.054 1.228-.094.605.054.421-.165.604.053"/><path d="m85.881 51.327c-.031.347 12.589-10.77 17.021-14.476"/><path d="m102.771 36.866c.414-4.649-.183-15.932-.494-20.181"/><path d="m103.652 37.5c5.994 3.697 15.705 7.671 18.574 10.15"/><path d="m39.577 54.616c-.58-1.473-11.816-6.679-17.627-10.263"/><path d="m21.169 43.013c.011-5.663-.516-19.591-.972-22.902"/><path d="m21.169 43.907c-5.914 4.945-12.86 8.803-18.742 13.721"/></g></svg>