<?xml version="1.0" encoding="UTF-8" standalone="no"?><!DOCTYPE svg PUBLIC "-//W3C//DTD SVG 1.1//EN" "http://www.w3.org/Graphics/SVG/1.1/DTD/svg11.dtd"><svg width="525px" height="224px" version="1.1" xmlns="http://www.w3.org/2000/svg" xmlns:xlink="http://www.w3.org/1999/xlink" xml:space="preserve" xmlns:serif="http://www.serif.com/" style="fill-rule:evenodd;clip-rule:evenodd;stroke-linecap:round;stroke-linejoin:round;stroke-miterlimit:1.5;"><path d="M8.333,70.578C8.333,70.578 50.186,4.229 67.313,14.978C71.554,17.64 104.608,52.656 109.86,74.113" style="fill:none;stroke:white;stroke-width:16.67px;"/><path d="M516.56,157.907C516.56,157.907 474.708,224.256 457.58,213.507C453.339,210.845 420.286,175.829 415.034,154.372" style="fill:none;stroke:white;stroke-width:16.67px;"/><g><path d="M220.911,76.629C208.04,69.799 187.474,85.978 197.976,135.571C208.478,185.165 246.91,157.965 248.668,133.426C250.426,108.887 233.783,83.458 220.911,76.629Z" style="fill:none;stroke:white;stroke-width:16.67px;"/><path d="M279.918,75.141L286.347,163.32C286.347,163.32 282.144,122.869 293.125,95.968C299.969,79.2 317.385,60.872 341.397,84.689" style="fill:none;stroke:white;stroke-width:16.67px;"/></g><path d="M59.096,21.928L59.096,214.685" style="fill:none;stroke:white;stroke-width:16.67px;"/><path d="M463.677,201.091C463.677,201.091 468.447,39.309 463.677,8.333" style="fill:none;stroke:white;stroke-width:16.67px;"/></svg>