<svg clip-rule="evenodd" fill-rule="evenodd" height="589" stroke-linecap="round" stroke-linejoin="round" stroke-miterlimit="1.5" width="2038" xmlns="http://www.w3.org/2000/svg"><g fill="none" stroke="#fff" stroke-width="12.5"><path d="m1914.39 516.169s48.22 72.849 67.19 65.849c18.98-6.999 44.09-54.463 49.34-75.92"/><path d="m107.311 495.764s-32.42 71.434-50.852 63.119c-4.565-2.059-42.082-32.244-50.209-52.785"/><path d="m1021.78 6.25s13.63 320.019-44.56 342.237c-128.269 48.98-662.441 7.761-814.252 32.976-126.364 20.988-110.347 137.663-106.188 170.74"/><path d="m1022.57 32.522s1.55 285.803 33.81 315.884c39.9 37.213 760.19 31.388 851.38 76.622 38.36 19.029 73.46 54.788 73.82 156.99"/></g></svg>