<svg clip-rule="evenodd" stroke-linecap="round" stroke-linejoin="round" stroke-miterlimit="10" viewBox="0 0 90.8804 49.1696" xmlns="http://www.w3.org/2000/svg"><g fill="none" stroke="#000" stroke-linecap="round" stroke-linejoin="round"><g stroke-width="1.55976"><path d="m31.9676 19.5214c.0474.0237-9.2338-9.3734-13.2669-11.38993"/><path d="m32.3405 20.2673c0-.1395 0 3.6082 0 4.8483 0 3.7233-.1864 7.5038-.1864 11.1883"/><path d="m51.4244 2.27867c-2.6161-.68569-6.2573 7.73053-.1202 7.66876 3.044-.03065 2.7444-6.98093.1202-7.66876z"/><path d="m32.7135 19.8944c4.8788-3.5753 8.2479-8.3121 12.4985-11.28426"/><path d="m56.9414 8.85703c-.0544-.33677 10.5213 8.67147 13.0268 10.53757"/><path d="m70.1545 19.4234c-.0897.2862 8.5866-9.1986 11.5541-11.33409"/><path d="m85.4696 9.3375c-.333-2.05052-.0728-5.88091-.0728-5.88091l.3025-.13322c1.1449-.42771 2.7248-.70899 3.9175-.33545"/><path d="m85.7752 6.2908c1.2648.22548 1.5125-.05586 2.6418.05767"/><path d="m26.3278 40.4588c0-3.4418-10.3173 8.7718-.8934 6.4159.7548-.1887 1.279-.4771 1.9491-.8122"/><path d="m29.2536 40.4114c.0459 4.3187.0581 2.7905.0325 6.0609"/><path d="m29.3327 40.2964c1.1192-.3731 3.8434-.9614 4.954-.4061"/><path d="m29.7379 43.0788c1.2971.1336 3.3765.06 3.7367.06"/></g><path d="m34.8908 44.6643c0-.6368 1.3997-.9577 1.561-.3122.1968.7869-1.6056 1.8286-1.6056 1.8286s1.784.3769 1.784 1.0704c0 1.0991-2.5541 1.3589-2.9882.4906" stroke-width=".9"/><g stroke-width="1.55976"><path d="m1.03551 2.21099c0-.54622-.01092 1.68715 0 1.94912.04874 1.16976.24364 2.32129.24364 3.49219"/><path d="m1.05687 2.15769c1.66618-.83309 3.46101-1.299414 5.36009-1.299414"/><path d="m1.84765 4.72861c.9847 0 1.87736-.38005 2.84247-.48728"/></g><path d="m5.41354 6.06051c.28415-.28415 2.29874-.90027 2.51762-.24364.21043.63127-1.0385 1.38797-1.46184 1.70548-.04834.03625-1.08589.5174-.89335.32486.69684-.69684 2.71087-.10377 2.51762 1.05577-.15504.93023-2.84248 2.19432-2.84248.97457" stroke-width=".9"/><path d="m14.7746 1.70955c-1.9996-2.276887-4.0211.6988-4.3451 1.37924-2.06143 4.32906 2.6318 7.22721 5.1165 3.08612" stroke-width="1.55976"/></g></svg>