<?xml version="1.0" encoding="UTF-8" standalone="no"?><!DOCTYPE svg PUBLIC "-//W3C//DTD SVG 1.1//EN" "http://www.w3.org/Graphics/SVG/1.1/DTD/svg11.dtd"><svg width="1845px" height="814px" version="1.1" xmlns="http://www.w3.org/2000/svg" xmlns:xlink="http://www.w3.org/1999/xlink" xml:space="preserve" xmlns:serif="http://www.serif.com/" style="fill-rule:evenodd;clip-rule:evenodd;stroke-linecap:round;stroke-linejoin:round;stroke-miterlimit:10;"><g><path d="M2.721,513.776C1.735,537.922 2.797,643.919 3.885,667.324C6.534,724.278 1.51,806.705 3.634,808.298C11.816,814.436 202.592,809.807 250.676,809.807C255.178,809.807 476.711,806.961 478.912,803.66C480.087,801.898 478.101,760.157 478.278,755.665C480.706,694.997 483.137,508.068 477.906,508.019C372.188,507.062 268.269,509.552 163.322,511.135C125.118,511.712 2.791,512.04 2.721,513.776Z" style="fill:rgb(243,243,243);fill-rule:nonzero;stroke:black;stroke-width:4.66px;"/><g><path d="M86.913,550.969C75.478,539.739 65.097,537.733 56.196,539.958C26.481,547.387 23.957,583.123 47.388,598.744C77.105,618.555 106.818,570.514 86.913,550.969Z" style="fill:none;fill-rule:nonzero;stroke:black;stroke-width:4.66px;"/><path d="M69.289,590.535C69.748,590.535 60.47,580.024 59.473,578.694C55.229,573.036 50.628,568.775 47.482,562.485C45.895,559.309 46.138,551.917 46.138,551.917C46.138,551.917 54.897,553.376 57.473,555.953C64.277,562.756 71.798,572.659 78.045,580.054C80.345,582.776 68.543,590.535 69.289,590.535Z" style="fill:rgb(57,171,255);fill-rule:nonzero;stroke:black;stroke-width:4.66px;"/><path d="M20.678,573.56C20.678,573.56 20.886,529.274 63.974,529.011C112.611,528.713 104.188,577.673 104.188,577.673" style="fill:none;fill-rule:nonzero;stroke:black;stroke-width:3.27px;stroke-dasharray:2.78,0,0,11.12;"/></g><g><path d="M86.913,644.668C75.478,633.438 65.097,631.432 56.196,633.657C26.481,641.086 23.957,676.822 47.388,692.443C77.105,712.254 106.818,664.213 86.913,644.668Z" style="fill:none;fill-rule:nonzero;stroke:black;stroke-width:4.66px;"/><path d="M42.59,658.864C42.312,659.229 56.294,658.199 57.956,658.209C65.029,658.252 71.205,657.165 78.117,658.465C81.606,659.122 87.346,663.787 87.346,663.787C87.346,663.787 80.886,669.88 77.275,670.372C67.742,671.676 55.307,671.674 45.639,672.176C42.081,672.361 43.041,658.27 42.59,658.864Z" style="fill:rgb(46,204,113);fill-rule:nonzero;stroke:black;stroke-width:4.66px;"/><path d="M20.678,667.259C20.678,667.259 20.886,622.973 63.974,622.71C112.611,622.412 104.188,671.372 104.188,671.372" style="fill:none;fill-rule:nonzero;stroke:black;stroke-width:3.27px;stroke-dasharray:2.78,0,0,11.12;"/></g><g><path d="M86.913,736.894C75.478,725.663 65.097,723.657 56.196,725.883C26.481,733.311 23.957,769.047 47.388,784.668C77.105,804.48 106.818,756.439 86.913,736.894Z" style="fill:none;fill-rule:nonzero;stroke:black;stroke-width:4.66px;"/><path d="M46.389,770.438C46.527,770.876 53.769,758.871 54.739,757.522C58.863,751.776 61.547,746.108 66.604,741.22C69.157,738.752 76.28,736.767 76.28,736.767C76.28,736.767 77.516,745.561 75.833,748.791C71.383,757.322 64.192,767.469 59.013,775.646C57.107,778.657 46.164,769.727 46.389,770.438Z" style="fill:rgb(255,57,57);fill-rule:nonzero;stroke:black;stroke-width:4.66px;"/><path d="M20.678,759.484C20.678,759.484 20.886,715.198 63.974,714.936C112.611,714.637 104.188,763.597 104.188,763.597" style="fill:none;fill-rule:nonzero;stroke:black;stroke-width:3.27px;stroke-dasharray:2.78,0,0,11.12;"/></g><g><path d="M130.629,531.913C131.238,535.635 129.344,612.807 132.655,613.987C137.726,615.795 369.708,612.097 373.017,611.175C376.326,610.252 375.03,529.759 372.067,529.275C369.104,528.792 130.382,530.408 130.629,531.913Z" style="fill:rgb(1,38,0);"/><path d="M130.628,592.103C130.628,592.103 136.803,591.967 139.486,592.052C142.169,592.137 142.321,586.499 144.891,585.602C149.689,583.926 151.209,592.017 151.209,592.017L156.034,598.487L161.76,552.11L164.585,600.307C164.585,600.307 167.623,592.623 168.883,592.318C174.169,591.037 171.668,582.201 177.16,580.452C184.92,577.981 184.451,592.241 189.142,592.246C193.833,592.25 200.584,592.052 203.267,592.137C205.95,592.222 206.102,586.585 208.672,585.687C213.47,584.012 214.99,592.103 214.99,592.103L219.815,598.573L222.631,553.622L228.366,600.393C228.366,600.393 231.642,593.201 232.664,592.403C236.606,589.327 237.237,579.926 242.984,580.362C248.731,580.797 248.232,592.327 252.923,592.331C257.614,592.336 264.657,591.591 269.226,590.062C277.436,587.315 288.376,576.222 291.174,566.98C294.567,555.774 283.437,551.195 276.904,560.426C271.956,551.202 260.826,555.113 262.703,565.565C264.386,574.942 272.646,584.341 282.105,589.44C286.507,591.813 306.723,592.403 307.296,591.46C309.75,587.42 310.085,584.758 314.144,585.199C316.675,585.475 317.983,588.984 320.28,590.717C322.623,592.485 322.137,598.162 323.436,598.076C325.82,597.916 328.523,554.217 328.523,554.217L331.617,592.433C331.617,592.433 332.138,596.925 333.058,598.63C333.17,598.836 334.238,591.258 337.185,590.332C340.518,589.286 342.36,579.877 348.011,579.429C352.881,579.044 353.655,586.335 356.904,589.349C358.985,591.28 374.968,589.541 374.968,589.541" style="fill:none;stroke:rgb(0,178,6);stroke-width:2.08px;stroke-miterlimit:1.5;"/><path d="M130.629,531.913C131.238,535.635 129.344,612.807 132.655,613.987C137.726,615.795 369.708,612.097 373.017,611.175C376.326,610.252 375.03,529.759 372.067,529.275C369.104,528.792 130.382,530.408 130.629,531.913Z" style="fill:none;stroke:black;stroke-width:4.72px;stroke-miterlimit:1.5;"/></g><g><path d="M434.143,529.397C432.528,528.87 414.554,528.75 414.447,529.884C414.037,534.254 414.346,636.138 414.346,661.817C414.346,664.221 414.537,782.531 414.758,783.706C414.875,784.334 434.525,785.963 434.528,783.169C434.592,726.711 434.426,671.213 434.32,615.165C434.281,594.763 434.259,529.434 434.143,529.397Z" style="fill:rgb(70,70,70);fill-rule:nonzero;stroke:black;stroke-width:4.66px;"/><g><path d="M434.325,601.01C456.387,572.227 463.059,563.586 464.853,561.549C465.604,560.696 475.699,568.602 476.292,569.721C476.334,569.802 454.332,598.398 441.925,614.594C439.405,617.883 436.888,621.17 434.372,624.454C427.691,633.177 421.021,641.888 414.354,650.593C414.349,647.382 414.346,645.432 414.346,645.144C414.346,640.929 414.338,634.66 414.326,627.106C420.152,619.503 427.111,610.421 434.325,601.01Z" style="fill:rgb(203,203,203);stroke:black;stroke-width:4.66px;"/><circle cx="470.118" cy="567.921" r="26.627" style="fill:rgb(192,57,43);stroke:black;stroke-width:4.72px;stroke-miterlimit:1.5;"/></g></g><g><path d="M141.329,642.954C141.435,688.044 141.542,733.134 141.648,778.223" style="fill:none;stroke:rgb(70,70,70);stroke-width:4.72px;stroke-miterlimit:1.5;"/><g><path d="M133.223,655.567C133.223,655.567 143.414,654.52 149.154,655.942C150.235,656.21 146.347,664.225 149.695,677.963C150.124,679.722 132.919,679.153 133.202,678.215C136.777,666.355 133.223,655.567 133.223,655.567Z" style="fill:rgb(203,203,203);stroke:black;stroke-width:2.08px;stroke-miterlimit:1.5;"/><g><path d="M137.434,661.901L145.625,661.901" style="fill:none;stroke:white;stroke-width:0.97px;stroke-linecap:butt;stroke-miterlimit:1.5;"/><path d="M137.788,663.975L145.271,663.975" style="fill:none;stroke:white;stroke-width:0.97px;stroke-linecap:butt;stroke-miterlimit:1.5;"/><path d="M137.788,665.898L145.271,665.898" style="fill:none;stroke:white;stroke-width:0.97px;stroke-linecap:butt;stroke-miterlimit:1.5;"/><path d="M137.788,667.945L145.271,667.945" style="fill:none;stroke:white;stroke-width:0.97px;stroke-linecap:butt;stroke-miterlimit:1.5;"/><path d="M137.788,669.87L145.271,669.87" style="fill:none;stroke:white;stroke-width:0.97px;stroke-linecap:butt;stroke-miterlimit:1.5;"/><path d="M137.434,671.983L145.625,671.983" style="fill:none;stroke:white;stroke-width:0.97px;stroke-linecap:butt;stroke-miterlimit:1.5;"/></g></g></g><g><path d="M174.609,642.954C174.715,688.044 174.821,733.134 174.927,778.223" style="fill:none;stroke:rgb(70,70,70);stroke-width:4.72px;stroke-miterlimit:1.5;"/><g><path d="M166.503,708.581C166.503,708.581 176.693,707.534 182.433,708.957C183.514,709.225 179.626,717.239 182.974,730.978C183.403,732.736 166.198,732.168 166.481,731.23C170.056,719.37 166.503,708.581 166.503,708.581Z" style="fill:rgb(203,203,203);stroke:black;stroke-width:2.08px;stroke-miterlimit:1.5;"/><g><path d="M170.713,714.916L178.904,714.916" style="fill:none;stroke:white;stroke-width:0.97px;stroke-linecap:butt;stroke-miterlimit:1.5;"/><path d="M171.067,716.989L178.55,716.989" style="fill:none;stroke:white;stroke-width:0.97px;stroke-linecap:butt;stroke-miterlimit:1.5;"/><path d="M171.067,718.913L178.55,718.913" style="fill:none;stroke:white;stroke-width:0.97px;stroke-linecap:butt;stroke-miterlimit:1.5;"/><path d="M171.067,720.96L178.55,720.96" style="fill:none;stroke:white;stroke-width:0.97px;stroke-linecap:butt;stroke-miterlimit:1.5;"/><path d="M171.067,722.884L178.55,722.884" style="fill:none;stroke:white;stroke-width:0.97px;stroke-linecap:butt;stroke-miterlimit:1.5;"/><path d="M170.713,724.998L178.904,724.998" style="fill:none;stroke:white;stroke-width:0.97px;stroke-linecap:butt;stroke-miterlimit:1.5;"/></g></g></g><g><path d="M207.888,642.954C207.994,688.044 208.1,733.134 208.206,778.223" style="fill:none;stroke:rgb(70,70,70);stroke-width:4.72px;stroke-miterlimit:1.5;"/><g><path d="M199.782,668.63C199.782,668.63 209.973,667.583 215.713,669.006C216.794,669.274 212.906,677.288 216.254,691.027C216.682,692.785 199.478,692.216 199.76,691.279C203.336,679.418 199.782,668.63 199.782,668.63Z" style="fill:rgb(203,203,203);stroke:black;stroke-width:2.08px;stroke-miterlimit:1.5;"/><g><path d="M203.993,674.965L212.184,674.965" style="fill:none;stroke:white;stroke-width:0.97px;stroke-linecap:butt;stroke-miterlimit:1.5;"/><path d="M204.347,677.038L211.83,677.038" style="fill:none;stroke:white;stroke-width:0.97px;stroke-linecap:butt;stroke-miterlimit:1.5;"/><path d="M204.347,678.961L211.83,678.961" style="fill:none;stroke:white;stroke-width:0.97px;stroke-linecap:butt;stroke-miterlimit:1.5;"/><path d="M204.347,681.009L211.83,681.009" style="fill:none;stroke:white;stroke-width:0.97px;stroke-linecap:butt;stroke-miterlimit:1.5;"/><path d="M204.347,682.933L211.83,682.933" style="fill:none;stroke:white;stroke-width:0.97px;stroke-linecap:butt;stroke-miterlimit:1.5;"/><path d="M203.993,685.046L212.184,685.046" style="fill:none;stroke:white;stroke-width:0.97px;stroke-linecap:butt;stroke-miterlimit:1.5;"/></g></g></g><g><path d="M241.491,642.954C241.597,688.044 241.703,733.134 241.809,778.223" style="fill:none;stroke:rgb(70,70,70);stroke-width:4.72px;stroke-miterlimit:1.5;"/><g><path d="M233.385,749.341C233.385,749.341 243.576,748.294 249.315,749.716C250.397,749.984 246.509,757.999 249.857,771.737C250.285,773.495 233.081,772.927 233.363,771.989C236.939,760.129 233.385,749.341 233.385,749.341Z" style="fill:rgb(203,203,203);stroke:black;stroke-width:2.08px;stroke-miterlimit:1.5;"/><g><path d="M237.596,755.675L245.786,755.675" style="fill:none;stroke:white;stroke-width:0.97px;stroke-linecap:butt;stroke-miterlimit:1.5;"/><path d="M237.95,757.748L245.433,757.748" style="fill:none;stroke:white;stroke-width:0.97px;stroke-linecap:butt;stroke-miterlimit:1.5;"/><path d="M237.95,759.672L245.433,759.672" style="fill:none;stroke:white;stroke-width:0.97px;stroke-linecap:butt;stroke-miterlimit:1.5;"/><path d="M237.95,761.719L245.433,761.719" style="fill:none;stroke:white;stroke-width:0.97px;stroke-linecap:butt;stroke-miterlimit:1.5;"/><path d="M237.95,763.643L245.433,763.643" style="fill:none;stroke:white;stroke-width:0.97px;stroke-linecap:butt;stroke-miterlimit:1.5;"/><path d="M237.596,765.757L245.786,765.757" style="fill:none;stroke:white;stroke-width:0.97px;stroke-linecap:butt;stroke-miterlimit:1.5;"/></g></g></g><g><path d="M278.788,645.677C278.788,645.677 278.403,670.005 279.186,669.75C279.968,669.494 303.437,670.489 303.447,669.863C303.463,668.866 303.655,646.175 303.193,645.455C302.582,644.503 279.278,645.266 278.788,645.677Z" style="fill:rgb(41,128,185);stroke:black;stroke-width:4.72px;stroke-linecap:butt;stroke-miterlimit:1.5;"/><path d="M278.788,679.945C278.788,679.945 278.403,704.273 279.186,704.018C279.968,703.762 303.437,704.757 303.447,704.131C303.463,703.134 303.655,680.443 303.193,679.723C302.582,678.771 279.278,679.534 278.788,679.945Z" style="fill:rgb(231,76,60);stroke:black;stroke-width:4.72px;stroke-linecap:butt;stroke-miterlimit:1.5;"/><path d="M278.788,714.213C278.788,714.213 278.403,738.541 279.186,738.286C279.968,738.03 303.437,739.025 303.447,738.399C303.463,737.402 303.655,714.711 303.193,713.991C302.582,713.039 279.278,713.802 278.788,714.213Z" style="fill:rgb(39,174,96);stroke:black;stroke-width:4.72px;stroke-linecap:butt;stroke-miterlimit:1.5;"/><path d="M278.788,748.481C278.788,748.481 278.403,772.809 279.186,772.554C279.968,772.298 303.437,773.293 303.447,772.667C303.463,771.67 303.655,748.979 303.193,748.259C302.582,747.307 279.278,748.07 278.788,748.481Z" style="fill:rgb(41,128,185);stroke:black;stroke-width:4.72px;stroke-linecap:butt;stroke-miterlimit:1.5;"/><path d="M315.704,645.677C315.704,645.677 315.319,670.005 316.101,669.75C316.884,669.494 340.352,670.489 340.363,669.863C340.379,668.866 340.571,646.175 340.108,645.455C339.498,644.503 316.193,645.266 315.704,645.677Z" style="fill:rgb(46,171,255);stroke:black;stroke-width:4.72px;stroke-linecap:butt;stroke-miterlimit:1.5;"/><path d="M315.704,679.945C315.704,679.945 315.319,704.273 316.101,704.018C316.884,703.762 340.352,704.757 340.363,704.131C340.379,703.134 340.571,680.443 340.108,679.723C339.498,678.771 316.193,679.534 315.704,679.945Z" style="fill:rgb(39,174,96);stroke:black;stroke-width:4.72px;stroke-linecap:butt;stroke-miterlimit:1.5;"/><path d="M315.704,714.213C315.704,714.213 315.319,738.541 316.101,738.286C316.884,738.03 340.352,739.025 340.363,738.399C340.379,737.402 340.571,714.711 340.108,713.991C339.498,713.039 316.193,713.802 315.704,714.213Z" style="fill:rgb(0,236,100);stroke:black;stroke-width:4.72px;stroke-linecap:butt;stroke-miterlimit:1.5;"/><path d="M315.704,748.481C315.704,748.481 315.319,772.809 316.101,772.554C316.884,772.298 340.352,773.293 340.363,772.667C340.379,771.67 340.571,748.979 340.108,748.259C339.498,747.307 316.193,748.07 315.704,748.481Z" style="fill:rgb(192,57,43);stroke:black;stroke-width:4.72px;stroke-linecap:butt;stroke-miterlimit:1.5;"/><path d="M352.905,645.677C352.905,645.677 352.52,670.005 353.302,669.75C354.085,669.494 377.554,670.489 377.564,669.863C377.58,668.866 377.772,646.175 377.31,645.455C376.699,644.503 353.394,645.266 352.905,645.677Z" style="fill:rgb(192,57,43);stroke:black;stroke-width:4.72px;stroke-linecap:butt;stroke-miterlimit:1.5;"/><path d="M352.905,679.945C352.905,679.945 352.52,704.273 353.302,704.018C354.085,703.762 377.554,704.757 377.564,704.131C377.58,703.134 377.772,680.443 377.31,679.723C376.699,678.771 353.394,679.534 352.905,679.945Z" style="fill:rgb(39,174,96);stroke:black;stroke-width:4.72px;stroke-linecap:butt;stroke-miterlimit:1.5;"/><path d="M352.905,714.213C352.905,714.213 352.52,738.541 353.302,738.286C354.085,738.03 377.554,739.025 377.564,738.399C377.58,737.402 377.772,714.711 377.31,713.991C376.699,713.039 353.394,713.802 352.905,714.213Z" style="fill:rgb(192,57,43);stroke:black;stroke-width:4.72px;stroke-linecap:butt;stroke-miterlimit:1.5;"/><path d="M352.905,748.481C352.905,748.481 352.52,772.809 353.302,772.554C354.085,772.298 377.554,773.293 377.564,772.667C377.58,771.67 377.772,748.979 377.31,748.259C376.699,747.307 353.394,748.07 352.905,748.481Z" style="fill:rgb(41,128,185);stroke:black;stroke-width:4.72px;stroke-linecap:butt;stroke-miterlimit:1.5;"/></g></g><g><g><path d="M1457.62,776.532C1457.62,776.532 1459.01,799.817 1470.95,800.26C1482.89,800.702 1763.36,802.875 1783.77,802.418C1793.91,802.191 1798.57,783.236 1797.4,773.793" style="fill:rgb(196,196,196);stroke:black;stroke-width:4.33px;stroke-linecap:butt;stroke-miterlimit:1.5;"/><path d="M1841.09,492.17C1842.19,541.997 1842.49,690.565 1840.79,754.694C1840.46,767.285 1826.95,779.892 1813.38,780.153C1739.18,781.584 1589.17,780.106 1449.8,778.626C1436.22,778.481 1422.36,763.512 1422.1,750.919C1420.73,686.036 1421.7,578.766 1421.49,492.17C1421.45,479.575 1430.6,468.018 1444.18,467.767C1505.16,466.637 1665.63,465.116 1813.29,465.536C1826.88,465.575 1840.81,479.578 1841.09,492.17Z" style="fill:rgb(46,48,51);stroke:black;stroke-width:4.33px;stroke-linecap:butt;stroke-miterlimit:1.5;"/><path d="M1446.92,494.283C1446.16,515.534 1446.63,749.524 1448.28,750.926C1454.63,756.329 1599.23,755.299 1636.56,755.299C1640.05,755.299 1812.21,755.139 1813.92,752.234C1814.83,750.684 1815.33,493.261 1811.27,493.218C1729.21,492.376 1653.66,492.518 1568.75,492.428C1539.09,492.396 1446.98,492.755 1446.92,494.283Z" style="fill-rule:nonzero;stroke:black;stroke-width:4.27px;"/><path d="M1596.8,789.97L1652.38,790.581" style="fill:none;stroke:rgb(141,141,141);stroke-width:7.64px;stroke-miterlimit:1.5;"/></g><g><g><path d="M1723.78,568.701C1723.78,568.701 1745.63,552.657 1744.69,534.708C1744.56,532.257 1744.02,529.653 1742.97,526.902C1737.44,512.485 1722.72,517.294 1719.73,522.784C1717.29,527.267 1715,533.349 1722.45,540.448C1726.73,544.514 1745.81,545.382 1744.4,531.932" style="fill:none;stroke:rgb(0,178,6);stroke-width:6.37px;stroke-miterlimit:1.5;"/><path d="M1776.11,519.514C1776.11,519.514 1756.02,531.563 1755.26,549.52C1755.16,551.972 1755.45,554.615 1756.24,557.454C1760.38,572.328 1775.49,568.93 1778.99,563.747C1781.84,559.514 1784.69,553.675 1777.94,545.905C1774.07,541.453 1755.15,538.788 1755.28,552.311" style="fill:none;stroke:rgb(0,178,6);stroke-width:6.37px;stroke-miterlimit:1.5;"/></g><path d="M1455.97,558.637C1455.97,558.637 1461.62,558.512 1464.08,558.59C1466.54,558.667 1466.68,553.502 1469.04,552.68C1473.43,551.144 1474.82,558.558 1474.82,558.558L1479.25,564.486L1484.49,521.993L1487.08,566.154C1487.08,566.154 1489.86,559.113 1491.02,558.833C1495.86,557.66 1493.57,549.564 1498.6,547.961C1505.71,545.697 1505.28,558.763 1509.58,558.767C1513.88,558.771 1520.06,558.59 1522.52,558.668C1524.98,558.746 1525.12,553.581 1527.47,552.758C1531.87,551.223 1533.26,558.636 1533.26,558.636L1537.68,564.565L1540.26,523.378L1545.52,566.232C1545.52,566.232 1548.52,559.643 1549.46,558.912C1553.07,556.093 1553.65,547.479 1558.91,547.878C1564.18,548.278 1563.72,558.842 1568.02,558.846C1572.32,558.85 1578.77,558.167 1582.96,556.766C1590.48,554.249 1600.5,544.086 1603.07,535.618C1606.18,525.35 1595.98,521.155 1589.99,529.612C1585.46,521.161 1575.26,524.744 1576.98,534.321C1578.52,542.912 1586.09,551.524 1594.76,556.197C1598.79,558.371 1617.31,558.911 1617.84,558.048C1620.09,554.346 1620.39,551.906 1624.11,552.311C1626.43,552.563 1627.63,555.778 1629.74,557.367C1631.88,558.987 1631.44,564.188 1632.63,564.109C1634.81,563.963 1637.29,523.923 1637.29,523.923L1640.12,558.939C1640.12,558.939 1640.6,563.055 1641.44,564.616C1641.55,564.806 1642.53,557.862 1645.23,557.014C1648.28,556.056 1649.97,547.434 1655.14,547.024C1659.61,546.671 1660.32,553.352 1663.29,556.113C1665.2,557.882 1679.84,556.289 1679.84,556.289" style="fill:none;stroke:rgb(0,178,6);stroke-width:1.91px;stroke-miterlimit:1.5;"/></g><g><g><path d="M1473.49,700.341C1473.49,700.341 1473.76,724.409 1473.83,727.009" style="fill:none;stroke:rgb(224,86,253);stroke-width:5.09px;stroke-miterlimit:1.5;"/><path d="M1514.39,700.341C1514.39,700.341 1514.67,724.409 1514.74,727.009" style="fill:none;stroke:rgb(224,86,253);stroke-width:5.09px;stroke-miterlimit:1.5;"/><path d="M1539.28,697.611C1539.28,697.611 1528.42,726.164 1527.32,729.28" style="fill:none;stroke:rgb(224,86,253);stroke-width:5.09px;stroke-miterlimit:1.5;"/><path d="M1485.11,703.952C1487.21,699.616 1494.82,694.592 1499.94,702.859C1503.49,708.59 1485.33,727.009 1485.33,727.009C1485.33,727.009 1503.28,727.115 1502.57,727.009" style="fill:none;stroke:rgb(224,86,253);stroke-width:5.09px;stroke-miterlimit:1.5;"/><path d="M1558.45,699.882C1558.45,699.882 1547.25,706.6 1546.83,716.614C1546.77,717.982 1546.93,719.455 1547.37,721.038C1549.68,729.332 1558.11,727.438 1560.06,724.548C1561.65,722.187 1563.24,718.931 1559.47,714.598C1557.32,712.116 1546.77,710.629 1546.84,718.17" style="fill:none;stroke:rgb(224,86,253);stroke-width:5.09px;stroke-miterlimit:1.5;"/><g><path d="M1572.97,700.112C1572.97,700.112 1566.53,718.684 1569.43,718.694C1572.34,718.704 1586.21,718.748 1586.21,718.748" style="fill:none;stroke:rgb(224,86,253);stroke-width:5.09px;stroke-miterlimit:1.5;"/><path d="M1579.1,727.009C1579.1,727.009 1579.13,712.106 1578.94,709.286" style="fill:none;stroke:rgb(224,86,253);stroke-width:5.09px;stroke-miterlimit:1.5;"/></g><path d="M1611.64,697.611C1611.64,697.611 1601.31,711.98 1611.73,727.009" style="fill:none;stroke:rgb(224,86,253);stroke-width:5.09px;stroke-miterlimit:1.5;"/><path d="M1672.88,727.009C1672.88,727.009 1683.2,712.641 1672.78,697.611" style="fill:none;stroke:rgb(224,86,253);stroke-width:5.09px;stroke-miterlimit:1.5;"/><path d="M1629.69,698.676C1629.69,698.676 1623.42,699.217 1624.08,705.106C1624.74,711.134 1636.07,713.436 1637.02,718.899C1638.19,725.678 1632.78,726.752 1630.29,726.608C1627.79,726.465 1623.81,724.408 1624.35,719.474C1624.92,714.169 1636.62,710.836 1636.61,704.66C1636.61,702.204 1634.29,698.709 1629.69,698.676Z" style="fill:none;stroke:rgb(224,86,253);stroke-width:5.09px;stroke-miterlimit:1.5;"/><path d="M1647.62,702.949C1647.62,702.949 1648.48,698.69 1653.37,698.676C1656.98,698.666 1663.09,701.7 1659.67,707.104C1658.27,709.325 1653.88,712.31 1653.88,712.31C1653.88,712.31 1661.72,710.673 1661.02,720.466C1660.78,723.718 1657.97,726.837 1653.63,726.608C1650.97,726.468 1649.18,725.398 1648.18,722.833" style="fill:none;stroke:rgb(224,86,253);stroke-width:5.09px;stroke-miterlimit:1.5;"/></g></g><g><g><path d="M1724.72,609.359C1724.72,609.359 1725.16,645.778 1724.95,648.898" style="fill:none;stroke:rgb(0,178,173);stroke-width:6.37px;stroke-miterlimit:1.5;"/><path d="M1744.54,609.359C1739.21,609.887 1736.59,618.519 1736.21,629.129C1735.83,639.738 1740.69,649.032 1747.04,648.898C1753.39,648.765 1756.75,635.855 1756.52,629.129C1756.3,622.402 1753.04,608.516 1744.54,609.359Z" style="fill:none;stroke:rgb(0,178,173);stroke-width:6.37px;stroke-miterlimit:1.5;"/><path d="M1776.49,648.863C1781.1,648.429 1784.43,639.703 1784.81,629.094C1785.19,618.484 1780.33,609.19 1773.98,609.324C1767.64,609.458 1764.35,617.292 1764.5,629.094C1764.59,635.823 1767.97,649.664 1776.49,648.863Z" style="fill:none;stroke:rgb(0,178,173);stroke-width:6.37px;stroke-miterlimit:1.5;"/></g><path d="M1466.38,639.579C1466.38,639.579 1471.04,625.148 1474.5,623.746C1479.17,621.857 1494.52,644.663 1495.93,641.266C1497.34,637.869 1501.35,624.907 1506.13,625.257C1510.91,625.607 1520.48,641.793 1523.43,639.954C1526.37,638.114 1529.26,625.027 1531.71,624.144C1537.84,621.937 1547.87,642.067 1551.37,640.861C1554.88,639.655 1555.32,621.985 1561.13,624.53C1566.94,627.076 1576.09,643.212 1579.12,641.238C1582.14,639.264 1583.23,624.008 1588.17,624.623C1593.12,625.237 1603.26,642.286 1606.32,640.813C1609.39,639.34 1609.97,625.021 1615.36,625.194C1620.76,625.366 1629.1,640.74 1632.78,641.227C1636.47,641.713 1639.29,625.144 1643.84,625.471C1648.39,625.798 1658.28,641.69 1662.23,641.899C1666.18,642.108 1667.65,623.663 1673.17,624.487C1678.68,625.311 1686.05,642.157 1689.97,642.41" style="fill:none;stroke:rgb(0,178,173);stroke-width:3.82px;stroke-miterlimit:1.5;"/></g><g><path d="M1721.65,703.635C1721.65,703.635 1721.9,724.686 1721.79,726.49" style="fill:none;stroke:white;stroke-width:3.82px;stroke-miterlimit:1.5;"/><path d="M1733.1,703.635C1730.03,703.94 1728.51,708.93 1728.29,715.063C1728.07,721.195 1730.88,726.567 1734.55,726.49C1738.22,726.413 1740.16,718.951 1740.03,715.063C1739.91,711.174 1738.02,703.148 1733.1,703.635Z" style="fill:none;stroke:white;stroke-width:3.82px;stroke-miterlimit:1.5;"/><path d="M1753.83,707.455C1753.83,707.455 1754.52,704.007 1758.49,703.996C1761.4,703.987 1766.35,706.444 1763.59,710.819C1762.45,712.618 1758.9,715.035 1758.9,715.035C1758.9,715.035 1765.25,713.709 1764.68,721.638C1764.49,724.27 1762.21,726.796 1758.7,726.611C1756.54,726.497 1755.09,725.631 1754.29,723.554" style="fill:none;stroke:white;stroke-width:3.82px;stroke-miterlimit:1.5;"/><g><path d="M1774.11,704.513C1774.11,704.513 1768.89,719.549 1771.25,719.558C1773.6,719.566 1784.83,719.601 1784.83,719.601" style="fill:none;stroke:white;stroke-width:3.82px;stroke-miterlimit:1.5;"/><path d="M1779.08,726.29C1779.08,726.29 1779.1,714.223 1778.94,711.941" style="fill:none;stroke:white;stroke-width:3.82px;stroke-miterlimit:1.5;"/></g><circle cx="1746.52" cy="708.061" r="1.619" style="fill:white;"/><circle cx="1746.52" cy="720.598" r="1.619" style="fill:white;"/></g></g><path d="M439.683,6.642C439.683,6.642 437.156,79.386 439.683,84.118C444.618,93.362 1421.11,86.922 1423.27,85.005C1426.17,82.427 1425.31,6.868 1423.27,5.343C1417.73,1.203 442.74,3.574 439.683,6.642Z" style="fill:rgb(213,213,213);stroke:black;stroke-width:6.25px;stroke-miterlimit:1.5;"/><rect x="1185.45" y="14.634" width="224.32" height="57.821" style="fill:rgb(99,171,31);stroke:black;stroke-width:6.25px;stroke-miterlimit:1.5;"/><path d="M1225.38,42.161L1222.61,42.161C1222.37,40.306 1221.5,39.378 1219.99,39.378C1219,39.378 1218.26,39.57 1217.77,39.956C1217.28,40.341 1217.03,40.919 1217.03,41.689C1217.03,42.481 1218.38,43.599 1221.08,45.042C1223.27,46.225 1224.54,47.204 1224.88,47.98C1225.21,48.755 1225.38,49.583 1225.38,50.462C1225.38,52.003 1224.83,53.318 1223.74,54.409C1222.65,55.499 1221.35,56.044 1219.83,56.044L1217.05,56.044C1213.35,56.044 1211.5,54.194 1211.5,50.494L1214.28,50.494C1214.5,52.35 1215.36,53.278 1216.88,53.278C1217.87,53.278 1218.61,53.082 1219.11,52.692C1219.6,52.301 1219.85,51.72 1219.85,50.95C1219.85,50.169 1218.5,49.051 1215.81,47.597C1213.61,46.425 1212.34,45.449 1212,44.667C1211.66,43.886 1211.5,43.062 1211.5,42.194C1211.5,40.642 1212.04,39.321 1213.14,38.23C1214.24,37.14 1215.54,36.595 1217.05,36.595L1219.83,36.595C1223.3,36.595 1225.15,38.45 1225.38,42.161Z" style="fill-opacity:0.48;fill-rule:nonzero;"/><path d="M1230.95,33.828L1230.95,31.044L1236.5,31.044L1236.5,33.828L1230.95,33.828ZM1230.95,56.044L1230.95,36.595L1236.5,36.595L1236.5,56.044L1230.95,56.044Z" style="fill-opacity:0.48;fill-rule:nonzero;"/><path d="M1258.73,56.044L1253.18,56.044L1253.18,42.161C1253.18,41.401 1252.9,40.748 1252.36,40.2C1251.81,39.652 1251.15,39.378 1250.4,39.378C1249.64,39.378 1248.98,39.652 1248.43,40.2C1247.89,40.748 1247.61,41.401 1247.61,42.161L1247.61,56.044L1242.06,56.044L1242.06,36.595L1247.61,36.595L1247.61,39.378C1247.72,38.445 1248.01,37.747 1248.48,37.286C1248.94,36.825 1249.58,36.595 1250.4,36.595L1253.18,36.595C1255.07,36.595 1256.46,37.251 1257.35,38.564C1257.78,37.902 1258.34,37.408 1259.04,37.083C1259.73,36.757 1260.56,36.595 1261.51,36.595L1264.28,36.595C1265.8,36.595 1267.11,37.14 1268.2,38.23C1269.3,39.321 1269.85,40.631 1269.85,42.161L1269.85,56.044L1264.28,56.044L1264.28,42.161C1264.28,41.412 1264.01,40.761 1263.46,40.208C1262.91,39.654 1262.26,39.378 1261.51,39.378C1260.75,39.378 1260.1,39.652 1259.55,40.2C1259,40.748 1258.73,41.401 1258.73,42.161L1258.73,56.044Z" style="fill-opacity:0.48;fill-rule:nonzero;"/><rect x="1275.4" y="44.928" width="13.883" height="2.783" style="fill-opacity:0.48;fill-rule:nonzero;"/><path d="M1294.85,56.044L1294.85,31.044L1300.4,31.044L1300.4,39.378C1300.5,38.445 1300.79,37.747 1301.26,37.286C1301.73,36.825 1302.37,36.595 1303.18,36.595L1305.96,36.595C1307.48,36.595 1308.79,37.143 1309.88,38.238C1310.97,39.334 1311.51,40.642 1311.51,42.161L1311.51,50.494C1311.51,52.003 1310.97,53.305 1309.88,54.401C1308.79,55.496 1307.48,56.044 1305.96,56.044L1294.85,56.044ZM1300.4,53.261L1303.18,53.261C1303.95,53.261 1304.61,52.987 1305.15,52.439C1305.69,51.891 1305.96,51.243 1305.96,50.494L1305.96,42.161C1305.96,41.401 1305.69,40.748 1305.14,40.2C1304.59,39.652 1303.94,39.378 1303.18,39.378C1302.42,39.378 1301.77,39.652 1301.22,40.2C1300.67,40.748 1300.4,41.401 1300.4,42.161L1300.4,53.261Z" style="fill-opacity:0.48;fill-rule:nonzero;"/><path d="M1322.61,56.044L1317.06,56.044L1317.06,36.595L1322.61,36.595L1322.61,42.161C1322.83,40.306 1323.4,38.914 1324.33,37.986C1325.26,37.058 1326.54,36.595 1328.18,36.595L1330.95,36.595L1330.95,42.161L1325.4,42.161C1324.64,42.161 1323.98,42.432 1323.43,42.975C1322.89,43.517 1322.61,44.168 1322.61,44.928L1322.61,56.044Z" style="fill-opacity:0.48;fill-rule:nonzero;"/><path d="M1344.85,44.928L1344.85,42.161C1344.85,41.401 1344.57,40.748 1344.02,40.2C1343.48,39.652 1342.82,39.378 1342.06,39.378L1339.28,39.378C1337.64,39.378 1336.72,40.306 1336.51,42.161L1333.73,42.161C1334.15,38.45 1336,36.595 1339.28,36.595L1344.85,36.595C1346.36,36.595 1347.67,37.143 1348.76,38.238C1349.85,39.334 1350.4,40.642 1350.4,42.161L1350.4,56.044L1344.85,56.044L1344.85,53.261C1344.63,55.117 1343.7,56.044 1342.06,56.044L1339.28,56.044C1337.76,56.044 1336.45,55.499 1335.37,54.409C1334.27,53.318 1333.73,52.013 1333.73,50.494L1333.73,50.478C1333.73,48.959 1334.28,47.654 1335.37,46.564C1336.47,45.473 1337.77,44.928 1339.28,44.928L1344.85,44.928ZM1344.85,47.711L1342.06,47.711C1341.3,47.711 1340.65,47.982 1340.1,48.525C1339.55,49.067 1339.28,49.718 1339.28,50.478L1339.28,50.494C1339.28,51.243 1339.55,51.891 1340.09,52.439C1340.63,52.987 1341.29,53.261 1342.06,53.261C1342.83,53.261 1343.49,52.987 1344.03,52.439C1344.57,51.891 1344.85,51.243 1344.85,50.494L1344.85,47.711Z" style="fill-opacity:0.48;fill-rule:nonzero;"/><path d="M1355.95,33.828L1355.95,31.044L1361.5,31.044L1361.5,33.828L1355.95,33.828ZM1355.95,56.044L1355.95,36.595L1361.5,36.595L1361.5,56.044L1355.95,56.044Z" style="fill-opacity:0.48;fill-rule:nonzero;"/><path d="M1367.06,56.044L1367.06,36.595L1372.61,36.595L1372.61,39.378C1372.72,38.445 1373.01,37.747 1373.48,37.286C1373.94,36.825 1374.58,36.595 1375.4,36.595L1378.18,36.595C1379.7,36.595 1381,37.143 1382.09,38.238C1383.18,39.334 1383.73,40.642 1383.73,42.161L1383.73,56.044L1378.18,56.044L1378.18,42.161C1378.18,41.401 1377.9,40.748 1377.36,40.2C1376.81,39.652 1376.15,39.378 1375.4,39.378C1374.64,39.378 1373.98,39.652 1373.43,40.2C1372.89,40.748 1372.61,41.401 1372.61,42.161L1372.61,56.044L1367.06,56.044Z" style="fill-opacity:0.48;fill-rule:nonzero;"/><g><path d="M459.552,24.459C459.552,24.459 606.246,24.124 617.931,24.532" style="fill:rgb(35,35,35);stroke:rgb(90,90,90);stroke-width:4.17px;stroke-miterlimit:1.5;"/><path d="M459.552,38.414C459.552,38.414 519.523,38.992 617.931,38.487" style="fill:rgb(35,35,35);stroke:rgb(90,90,90);stroke-width:4.17px;stroke-miterlimit:1.5;"/><path d="M459.552,52.369C459.552,52.369 590.959,51.195 617.931,52.442" style="fill:rgb(35,35,35);stroke:rgb(90,90,90);stroke-width:4.17px;stroke-miterlimit:1.5;"/><path d="M459.552,66.324C459.552,66.324 606.246,65.989 617.931,66.397" style="fill:rgb(35,35,35);stroke:rgb(90,90,90);stroke-width:4.17px;stroke-miterlimit:1.5;"/></g><g><circle cx="655.27" cy="32.062" r="9.312" style="fill:rgb(192,57,43);stroke:black;stroke-width:4.17px;stroke-miterlimit:1.5;"/><circle cx="688.293" cy="60.038" r="9.312" style="fill:rgb(39,174,96);stroke:black;stroke-width:4.17px;stroke-miterlimit:1.5;"/><circle cx="688.293" cy="32.062" r="9.312" style="fill:rgb(46,171,255);stroke:black;stroke-width:4.17px;stroke-miterlimit:1.5;"/><circle cx="655.27" cy="60.038" r="9.312" style="fill:rgb(0,236,100);stroke:black;stroke-width:4.17px;stroke-miterlimit:1.5;"/><circle cx="721.316" cy="32.062" r="9.312" style="fill:rgb(231,76,60);stroke:black;stroke-width:4.17px;stroke-miterlimit:1.5;"/><circle cx="721.316" cy="60.038" r="9.312" style="fill:rgb(192,57,43);stroke:black;stroke-width:4.17px;stroke-miterlimit:1.5;"/><circle cx="754.338" cy="32.062" r="9.312" style="fill:rgb(41,128,185);stroke:black;stroke-width:4.17px;stroke-miterlimit:1.5;"/><circle cx="754.338" cy="60.038" r="9.312" style="fill:rgb(231,76,60);stroke:black;stroke-width:4.17px;stroke-miterlimit:1.5;"/><circle cx="787.361" cy="32.062" r="9.312" style="fill:rgb(39,174,96);stroke:black;stroke-width:4.17px;stroke-miterlimit:1.5;"/><circle cx="787.361" cy="60.038" r="9.312" style="fill:rgb(46,171,255);stroke:black;stroke-width:4.17px;stroke-miterlimit:1.5;"/></g><path d="M327.648,464.708C324.198,464.708 321.398,461.907 321.398,458.458C321.398,455.008 324.198,452.208 327.648,464.708ZM327.648,464.708C327.648,464.708 328.551,450.503 324.155,453.274C326.585,451.634 329.917,451.889 332.067,454.038C334.506,456.478 334.506,460.438 332.067,462.877C329.812,465.132 327.648,464.708 327.648,464.708ZM324.155,453.274C323.828,453.494 323.517,453.749 323.228,454.038C323.561,453.706 323.869,453.454 324.155,453.274ZM640.869,137.307C641.083,136.52 641.555,135.712 642.368,134.899C641.667,135.6 641.167,136.427 640.869,137.307ZM640.606,138.398C640.661,138.029 640.748,137.663 640.869,137.307C640.844,137.399 640.822,137.491 640.804,137.583C641.582,135.356 643.967,135.351 646.787,145.567C646.786,145.567 646.786,145.567 646.785,145.567C646.786,145.568 646.787,145.568 646.787,145.568C645.953,145.568 645.157,145.405 644.429,145.107C643.679,144.803 642.976,144.346 642.368,143.738C641.759,143.13 641.303,142.427 640.998,141.677C640.701,140.949 640.537,140.153 640.537,139.318C640.537,139.002 640.561,138.692 640.606,138.398ZM646.787,145.567C648.387,145.567 649.987,144.958 651.206,143.738C648.952,145.993 646.787,145.568 646.787,145.568C646.787,145.568 646.787,145.568 646.787,145.567ZM358.662,436.282C356.223,438.722 352.262,438.722 349.823,436.282C347.384,433.843 347.384,429.883 349.823,427.444C352.262,425.004 356.223,425.004 358.662,427.443C361.101,429.883 361.101,433.843 358.662,436.282ZM385.257,409.687C382.818,412.127 378.857,412.127 376.418,409.688C373.979,407.248 373.979,403.288 376.418,400.849C378.857,398.409 382.818,398.409 385.257,400.848C387.696,403.288 387.696,407.248 385.257,409.687ZM411.852,383.092C409.413,385.531 405.452,385.531 403.013,383.092C400.574,380.653 400.574,376.693 403.013,374.253C405.452,371.814 409.413,371.814 411.852,374.253C414.291,376.692 414.291,380.653 411.852,383.092ZM438.447,356.497C436.008,358.936 432.047,358.936 429.608,356.497C427.169,354.058 427.169,350.097 429.608,347.658C432.048,345.219 436.008,345.219 438.447,347.658C440.887,350.097 440.886,354.058 438.447,356.497ZM465.042,329.902C462.603,332.342 458.642,332.342 456.203,329.903C453.764,327.463 453.764,323.503 456.203,321.064C458.642,318.624 462.603,318.624 465.042,321.063C467.481,323.503 467.481,327.463 465.042,329.902ZM491.636,303.308C489.197,305.747 485.237,305.747 482.797,303.308C480.358,300.869 480.358,296.908 482.798,294.469C485.237,292.03 489.197,292.03 491.637,294.469C494.076,296.908 494.076,300.869 491.636,303.308ZM518.232,276.713C515.793,279.152 511.832,279.152 509.393,276.713C506.954,274.273 506.954,270.313 509.393,267.874C511.832,265.435 515.793,265.434 518.232,267.874C520.671,270.313 520.671,274.273 518.232,276.713ZM544.826,250.118C542.387,252.557 538.427,252.557 535.988,250.118C533.548,247.679 533.548,243.718 535.988,241.279C538.427,238.84 542.387,238.84 544.827,241.279C547.266,243.718 547.266,247.679 544.826,250.118ZM571.422,223.523C568.982,225.962 565.022,225.962 562.583,223.523C560.144,221.084 560.144,217.123 562.583,214.684C565.022,212.245 568.983,212.245 571.422,214.684C573.861,217.123 573.861,221.084 571.422,223.523ZM598.017,196.928C595.578,199.367 591.617,199.367 589.178,196.928C586.739,194.488 586.739,190.528 589.178,188.089C591.617,185.65 595.578,185.65 598.017,188.089C600.456,190.528 600.456,194.488 598.017,196.928ZM624.612,170.333C622.173,172.772 618.212,172.772 615.773,170.333C613.334,167.894 613.334,163.933 615.773,161.494C618.212,159.055 622.173,159.055 624.612,161.494C627.051,163.933 627.051,167.894 624.612,170.333Z"/><path d="M1208.16,145.567C1208.15,145.41 1207.16,129.482 1212.58,134.899C1215.02,137.338 1215.02,141.299 1212.58,143.738C1211.36,144.957 1209.76,145.567 1208.16,145.567ZM1208.16,145.567C1208.16,145.568 1208.16,145.568 1208.16,145.568C1208.16,145.568 1205.99,145.993 1203.74,143.738C1204.34,144.341 1205.04,144.795 1205.78,145.1C1203.51,144.164 1201.91,141.927 1201.91,139.318C1201.91,135.869 1204.71,133.069 1208.16,145.567ZM1492.05,428.472C1492.24,427.19 1492.82,425.956 1493.81,424.97C1496.25,422.531 1500.21,422.531 1502.65,424.97C1508.09,430.414 1498.23,435.639 1498.23,435.639C1498.23,435.639 1496.06,436.064 1493.81,433.809C1493.21,433.206 1492.75,432.509 1492.45,431.766C1492.15,431.033 1491.98,430.231 1491.98,429.389C1491.98,429.074 1492,428.765 1492.05,428.472ZM1232.75,172.745C1230.31,170.306 1230.31,166.345 1232.75,163.906C1235.18,161.467 1239.14,161.467 1241.59,163.906C1244.02,166.345 1244.02,170.306 1241.59,172.745C1239.14,175.184 1235.18,175.184 1232.75,172.745ZM1261.75,201.752C1259.31,199.313 1259.31,195.352 1261.75,192.913C1264.19,190.474 1268.15,190.474 1270.59,192.913C1273.03,195.353 1273.03,199.313 1270.59,201.752C1268.15,204.191 1264.19,204.191 1261.75,201.752ZM1290.76,230.759C1288.32,228.32 1288.32,224.359 1290.76,221.92C1293.2,219.481 1297.16,219.481 1299.6,221.92C1302.04,224.36 1302.04,228.32 1299.6,230.759C1297.16,233.198 1293.2,233.198 1290.76,230.759ZM1319.77,259.766C1317.33,257.327 1317.33,253.366 1319.77,250.927C1322.21,248.488 1326.17,248.488 1328.61,250.927C1331.05,253.367 1331.05,257.327 1328.61,259.766C1326.17,262.206 1322.21,262.205 1319.77,259.766ZM1348.77,288.773C1346.34,286.334 1346.34,282.373 1348.77,279.934C1351.21,277.495 1355.17,277.495 1357.61,279.934C1360.05,282.373 1360.05,286.334 1357.61,288.773C1355.17,291.212 1351.21,291.212 1348.77,288.773ZM1377.78,317.781C1375.34,315.341 1375.34,311.381 1377.78,308.942C1380.22,306.503 1384.18,306.503 1386.62,308.942C1389.06,311.381 1389.06,315.342 1386.62,317.781C1384.18,320.22 1380.22,320.22 1377.78,317.781ZM1406.79,346.788C1404.35,344.349 1404.35,340.388 1406.79,337.949C1409.23,335.51 1413.19,335.51 1415.63,337.949C1418.07,340.388 1418.07,344.349 1415.63,346.788C1413.19,349.227 1409.23,349.227 1406.79,346.788ZM1435.8,375.795C1433.36,373.356 1433.36,369.395 1435.8,366.956C1438.23,364.517 1442.19,364.517 1444.63,366.956C1447.07,369.395 1447.07,373.356 1444.63,375.795C1442.19,378.234 1438.24,378.234 1435.8,375.795ZM1464.8,404.802C1462.36,402.363 1462.36,398.402 1464.8,395.963C1467.24,393.524 1471.2,393.524 1473.64,395.963C1476.08,398.402 1476.08,402.363 1473.64,404.802C1471.2,407.241 1467.24,407.241 1464.8,404.802Z"/></svg>